%TF.GenerationSoftware,KiCad,Pcbnew,(2017-10-17 revision 537804b)-master*%
%TF.CreationDate,2018-07-24T22:51:58+10:00*%
%TF.ProjectId,rf_matching,72665F6D61746368696E672E6B696361,rev?*%
%TF.SameCoordinates,PX8094428PY7b4f620*%
%TF.FileFunction,Legend,Top*%
%TF.FilePolarity,Positive*%
%FSLAX46Y46*%
G04 Gerber Fmt 4.6, Leading zero omitted, Abs format (unit mm)*
G04 Created by KiCad (PCBNEW (2017-10-17 revision 537804b)-master) date Tuesday, 24 July 2018 'PMt' 22:51:58*
%MOMM*%
%LPD*%
G01*
G04 APERTURE LIST*
%ADD10C,0.300000*%
%ADD11C,0.254000*%
%ADD12C,0.100000*%
%ADD13C,0.120000*%
%ADD14C,0.150000*%
G04 APERTURE END LIST*
D10*
X50985714Y25314286D02*
X50914285Y25242858D01*
X50700000Y25171429D01*
X50557142Y25171429D01*
X50342857Y25242858D01*
X50200000Y25385715D01*
X50128571Y25528572D01*
X50057142Y25814286D01*
X50057142Y26028572D01*
X50128571Y26314286D01*
X50200000Y26457143D01*
X50342857Y26600000D01*
X50557142Y26671429D01*
X50700000Y26671429D01*
X50914285Y26600000D01*
X50985714Y26528572D01*
X51414285Y26671429D02*
X52271428Y26671429D01*
X51842857Y25171429D02*
X51842857Y26671429D01*
X53628571Y25171429D02*
X53128571Y25885715D01*
X52771428Y25171429D02*
X52771428Y26671429D01*
X53342857Y26671429D01*
X53485714Y26600000D01*
X53557142Y26528572D01*
X53628571Y26385715D01*
X53628571Y26171429D01*
X53557142Y26028572D01*
X53485714Y25957143D01*
X53342857Y25885715D01*
X52771428Y25885715D01*
X54985714Y25171429D02*
X54271428Y25171429D01*
X54271428Y26671429D01*
X51385714Y48175000D02*
X52100000Y48175000D01*
X51242857Y47746429D02*
X51742857Y49246429D01*
X52242857Y47746429D01*
X52742857Y47746429D02*
X52742857Y49246429D01*
X53600000Y47746429D01*
X53600000Y49246429D01*
X54100000Y49246429D02*
X54957142Y49246429D01*
X54528571Y47746429D02*
X54528571Y49246429D01*
X28414285Y46646429D02*
X27914285Y47360715D01*
X27557142Y46646429D02*
X27557142Y48146429D01*
X28128571Y48146429D01*
X28271428Y48075000D01*
X28342857Y48003572D01*
X28414285Y47860715D01*
X28414285Y47646429D01*
X28342857Y47503572D01*
X28271428Y47432143D01*
X28128571Y47360715D01*
X27557142Y47360715D01*
X29557142Y47432143D02*
X29057142Y47432143D01*
X29057142Y46646429D02*
X29057142Y48146429D01*
X29771428Y48146429D01*
X30342857Y46646429D02*
X30342857Y48146429D01*
X28810714Y24371429D02*
X28310714Y25085715D01*
X27953571Y24371429D02*
X27953571Y25871429D01*
X28525000Y25871429D01*
X28667857Y25800000D01*
X28739285Y25728572D01*
X28810714Y25585715D01*
X28810714Y25371429D01*
X28739285Y25228572D01*
X28667857Y25157143D01*
X28525000Y25085715D01*
X27953571Y25085715D01*
X29953571Y25157143D02*
X29453571Y25157143D01*
X29453571Y24371429D02*
X29453571Y25871429D01*
X30167857Y25871429D01*
X31025000Y25871429D02*
X31310714Y25871429D01*
X31453571Y25800000D01*
X31596428Y25657143D01*
X31667857Y25371429D01*
X31667857Y24871429D01*
X31596428Y24585715D01*
X31453571Y24442858D01*
X31310714Y24371429D01*
X31025000Y24371429D01*
X30882142Y24442858D01*
X30739285Y24585715D01*
X30667857Y24871429D01*
X30667857Y25371429D01*
X30739285Y25657143D01*
X30882142Y25800000D01*
X31025000Y25871429D01*
D11*
%TO.C,U1*%
X35450000Y34550000D02*
X35450000Y36550000D01*
X35450000Y36550000D02*
X34650000Y36550000D01*
X34650000Y36550000D02*
X34650000Y34550000D01*
X34650000Y34550000D02*
X35450000Y34550000D01*
X34232843Y37050000D02*
G75*
G03X34232843Y37050000I-282843J0D01*
G01*
D12*
%TO.C,U2*%
X51024310Y34290000D02*
G75*
G03X51024310Y34290000I-234310J0D01*
G01*
D13*
%TO.C,R1*%
X38370000Y40875000D02*
X38370000Y41875000D01*
X39730000Y41875000D02*
X39730000Y40875000D01*
%TO.C,R2*%
X54475000Y30655000D02*
X55475000Y30655000D01*
X55475000Y29295000D02*
X54475000Y29295000D01*
%TO.C,C1*%
X52050000Y39875000D02*
X52050000Y40575000D01*
X53250000Y40575000D02*
X53250000Y39875000D01*
%TO.C,C2*%
X32826777Y39696751D02*
X33321751Y39201777D01*
X32473223Y38353249D02*
X31978249Y38848223D01*
%TO.C,C3*%
X33296751Y31898223D02*
X32801777Y31403249D01*
X31953249Y32251777D02*
X32448223Y32746751D01*
%TO.C,J1*%
D14*
X26441666Y44972620D02*
X26441666Y44258334D01*
X26394047Y44115477D01*
X26298809Y44020239D01*
X26155952Y43972620D01*
X26060714Y43972620D01*
X27441666Y43972620D02*
X26870238Y43972620D01*
X27155952Y43972620D02*
X27155952Y44972620D01*
X27060714Y44829762D01*
X26965476Y44734524D01*
X26870238Y44686905D01*
%TO.C,J2*%
X26566666Y31647620D02*
X26566666Y30933334D01*
X26519047Y30790477D01*
X26423809Y30695239D01*
X26280952Y30647620D01*
X26185714Y30647620D01*
X26995238Y31552381D02*
X27042857Y31600000D01*
X27138095Y31647620D01*
X27376190Y31647620D01*
X27471428Y31600000D01*
X27519047Y31552381D01*
X27566666Y31457143D01*
X27566666Y31361905D01*
X27519047Y31219048D01*
X26947619Y30647620D01*
X27566666Y30647620D01*
%TO.C,J3*%
X57216666Y32747620D02*
X57216666Y32033334D01*
X57169047Y31890477D01*
X57073809Y31795239D01*
X56930952Y31747620D01*
X56835714Y31747620D01*
X57597619Y32747620D02*
X58216666Y32747620D01*
X57883333Y32366667D01*
X58026190Y32366667D01*
X58121428Y32319048D01*
X58169047Y32271429D01*
X58216666Y32176191D01*
X58216666Y31938096D01*
X58169047Y31842858D01*
X58121428Y31795239D01*
X58026190Y31747620D01*
X57740476Y31747620D01*
X57645238Y31795239D01*
X57597619Y31842858D01*
%TO.C,J4*%
X57041666Y46747620D02*
X57041666Y46033334D01*
X56994047Y45890477D01*
X56898809Y45795239D01*
X56755952Y45747620D01*
X56660714Y45747620D01*
X57946428Y46414286D02*
X57946428Y45747620D01*
X57708333Y46795239D02*
X57470238Y46080953D01*
X58089285Y46080953D01*
%TO.C,U1*%
D11*
X34717380Y38785477D02*
X34717380Y37757381D01*
X34777857Y37636429D01*
X34838333Y37575953D01*
X34959285Y37515477D01*
X35201190Y37515477D01*
X35322142Y37575953D01*
X35382619Y37636429D01*
X35443095Y37757381D01*
X35443095Y38785477D01*
X36713095Y37515477D02*
X35987380Y37515477D01*
X36350238Y37515477D02*
X36350238Y38785477D01*
X36229285Y38604048D01*
X36108333Y38483096D01*
X35987380Y38422620D01*
%TO.C,U2*%
X46207380Y39345477D02*
X46207380Y38317381D01*
X46267857Y38196429D01*
X46328333Y38135953D01*
X46449285Y38075477D01*
X46691190Y38075477D01*
X46812142Y38135953D01*
X46872619Y38196429D01*
X46933095Y38317381D01*
X46933095Y39345477D01*
X47477380Y39224524D02*
X47537857Y39285000D01*
X47658809Y39345477D01*
X47961190Y39345477D01*
X48082142Y39285000D01*
X48142619Y39224524D01*
X48203095Y39103572D01*
X48203095Y38982620D01*
X48142619Y38801191D01*
X47416904Y38075477D01*
X48203095Y38075477D01*
%TO.C,J5*%
D14*
X31642380Y47011667D02*
X32356666Y47011667D01*
X32499523Y46964048D01*
X32594761Y46868810D01*
X32642380Y46725953D01*
X32642380Y46630715D01*
X31642380Y47964048D02*
X31642380Y47487858D01*
X32118571Y47440239D01*
X32070952Y47487858D01*
X32023333Y47583096D01*
X32023333Y47821191D01*
X32070952Y47916429D01*
X32118571Y47964048D01*
X32213809Y48011667D01*
X32451904Y48011667D01*
X32547142Y47964048D01*
X32594761Y47916429D01*
X32642380Y47821191D01*
X32642380Y47583096D01*
X32594761Y47487858D01*
X32547142Y47440239D01*
%TO.C,R1*%
X38052380Y41208334D02*
X37576190Y40875000D01*
X38052380Y40636905D02*
X37052380Y40636905D01*
X37052380Y41017858D01*
X37100000Y41113096D01*
X37147619Y41160715D01*
X37242857Y41208334D01*
X37385714Y41208334D01*
X37480952Y41160715D01*
X37528571Y41113096D01*
X37576190Y41017858D01*
X37576190Y40636905D01*
X38052380Y42160715D02*
X38052380Y41589286D01*
X38052380Y41875000D02*
X37052380Y41875000D01*
X37195238Y41779762D01*
X37290476Y41684524D01*
X37338095Y41589286D01*
%TO.C,R2*%
X54808333Y28072620D02*
X54475000Y28548810D01*
X54236904Y28072620D02*
X54236904Y29072620D01*
X54617857Y29072620D01*
X54713095Y29025000D01*
X54760714Y28977381D01*
X54808333Y28882143D01*
X54808333Y28739286D01*
X54760714Y28644048D01*
X54713095Y28596429D01*
X54617857Y28548810D01*
X54236904Y28548810D01*
X55189285Y28977381D02*
X55236904Y29025000D01*
X55332142Y29072620D01*
X55570238Y29072620D01*
X55665476Y29025000D01*
X55713095Y28977381D01*
X55760714Y28882143D01*
X55760714Y28786905D01*
X55713095Y28644048D01*
X55141666Y28072620D01*
X55760714Y28072620D01*
%TO.C,C1*%
X54507142Y40058334D02*
X54554761Y40010715D01*
X54602380Y39867858D01*
X54602380Y39772620D01*
X54554761Y39629762D01*
X54459523Y39534524D01*
X54364285Y39486905D01*
X54173809Y39439286D01*
X54030952Y39439286D01*
X53840476Y39486905D01*
X53745238Y39534524D01*
X53650000Y39629762D01*
X53602380Y39772620D01*
X53602380Y39867858D01*
X53650000Y40010715D01*
X53697619Y40058334D01*
X54602380Y41010715D02*
X54602380Y40439286D01*
X54602380Y40725000D02*
X53602380Y40725000D01*
X53745238Y40629762D01*
X53840476Y40534524D01*
X53888095Y40439286D01*
%TO.C,C2*%
X31218950Y37829653D02*
X31151607Y37829653D01*
X31016920Y37896997D01*
X30949576Y37964340D01*
X30882233Y38099028D01*
X30882233Y38233715D01*
X30915904Y38334730D01*
X31016920Y38503089D01*
X31117935Y38604104D01*
X31286294Y38705119D01*
X31387309Y38738791D01*
X31521996Y38738791D01*
X31656683Y38671447D01*
X31724027Y38604104D01*
X31791370Y38469417D01*
X31791370Y38402073D01*
X32060744Y38132699D02*
X32128088Y38132699D01*
X32229103Y38099028D01*
X32397462Y37930669D01*
X32431133Y37829653D01*
X32431133Y37762310D01*
X32397462Y37661295D01*
X32330118Y37593951D01*
X32195431Y37526608D01*
X31387309Y37526608D01*
X31825042Y37088875D01*
%TO.C,C3*%
X33820347Y30643951D02*
X33820347Y30576608D01*
X33753003Y30441921D01*
X33685660Y30374577D01*
X33550972Y30307234D01*
X33416285Y30307234D01*
X33315270Y30340905D01*
X33146911Y30441921D01*
X33045896Y30542936D01*
X32944881Y30711295D01*
X32911209Y30812310D01*
X32911209Y30946997D01*
X32978553Y31081684D01*
X33045896Y31149028D01*
X33180583Y31216371D01*
X33247927Y31216371D01*
X33416285Y31519417D02*
X33854018Y31957150D01*
X33887690Y31452073D01*
X33988705Y31553089D01*
X34089721Y31586760D01*
X34157064Y31586760D01*
X34258079Y31553089D01*
X34426438Y31384730D01*
X34460110Y31283715D01*
X34460110Y31216371D01*
X34426438Y31115356D01*
X34224408Y30913325D01*
X34123392Y30879653D01*
X34056049Y30879653D01*
%TD*%
M02*
