M48
;DRILL file {KiCad (2017-10-17 revision 537804b)-master} date Tuesday, 04 September 2018 'AMt' 11:21:11
;FORMAT={3:3/ absolute / metric / suppress leading zeros}
FMAT,2
METRIC,TZ
T1C0.300
T2C0.400
T3C0.460
T4C1.200
%
G90
G05
M71
T1
X144900Y-72300
X144900Y-73200
X144900Y-74200
X144900Y-75200
X144900Y-76300
X144900Y-77300
X144900Y-78400
X144900Y-79200
X144900Y-80200
X144900Y-81200
X144900Y-82100
X144900Y-83000
X144900Y-83900
X144900Y-84900
X144900Y-85900
X144900Y-86900
X144900Y-87900
X144900Y-89000
X144900Y-89800
X144900Y-90700
X144900Y-91600
X144900Y-92500
X144900Y-93500
X144900Y-94400
X144900Y-95400
X144900Y-96400
X144900Y-97200
X144900Y-98200
X144900Y-99100
X144900Y-100000
X144900Y-100900
X144900Y-101900
X144900Y-102800
X144900Y-103800
X144900Y-104800
X144900Y-105800
X144900Y-106700
X144900Y-107700
X144900Y-108800
X144900Y-109900
X144900Y-110900
X144900Y-111800
X144900Y-112700
X144900Y-113600
X144900Y-114600
X144900Y-115700
X144900Y-116600
X145100Y-117600
X145200Y-105200
X145400Y-87300
X145500Y-91900
X145500Y-96800
X145500Y-109400
X145500Y-113600
X145600Y-87900
X145600Y-92400
X145600Y-100700
X145700Y-72100
X145700Y-109900
X145800Y-114200
X145900Y-96300
X145900Y-101400
X145900Y-105200
X146000Y-87300
X146100Y-91900
X146100Y-96800
X146100Y-109400
X146100Y-118000
X146200Y-113600
X146300Y-100700
X146400Y-87900
X146400Y-109800
X146500Y-72100
X146500Y-105200
X146600Y-114100
X146700Y-92400
X146700Y-96300
X146700Y-101300
X146700Y-109400
X146800Y-87300
X146900Y-113600
X147100Y-91900
X147100Y-96800
X147100Y-100700
X147100Y-109800
X147200Y-87800
X147200Y-105200
X147200Y-118000
X147300Y-72100
X147300Y-114100
X147400Y-92400
X147400Y-109400
X147500Y-96300
X147500Y-101300
X147700Y-87300
X147700Y-113600
X147800Y-91900
X147800Y-109800
X147900Y-87800
X147900Y-96800
X147900Y-100700
X147900Y-105200
X148000Y-114100
X148100Y-92400
X148100Y-109400
X148200Y-96300
X148200Y-101300
X148200Y-118000
X148300Y-113600
X148400Y-72100
X148500Y-87300
X148500Y-91900
X148600Y-96800
X148600Y-100700
X148600Y-105200
X148600Y-109800
X148800Y-87800
X148800Y-92400
X148800Y-114100
X148900Y-96300
X148900Y-109400
X149000Y-101300
X149200Y-87300
X149200Y-91900
X149200Y-113600
X149300Y-96800
X149300Y-105200
X149400Y-72100
X149400Y-100700
X149400Y-109800
X149400Y-114100
X149400Y-118000
X149500Y-92400
X149600Y-87800
X149600Y-109400
X149700Y-96300
X149800Y-113600
X149900Y-91900
X149900Y-101300
X150000Y-105200
X150100Y-87300
X150100Y-96800
X150100Y-114100
X150200Y-72100
X150200Y-109400
X150300Y-92400
X150300Y-100700
X150300Y-118000
X150400Y-87800
X150400Y-113600
X150500Y-96300
X150500Y-109800
X150700Y-91900
X150700Y-101300
X150700Y-105200
X150800Y-87300
X150800Y-96800
X150800Y-109400
X150800Y-114100
X150900Y-72100
X151000Y-92400
X151100Y-100700
X151200Y-87800
X151200Y-105200
X151200Y-109800
X151200Y-113600
X151300Y-96300
X151400Y-91900
X151400Y-118000
X151500Y-101300
X151500Y-109400
X151600Y-114100
X151700Y-87300
X151700Y-92400
X151800Y-96800
X151800Y-100700
X151800Y-105200
X151800Y-113600
X152000Y-72100
X152000Y-87800
X152000Y-91700
X152000Y-109400
X152100Y-96200
X152100Y-110100
X152200Y-118000
X152300Y-92800
X152300Y-101300
X152400Y-113300
X152500Y-87300
X152600Y-87800
X152800Y-93200
X152800Y-96100
X152800Y-110200
X153000Y-113300
X153100Y-72100
X153200Y-118000
X153500Y-93200
X153500Y-110200
X153600Y-96100
X153700Y-113300
X154200Y-93200
X154200Y-110200
X154200Y-118000
X154300Y-72100
X154400Y-96100
X154400Y-113300
X154900Y-93200
X155100Y-96000
X155100Y-110200
X155100Y-118000
X155200Y-113300
X155300Y-72100
X155400Y-93400
X155700Y-96000
X156000Y-93200
X156000Y-110200
X156100Y-113300
X156100Y-118000
X156300Y-72100
X156500Y-93200
X156500Y-96100
X156800Y-113300
X157100Y-93200
X157100Y-110200
X157200Y-72100
X157300Y-118000
X157400Y-96100
X157500Y-113300
X157900Y-93200
X158100Y-110200
X158300Y-72100
X158300Y-96100
X158400Y-113300
X158400Y-118000
X158600Y-93200
X159100Y-72900
X159100Y-73500
X159100Y-74400
X159100Y-75100
X159100Y-75800
X159100Y-76300
X159100Y-76900
X159100Y-77600
X159100Y-78200
X159100Y-79000
X159100Y-110200
X159200Y-72100
X159200Y-96100
X159400Y-93200
X159400Y-113300
X159500Y-118000
X159900Y-110200
X160100Y-72100
X160100Y-93200
X160100Y-96100
X160200Y-113300
X160700Y-110200
X160700Y-118000
X160800Y-93200
X161000Y-72100
X161000Y-96100
X161000Y-113300
X161500Y-93200
X161500Y-110200
X161700Y-113300
X161700Y-118000
X161800Y-96100
X161900Y-72100
X162200Y-93200
X162400Y-110200
X162500Y-113300
X162600Y-96100
X162800Y-72100
X162800Y-118000
X163000Y-93200
X163200Y-87000
X163300Y-72800
X163300Y-73500
X163300Y-74400
X163300Y-75100
X163300Y-75800
X163300Y-76400
X163300Y-77100
X163300Y-77800
X163300Y-78500
X163300Y-84800
X163300Y-85500
X163300Y-86200
X163300Y-87700
X163300Y-88300
X163300Y-89000
X163300Y-110200
X163400Y-96100
X163400Y-113300
X163500Y-89700
X163700Y-72100
X163700Y-93200
X163800Y-73600
X163800Y-74100
X163800Y-74700
X163800Y-75400
X163800Y-76100
X163800Y-76800
X163800Y-77500
X163800Y-78200
X163800Y-78900
X163800Y-84400
X164000Y-118000
X164100Y-79500
X164100Y-82500
X164100Y-83100
X164100Y-83800
X164100Y-90100
X164200Y-80200
X164200Y-80900
X164200Y-90600
X164200Y-96100
X164200Y-113300
X164300Y-110200
X164400Y-81700
X164600Y-72100
X165000Y-93475
X165000Y-118000
X165075Y-96100
X165100Y-110200
X165100Y-113300
X165325Y-93800
X165400Y-72100
X165650Y-93450
X165650Y-95925
X165975Y-93800
X166000Y-110200
X166100Y-113300
X166100Y-118000
X166225Y-96075
X166300Y-93450
X166500Y-72100
X166900Y-81700
X166900Y-110200
X167000Y-96100
X167100Y-79800
X167100Y-80400
X167100Y-81100
X167100Y-82100
X167100Y-82800
X167100Y-83400
X167100Y-84200
X167100Y-89800
X167100Y-90400
X167100Y-90900
X167100Y-113300
X167400Y-118000
X167500Y-72100
X167500Y-79400
X167500Y-93300
X167600Y-84400
X167700Y-73400
X167700Y-73900
X167700Y-74500
X167700Y-75200
X167700Y-75900
X167700Y-76600
X167700Y-77400
X167700Y-78100
X167700Y-78800
X167700Y-89600
X167800Y-96100
X167800Y-110200
X168000Y-84900
X168000Y-85600
X168000Y-86300
X168000Y-87000
X168000Y-87600
X168000Y-88300
X168000Y-89000
X168000Y-113300
X168100Y-73500
X168100Y-74300
X168100Y-74800
X168100Y-75500
X168100Y-76200
X168100Y-77000
X168100Y-77800
X168100Y-78500
X168200Y-93200
X168400Y-72100
X168500Y-118000
X168600Y-96100
X168800Y-110200
X168900Y-93200
X168900Y-113300
X169300Y-72100
X169500Y-96100
X169600Y-93200
X169700Y-110200
X169800Y-113300
X169800Y-118000
X170300Y-96100
X170400Y-72100
X170400Y-93200
X170700Y-110200
X170900Y-113300
X171100Y-93200
X171100Y-96100
X171100Y-118000
X171300Y-72100
X171600Y-110200
X171800Y-93200
X171900Y-113300
X172000Y-96100
X172300Y-72100
X172300Y-73400
X172300Y-74300
X172300Y-75100
X172300Y-76100
X172300Y-76600
X172300Y-77300
X172300Y-78300
X172300Y-79000
X172300Y-118000
X172500Y-93200
X172500Y-110200
X172900Y-96100
X172900Y-113300
X173200Y-72100
X173200Y-93200
X173600Y-110200
X173600Y-118000
X173700Y-96100
X173800Y-113300
X173900Y-93200
X174100Y-72100
X174500Y-110200
X174600Y-93200
X174700Y-96100
X174700Y-113300
X174800Y-118000
X175000Y-72100
X175400Y-93200
X175500Y-110200
X175600Y-113300
X175700Y-96100
X175900Y-72100
X175900Y-118000
X176300Y-93200
X176300Y-110200
X176400Y-113300
X176600Y-96100
X176800Y-72100
X177000Y-93200
X177100Y-118000
X177200Y-110200
X177400Y-113300
X177500Y-96100
X177800Y-93300
X177900Y-72100
X178000Y-95900
X178100Y-110200
X178100Y-118000
X178400Y-113300
X178500Y-93100
X178600Y-96100
X178800Y-72100
X178900Y-110200
X179100Y-118000
X179200Y-93000
X179300Y-96100
X179400Y-113300
X179600Y-72100
X179600Y-88400
X179600Y-101000
X179800Y-110200
X179900Y-93000
X179900Y-96000
X180000Y-105700
X180200Y-113300
X180300Y-118000
X180400Y-72100
X180400Y-100600
X180500Y-88400
X180600Y-93000
X180600Y-105500
X180600Y-110100
X180700Y-96000
X181000Y-101100
X181000Y-109900
X181000Y-113800
X181200Y-72100
X181200Y-92800
X181300Y-96400
X181300Y-105500
X181300Y-118000
X181400Y-88000
X181500Y-109600
X181700Y-92400
X181800Y-110000
X181900Y-114000
X182000Y-72100
X182000Y-96500
X182000Y-105500
X182100Y-87900
X182100Y-92000
X182100Y-109600
X182200Y-101100
X182200Y-118000
X182300Y-114400
X182400Y-92400
X182400Y-96900
X182500Y-110000
X182600Y-87900
X182600Y-105500
X182700Y-96500
X182800Y-72100
X182800Y-109600
X182800Y-114000
X182900Y-92000
X183100Y-92400
X183100Y-96900
X183100Y-101100
X183200Y-110000
X183300Y-105500
X183300Y-114400
X183400Y-87900
X183400Y-96500
X183500Y-109600
X183600Y-92400
X183700Y-72100
X183700Y-114000
X183900Y-96900
X183900Y-110000
X184000Y-101100
X184000Y-105500
X184100Y-114400
X184200Y-92400
X184200Y-96500
X184200Y-109600
X184300Y-87900
X184500Y-72100
X184500Y-92000
X184500Y-114000
X184600Y-96900
X184600Y-105500
X184600Y-110000
X184900Y-92400
X184900Y-101100
X184900Y-109600
X184900Y-114400
X185000Y-96500
X185100Y-87900
X185200Y-105500
X185200Y-114000
X185300Y-110000
X185300Y-118000
X185400Y-72100
X185400Y-92100
X185400Y-96900
X185600Y-109600
X185600Y-114400
X185800Y-87900
X185800Y-96500
X185800Y-105500
X185900Y-101100
X186000Y-92400
X186000Y-110000
X186000Y-114000
X186300Y-72100
X186300Y-96900
X186300Y-109600
X186400Y-87900
X186400Y-114400
X186500Y-96500
X186600Y-105500
X186600Y-110000
X186700Y-92400
X186700Y-114000
X186900Y-109600
X187000Y-101100
X187100Y-87900
X187100Y-96900
X187200Y-72100
X187200Y-105500
X187200Y-114400
X187400Y-92400
X187400Y-96500
X187400Y-110000
X187400Y-113900
X187600Y-109500
X187900Y-87900
X187900Y-105700
X188000Y-96800
X188000Y-101100
X188000Y-114400
X188000Y-118000
X188100Y-72100
X188100Y-92300
X188100Y-113900
X188200Y-109500
X188200Y-110000
X188500Y-105600
X188900Y-72100
X188900Y-72800
X188900Y-73500
X188900Y-74200
X188900Y-75000
X188900Y-75800
X188900Y-76600
X188900Y-77400
X188900Y-78200
X188900Y-79200
X188900Y-79900
X188900Y-80900
X188900Y-81800
X188900Y-82700
X188900Y-83700
X188900Y-84800
X188900Y-85400
X188900Y-86300
X188900Y-87200
X188900Y-88300
X188900Y-89400
X188900Y-90300
X188900Y-91200
X188900Y-92100
X188900Y-93000
X188900Y-93700
X188900Y-94500
X188900Y-95300
X188900Y-96100
X188900Y-97000
X188900Y-98000
X188900Y-98900
X188900Y-99800
X188900Y-100700
X188900Y-101600
X188900Y-102500
X188900Y-103300
X188900Y-104200
X188900Y-105200
X188900Y-106100
X188900Y-106900
X188900Y-107900
X188900Y-108800
X188900Y-109800
X188900Y-110700
X188900Y-111700
X188900Y-112500
X188900Y-113400
X188900Y-114600
X188900Y-115600
X188900Y-116400
X188900Y-117200
X188900Y-118000
T2
X146000Y-78900
X146500Y-80200
X147200Y-79200
X148000Y-80200
X149600Y-80200
X150500Y-79500
X151500Y-80300
X151700Y-73100
X152100Y-74900
X152100Y-76900
X153100Y-74000
X153100Y-75600
X153100Y-78000
X154100Y-106400
X154300Y-99700
X154300Y-115900
X154700Y-89800
X155200Y-91700
X155200Y-108200
X155300Y-97600
X155600Y-114600
X157500Y-108600
X157900Y-91700
X157900Y-97600
X158000Y-114600
X159900Y-108700
X160600Y-91700
X160700Y-97600
X160800Y-114600
X161800Y-84200
X162000Y-86900
X162400Y-108600
X162900Y-80400
X162900Y-82200
X163400Y-97600
X163500Y-114600
X164150Y-92125
X164800Y-108600
X166200Y-97600
X166400Y-114600
X167100Y-108600
X167300Y-92175
X168500Y-80700
X168500Y-82400
X169000Y-97600
X169100Y-84200
X169300Y-91600
X169400Y-114600
X169600Y-108600
X169800Y-86400
X169800Y-88200
X171800Y-108600
X171900Y-91600
X171900Y-97600
X172200Y-114500
X174400Y-91600
X174400Y-108600
X174600Y-97600
X175300Y-114600
X176900Y-108500
X177300Y-91600
X177300Y-97600
X177800Y-114700
X178500Y-99500
X179000Y-90700
X179100Y-107200
X179500Y-116100
X179900Y-73800
X179900Y-75700
X179900Y-78300
X181300Y-74500
X181300Y-77200
X181600Y-73100
X182100Y-80900
X183300Y-79800
X184200Y-80900
X185600Y-79800
X186800Y-80900
X188000Y-79800
T3
X151520Y-89920
X151520Y-98680
X182080Y-90220
X182080Y-98980
X161220Y-78820
X169980Y-78820
X181980Y-107420
X181980Y-116180
X151420Y-107220
X151420Y-115980
T4
X184450Y-75010
X184450Y-77550
X149475Y-74810
X149475Y-77350
T0
M30
