%TF.GenerationSoftware,KiCad,Pcbnew,(2017-10-17 revision 537804b)-master*%
%TF.CreationDate,2018-09-04T11:21:01+02:00*%
%TF.ProjectId,rf_matching,72665F6D61746368696E672E6B696361,rev?*%
%TF.SameCoordinates,Original*%
%TF.FileFunction,Copper,L2,Bot,Signal*%
%TF.FilePolarity,Positive*%
%FSLAX46Y46*%
G04 Gerber Fmt 4.6, Leading zero omitted, Abs format (unit mm)*
G04 Created by KiCad (PCBNEW (2017-10-17 revision 537804b)-master) date Tuesday, 04 September 2018 'AMt' 11:21:01*
%MOMM*%
%LPD*%
G01*
G04 APERTURE LIST*
%TA.AperFunction,ComponentPad*%
%ADD10R,2.600000X2.000000*%
%TD*%
%TA.AperFunction,ComponentPad*%
%ADD11O,2.600000X2.000000*%
%TD*%
%TA.AperFunction,SMDPad,CuDef*%
%ADD12C,0.500000*%
%TD*%
%TA.AperFunction,Conductor*%
%ADD13C,0.100000*%
%TD*%
%TA.AperFunction,SMDPad,CuDef*%
%ADD14R,5.080000X2.420000*%
%TD*%
%TA.AperFunction,ViaPad*%
%ADD15C,0.970000*%
%TD*%
%TA.AperFunction,Conductor*%
%ADD16R,0.890000X0.460000*%
%TD*%
%TA.AperFunction,SMDPad,CuDef*%
%ADD17R,2.420000X5.080000*%
%TD*%
%TA.AperFunction,Conductor*%
%ADD18R,0.460000X0.890000*%
%TD*%
%TA.AperFunction,ViaPad*%
%ADD19C,0.400000*%
%TD*%
%TA.AperFunction,ViaPad*%
%ADD20C,0.800000*%
%TD*%
%TA.AperFunction,Conductor*%
%ADD21C,0.250000*%
%TD*%
%TA.AperFunction,Conductor*%
%ADD22C,0.254000*%
%TD*%
G04 APERTURE END LIST*
D10*
%TO.P,J3,1*%
%TO.N,Net-(J3-Pad1)*%
X184450000Y-77550000D03*
D11*
%TO.P,J3,2*%
%TO.N,GND*%
X184450000Y-75010000D03*
%TD*%
%TO.P,J5,2*%
%TO.N,GND*%
X149475000Y-74810000D03*
D10*
%TO.P,J5,1*%
%TO.N,Net-(J5-Pad1)*%
X149475000Y-77350000D03*
%TD*%
D12*
%TO.P,R1,2*%
%TO.N,Net-(J5-Pad1)*%
X159867909Y-87300467D03*
D13*
%TD*%
%TO.N,Net-(J5-Pad1)*%
%TO.C,R1*%
G36*
X160373326Y-87202724D02*
X159683886Y-87781233D01*
X159362492Y-87398210D01*
X160051932Y-86819701D01*
X160373326Y-87202724D01*
X160373326Y-87202724D01*
G37*
D12*
%TO.P,R1,1*%
%TO.N,Net-(R1-Pad1)*%
X160832091Y-88449533D03*
D13*
%TD*%
%TO.N,Net-(R1-Pad1)*%
%TO.C,R1*%
G36*
X161337508Y-88351790D02*
X160648068Y-88930299D01*
X160326674Y-88547276D01*
X161016114Y-87968767D01*
X161337508Y-88351790D01*
X161337508Y-88351790D01*
G37*
D12*
%TO.P,R2,1*%
%TO.N,Net-(J3-Pad1)*%
X172549533Y-87267909D03*
D13*
%TD*%
%TO.N,Net-(J3-Pad1)*%
%TO.C,R2*%
G36*
X172451790Y-86762492D02*
X173030299Y-87451932D01*
X172647276Y-87773326D01*
X172068767Y-87083886D01*
X172451790Y-86762492D01*
X172451790Y-86762492D01*
G37*
D12*
%TO.P,R2,2*%
%TO.N,Net-(R2-Pad2)*%
X171400467Y-88232091D03*
D13*
%TD*%
%TO.N,Net-(R2-Pad2)*%
%TO.C,R2*%
G36*
X171302724Y-87726674D02*
X171881233Y-88416114D01*
X171498210Y-88737508D01*
X170919701Y-88048068D01*
X171302724Y-87726674D01*
X171302724Y-87726674D01*
G37*
D14*
%TO.P,J1,2*%
%TO.N,GND*%
X148080000Y-89920000D03*
X148080000Y-98680000D03*
D15*
%TD*%
%TO.N,GND*%
%TO.C,J1*%
X151520000Y-89920000D03*
%TO.N,GND*%
%TO.C,J1*%
X151520000Y-98680000D03*
D16*
X151070000Y-89920000D03*
X151070000Y-98680000D03*
%TD*%
%TO.N,GND*%
%TO.C,J2*%
X182530000Y-90220000D03*
X182530000Y-98980000D03*
D15*
X182080000Y-90220000D03*
X182080000Y-98980000D03*
D14*
%TD*%
%TO.P,J2,2*%
%TO.N,GND*%
X185520000Y-90220000D03*
%TO.P,J2,2*%
%TO.N,GND*%
X185520000Y-98980000D03*
%TD*%
D17*
%TO.P,J4,2*%
%TO.N,GND*%
X169980000Y-75380000D03*
X161220000Y-75380000D03*
D15*
%TD*%
%TO.N,GND*%
%TO.C,J4*%
X169980000Y-78820000D03*
%TO.N,GND*%
%TO.C,J4*%
X161220000Y-78820000D03*
D18*
X169980000Y-78370000D03*
X161220000Y-78370000D03*
%TD*%
D14*
%TO.P,J6,2*%
%TO.N,GND*%
X185420000Y-116180000D03*
X185420000Y-107420000D03*
D15*
%TD*%
%TO.N,GND*%
%TO.C,J6*%
X181980000Y-116180000D03*
%TO.N,GND*%
%TO.C,J6*%
X181980000Y-107420000D03*
D16*
X182430000Y-116180000D03*
X182430000Y-107420000D03*
%TD*%
%TO.N,GND*%
%TO.C,J7*%
X150970000Y-115980000D03*
X150970000Y-107220000D03*
D15*
X151420000Y-115980000D03*
X151420000Y-107220000D03*
D14*
%TD*%
%TO.P,J7,2*%
%TO.N,GND*%
X147980000Y-115980000D03*
%TO.P,J7,2*%
%TO.N,GND*%
X147980000Y-107220000D03*
%TD*%
D19*
%TO.N,GND*%
X185300000Y-118000000D03*
X182200000Y-118000000D03*
X181300000Y-118000000D03*
X149900000Y-91900000D03*
X149200000Y-91900000D03*
X148500000Y-91900000D03*
D20*
X169800000Y-88200000D03*
X169800000Y-86400000D03*
X169100000Y-84200000D03*
X168500000Y-82400000D03*
X168500000Y-80700000D03*
X162900000Y-80400000D03*
X162900000Y-82200000D03*
X161800000Y-84200000D03*
X162000000Y-86900000D03*
X179500000Y-116100000D03*
X177800000Y-114700000D03*
X175300000Y-114600000D03*
X172200000Y-114500000D03*
X169400000Y-114600000D03*
X166400000Y-114600000D03*
X163500000Y-114600000D03*
X160800000Y-114600000D03*
X158000000Y-114600000D03*
X155600000Y-114600000D03*
X154300000Y-115900000D03*
X179100000Y-107200000D03*
X176900000Y-108500000D03*
X174400000Y-108600000D03*
X171800000Y-108600000D03*
X169600000Y-108600000D03*
X167100000Y-108600000D03*
X164800000Y-108600000D03*
X162400000Y-108600000D03*
X159900000Y-108700000D03*
X157500000Y-108600000D03*
X155200000Y-108200000D03*
X154100000Y-106400000D03*
X178500000Y-99500000D03*
X154300000Y-99700000D03*
X154700000Y-89800000D03*
X179000000Y-90700000D03*
X177300000Y-91600000D03*
X174400000Y-91600000D03*
X171900000Y-91600000D03*
X169300000Y-91600000D03*
X160600000Y-91700000D03*
X157900000Y-91700000D03*
X155200000Y-91700000D03*
X177300000Y-97600000D03*
X174600000Y-97600000D03*
X171900000Y-97600000D03*
X169000000Y-97600000D03*
X166200000Y-97600000D03*
X163400000Y-97600000D03*
X160700000Y-97600000D03*
X157900000Y-97600000D03*
X155300000Y-97600000D03*
X151700000Y-73100000D03*
X146000000Y-78900000D03*
X150500000Y-79500000D03*
X147200000Y-79200000D03*
X152100000Y-76900000D03*
X152100000Y-74900000D03*
X146500000Y-80200000D03*
X181600000Y-73100000D03*
X188000000Y-79800000D03*
X185600000Y-79800000D03*
X183300000Y-79800000D03*
X181300000Y-77200000D03*
X181300000Y-74500000D03*
X186800000Y-80900000D03*
X184200000Y-80900000D03*
X182100000Y-80900000D03*
X179900000Y-78300000D03*
X179900000Y-75700000D03*
X179900000Y-73800000D03*
X153100000Y-74000000D03*
X153100000Y-75600000D03*
X153100000Y-78000000D03*
X151500000Y-80300000D03*
X149600000Y-80200000D03*
X148000000Y-80200000D03*
D19*
X180000000Y-105700000D03*
X180600000Y-105500000D03*
X181300000Y-105500000D03*
X182000000Y-105500000D03*
X182600000Y-105500000D03*
X183300000Y-105500000D03*
X184000000Y-105500000D03*
X184600000Y-105500000D03*
X185200000Y-105500000D03*
X185800000Y-105500000D03*
X186600000Y-105500000D03*
X187200000Y-105500000D03*
X187900000Y-105700000D03*
X188500000Y-105600000D03*
X188200000Y-110000000D03*
X187400000Y-110000000D03*
X186600000Y-110000000D03*
X186000000Y-110000000D03*
X185300000Y-110000000D03*
X184600000Y-110000000D03*
X183900000Y-110000000D03*
X183200000Y-110000000D03*
X182500000Y-110000000D03*
X181800000Y-110000000D03*
X188000000Y-114400000D03*
X188100000Y-113900000D03*
X187400000Y-113900000D03*
X187200000Y-114400000D03*
X188200000Y-109500000D03*
X187600000Y-109500000D03*
X186900000Y-109600000D03*
X186300000Y-109600000D03*
X185600000Y-109600000D03*
X184900000Y-109600000D03*
X184200000Y-109600000D03*
X183500000Y-109600000D03*
X182800000Y-109600000D03*
X182100000Y-109600000D03*
X181500000Y-109600000D03*
X186400000Y-114400000D03*
X185600000Y-114400000D03*
X184900000Y-114400000D03*
X184100000Y-114400000D03*
X183300000Y-114400000D03*
X182300000Y-114400000D03*
X186700000Y-114000000D03*
X186000000Y-114000000D03*
X185200000Y-114000000D03*
X184500000Y-114000000D03*
X183700000Y-114000000D03*
X182800000Y-114000000D03*
X181900000Y-114000000D03*
X181000000Y-113800000D03*
X180200000Y-113300000D03*
X179400000Y-113300000D03*
X178400000Y-113300000D03*
X177400000Y-113300000D03*
X176400000Y-113300000D03*
X175600000Y-113300000D03*
X174700000Y-113300000D03*
X173800000Y-113300000D03*
X172900000Y-113300000D03*
X171900000Y-113300000D03*
X170900000Y-113300000D03*
X169800000Y-113300000D03*
X168900000Y-113300000D03*
X168000000Y-113300000D03*
X167100000Y-113300000D03*
X166100000Y-113300000D03*
X165100000Y-113300000D03*
X164200000Y-113300000D03*
X163400000Y-113300000D03*
X162500000Y-113300000D03*
X161700000Y-113300000D03*
X161000000Y-113300000D03*
X160200000Y-113300000D03*
X159400000Y-113300000D03*
X158400000Y-113300000D03*
X157500000Y-113300000D03*
X156800000Y-113300000D03*
X156100000Y-113300000D03*
X155200000Y-113300000D03*
X154400000Y-113300000D03*
X153700000Y-113300000D03*
X153000000Y-113300000D03*
X152400000Y-113300000D03*
X180600000Y-110100000D03*
X181000000Y-109900000D03*
X179800000Y-110200000D03*
X178900000Y-110200000D03*
X178100000Y-110200000D03*
X177200000Y-110200000D03*
X176300000Y-110200000D03*
X175500000Y-110200000D03*
X174500000Y-110200000D03*
X173600000Y-110200000D03*
X172500000Y-110200000D03*
X171600000Y-110200000D03*
X170700000Y-110200000D03*
X169700000Y-110200000D03*
X168800000Y-110200000D03*
X167800000Y-110200000D03*
X166900000Y-110200000D03*
X166000000Y-110200000D03*
X165100000Y-110200000D03*
X164300000Y-110200000D03*
X163300000Y-110200000D03*
X162400000Y-110200000D03*
X161500000Y-110200000D03*
X160700000Y-110200000D03*
X159900000Y-110200000D03*
X159100000Y-110200000D03*
X158100000Y-110200000D03*
X157100000Y-110200000D03*
X156000000Y-110200000D03*
X155100000Y-110200000D03*
X154200000Y-110200000D03*
X153500000Y-110200000D03*
X152800000Y-110200000D03*
X152100000Y-110100000D03*
X182900000Y-92000000D03*
X184500000Y-92000000D03*
X187100000Y-96900000D03*
X186300000Y-96900000D03*
X185400000Y-96900000D03*
X184600000Y-96900000D03*
X183900000Y-96900000D03*
X183100000Y-96900000D03*
X182400000Y-96900000D03*
X185400000Y-92100000D03*
X182100000Y-92000000D03*
X179600000Y-101000000D03*
X180400000Y-100600000D03*
X181000000Y-101100000D03*
X182200000Y-101100000D03*
X183100000Y-101100000D03*
X184000000Y-101100000D03*
X184900000Y-101100000D03*
X185900000Y-101100000D03*
X187000000Y-101100000D03*
X188000000Y-101100000D03*
X179600000Y-88400000D03*
X180500000Y-88400000D03*
X181400000Y-88000000D03*
X182100000Y-87900000D03*
X182600000Y-87900000D03*
X183400000Y-87900000D03*
X184300000Y-87900000D03*
X185100000Y-87900000D03*
X185800000Y-87900000D03*
X186400000Y-87900000D03*
X188000000Y-96800000D03*
X188100000Y-92300000D03*
X187900000Y-87900000D03*
X187100000Y-87900000D03*
X152500000Y-87300000D03*
X151700000Y-87300000D03*
X150800000Y-87300000D03*
X150100000Y-87300000D03*
X149200000Y-87300000D03*
X148500000Y-87300000D03*
X147700000Y-87300000D03*
X146800000Y-87300000D03*
X145400000Y-87300000D03*
X146000000Y-87300000D03*
X152600000Y-87800000D03*
X152000000Y-87800000D03*
X151200000Y-87800000D03*
X150400000Y-87800000D03*
X149600000Y-87800000D03*
X148800000Y-87800000D03*
X147900000Y-87800000D03*
X147200000Y-87800000D03*
X146400000Y-87900000D03*
X145600000Y-87900000D03*
X152000000Y-91700000D03*
X151400000Y-91900000D03*
X150700000Y-91900000D03*
X147800000Y-91900000D03*
X147100000Y-91900000D03*
X146100000Y-91900000D03*
X145500000Y-91900000D03*
X145600000Y-92400000D03*
X152300000Y-101300000D03*
X151500000Y-101300000D03*
X150700000Y-101300000D03*
X149900000Y-101300000D03*
X149000000Y-101300000D03*
X148200000Y-101300000D03*
X147500000Y-101300000D03*
X146700000Y-101300000D03*
X145900000Y-101400000D03*
X151800000Y-100700000D03*
X151100000Y-100700000D03*
X150300000Y-100700000D03*
X149400000Y-100700000D03*
X148600000Y-100700000D03*
X147900000Y-100700000D03*
X147100000Y-100700000D03*
X146300000Y-100700000D03*
X145600000Y-100700000D03*
X145500000Y-96800000D03*
X145900000Y-96300000D03*
X146100000Y-96800000D03*
X151800000Y-96800000D03*
X150800000Y-96800000D03*
X150100000Y-96800000D03*
X149300000Y-96800000D03*
X148600000Y-96800000D03*
X147900000Y-96800000D03*
X147100000Y-96800000D03*
X151600000Y-114100000D03*
X150800000Y-114100000D03*
X150100000Y-114100000D03*
X149400000Y-114100000D03*
X148800000Y-114100000D03*
X148000000Y-114100000D03*
X147300000Y-114100000D03*
X146600000Y-114100000D03*
X145800000Y-114200000D03*
X151800000Y-113600000D03*
X151200000Y-113600000D03*
X150400000Y-113600000D03*
X149800000Y-113600000D03*
X149200000Y-113600000D03*
X148300000Y-113600000D03*
X147700000Y-113600000D03*
X146900000Y-113600000D03*
X146200000Y-113600000D03*
X151200000Y-109800000D03*
X150500000Y-109800000D03*
X149400000Y-109800000D03*
X147800000Y-109800000D03*
X148600000Y-109800000D03*
X147100000Y-109800000D03*
X146400000Y-109800000D03*
X145700000Y-109900000D03*
X145500000Y-113600000D03*
X152000000Y-109400000D03*
X151500000Y-109400000D03*
X150800000Y-109400000D03*
X150200000Y-109400000D03*
X149600000Y-109400000D03*
X148900000Y-109400000D03*
X148100000Y-109400000D03*
X147400000Y-109400000D03*
X146700000Y-109400000D03*
X146100000Y-109400000D03*
X145500000Y-109400000D03*
X145200000Y-105200000D03*
X151800000Y-105200000D03*
X151200000Y-105200000D03*
X150700000Y-105200000D03*
X150000000Y-105200000D03*
X149300000Y-105200000D03*
X148600000Y-105200000D03*
X147900000Y-105200000D03*
X147200000Y-105200000D03*
X146500000Y-105200000D03*
X145900000Y-105200000D03*
X168100000Y-73500000D03*
X168100000Y-74300000D03*
X168100000Y-74800000D03*
X168100000Y-75500000D03*
X168100000Y-76200000D03*
X168100000Y-77000000D03*
X168100000Y-77800000D03*
X168100000Y-78500000D03*
X163300000Y-72800000D03*
X163300000Y-73500000D03*
X163300000Y-74400000D03*
X163300000Y-75100000D03*
X163300000Y-75800000D03*
X163300000Y-76400000D03*
X163300000Y-77100000D03*
X163300000Y-77800000D03*
X163300000Y-78500000D03*
X172300000Y-73400000D03*
X172300000Y-74300000D03*
X172300000Y-75100000D03*
X172300000Y-76100000D03*
X172300000Y-76600000D03*
X172300000Y-77300000D03*
X172300000Y-78300000D03*
X172300000Y-79000000D03*
X159100000Y-72900000D03*
X159100000Y-73500000D03*
X159100000Y-74400000D03*
X159100000Y-75100000D03*
X159100000Y-75800000D03*
X159100000Y-76300000D03*
X159100000Y-76900000D03*
X159100000Y-77600000D03*
X159100000Y-78200000D03*
X159100000Y-79000000D03*
X145700000Y-72100000D03*
X146500000Y-72100000D03*
X147300000Y-72100000D03*
X148400000Y-72100000D03*
X149400000Y-72100000D03*
X150200000Y-72100000D03*
X150900000Y-72100000D03*
X152000000Y-72100000D03*
X153100000Y-72100000D03*
X154300000Y-72100000D03*
X155300000Y-72100000D03*
X156300000Y-72100000D03*
X157200000Y-72100000D03*
X158300000Y-72100000D03*
X159200000Y-72100000D03*
X160100000Y-72100000D03*
X161000000Y-72100000D03*
X161900000Y-72100000D03*
X162800000Y-72100000D03*
X163700000Y-72100000D03*
X164600000Y-72100000D03*
X165400000Y-72100000D03*
X166500000Y-72100000D03*
X167500000Y-72100000D03*
X168400000Y-72100000D03*
X169300000Y-72100000D03*
X170400000Y-72100000D03*
X171300000Y-72100000D03*
X172300000Y-72100000D03*
X173200000Y-72100000D03*
X174100000Y-72100000D03*
X175000000Y-72100000D03*
X175900000Y-72100000D03*
X176800000Y-72100000D03*
X177900000Y-72100000D03*
X178800000Y-72100000D03*
X179600000Y-72100000D03*
X180400000Y-72100000D03*
X181200000Y-72100000D03*
X182000000Y-72100000D03*
X182800000Y-72100000D03*
X183700000Y-72100000D03*
X184500000Y-72100000D03*
X185400000Y-72100000D03*
X186300000Y-72100000D03*
X187200000Y-72100000D03*
X188100000Y-72100000D03*
X188900000Y-72100000D03*
X188900000Y-72800000D03*
X188900000Y-73500000D03*
X188900000Y-74200000D03*
X188900000Y-75000000D03*
X188900000Y-75800000D03*
X188900000Y-76600000D03*
X188900000Y-77400000D03*
X188900000Y-78200000D03*
X188900000Y-79200000D03*
X188900000Y-79900000D03*
X188900000Y-80900000D03*
X188900000Y-81800000D03*
X188900000Y-82700000D03*
X188900000Y-83700000D03*
X188900000Y-84800000D03*
X188900000Y-85400000D03*
X188900000Y-86300000D03*
X188900000Y-87200000D03*
X188900000Y-88300000D03*
X188900000Y-89400000D03*
X188900000Y-90300000D03*
X188900000Y-91200000D03*
X188900000Y-92100000D03*
X188900000Y-93000000D03*
X188900000Y-93700000D03*
X188900000Y-94500000D03*
X188900000Y-95300000D03*
X188900000Y-96100000D03*
X188900000Y-97000000D03*
X188900000Y-98000000D03*
X188900000Y-98900000D03*
X188900000Y-99800000D03*
X188900000Y-100700000D03*
X188900000Y-101600000D03*
X188900000Y-102500000D03*
X188900000Y-103300000D03*
X188900000Y-104200000D03*
X188900000Y-105200000D03*
X188900000Y-106100000D03*
X188900000Y-106900000D03*
X188900000Y-107900000D03*
X188900000Y-108800000D03*
X188900000Y-109800000D03*
X188900000Y-110700000D03*
X188900000Y-111700000D03*
X188900000Y-112500000D03*
X188900000Y-113400000D03*
X188900000Y-114600000D03*
X188900000Y-115600000D03*
X188900000Y-116400000D03*
X188900000Y-117200000D03*
X188900000Y-118000000D03*
X188000000Y-118000000D03*
X180300000Y-118000000D03*
X179100000Y-118000000D03*
X178100000Y-118000000D03*
X177100000Y-118000000D03*
X175900000Y-118000000D03*
X174800000Y-118000000D03*
X173600000Y-118000000D03*
X172300000Y-118000000D03*
X171100000Y-118000000D03*
X169800000Y-118000000D03*
X168500000Y-118000000D03*
X167400000Y-118000000D03*
X166100000Y-118000000D03*
X165000000Y-118000000D03*
X164000000Y-118000000D03*
X162800000Y-118000000D03*
X161700000Y-118000000D03*
X160700000Y-118000000D03*
X159500000Y-118000000D03*
X158400000Y-118000000D03*
X157300000Y-118000000D03*
X156100000Y-118000000D03*
X155100000Y-118000000D03*
X154200000Y-118000000D03*
X153200000Y-118000000D03*
X152200000Y-118000000D03*
X151400000Y-118000000D03*
X150300000Y-118000000D03*
X149400000Y-118000000D03*
X148200000Y-118000000D03*
X147200000Y-118000000D03*
X146100000Y-118000000D03*
X145100000Y-117600000D03*
X144900000Y-116600000D03*
X144900000Y-115700000D03*
X144900000Y-114600000D03*
X144900000Y-113600000D03*
X144900000Y-112700000D03*
X144900000Y-111800000D03*
X144900000Y-110900000D03*
X144900000Y-109900000D03*
X144900000Y-108800000D03*
X144900000Y-107700000D03*
X144900000Y-106700000D03*
X144900000Y-105800000D03*
X144900000Y-104800000D03*
X144900000Y-103800000D03*
X144900000Y-102800000D03*
X144900000Y-101900000D03*
X144900000Y-100900000D03*
X144900000Y-100000000D03*
X144900000Y-99100000D03*
X144900000Y-98200000D03*
X144900000Y-97200000D03*
X144900000Y-96400000D03*
X144900000Y-95400000D03*
X144900000Y-94400000D03*
X144900000Y-93500000D03*
X144900000Y-92500000D03*
X144900000Y-91600000D03*
X144900000Y-90700000D03*
X144900000Y-89800000D03*
X144900000Y-89000000D03*
X144900000Y-87900000D03*
X144900000Y-86900000D03*
X144900000Y-85900000D03*
X144900000Y-84900000D03*
X144900000Y-83900000D03*
X144900000Y-83000000D03*
X144900000Y-82100000D03*
X144900000Y-81200000D03*
X144900000Y-80200000D03*
X144900000Y-79200000D03*
X144900000Y-78400000D03*
X144900000Y-77300000D03*
X144900000Y-76300000D03*
X144900000Y-75200000D03*
X144900000Y-74200000D03*
X144900000Y-73200000D03*
X144900000Y-72300000D03*
X167700000Y-73400000D03*
X167700000Y-73900000D03*
X167700000Y-74500000D03*
X167700000Y-75200000D03*
X167700000Y-75900000D03*
X167700000Y-76600000D03*
X167700000Y-77400000D03*
X167700000Y-78100000D03*
X167700000Y-78800000D03*
X167500000Y-79400000D03*
X167100000Y-79800000D03*
X167100000Y-80400000D03*
X167100000Y-81100000D03*
X166900000Y-81700000D03*
X167100000Y-82100000D03*
X167100000Y-82800000D03*
X167100000Y-83400000D03*
X167100000Y-84200000D03*
X167600000Y-84400000D03*
X168000000Y-84900000D03*
X168000000Y-85600000D03*
X168000000Y-86300000D03*
X168000000Y-87000000D03*
X168000000Y-87600000D03*
X168000000Y-88300000D03*
X168000000Y-89000000D03*
X167700000Y-89600000D03*
X167100000Y-89800000D03*
X167100000Y-90400000D03*
X167100000Y-90900000D03*
X164200000Y-90600000D03*
X164100000Y-90100000D03*
X163500000Y-89700000D03*
X163300000Y-89000000D03*
X163300000Y-88300000D03*
X163300000Y-87700000D03*
X163200000Y-87000000D03*
X163300000Y-86200000D03*
X163300000Y-85500000D03*
X163300000Y-84800000D03*
X163800000Y-84400000D03*
X164100000Y-83800000D03*
X164100000Y-83100000D03*
X164100000Y-82500000D03*
X164400000Y-81700000D03*
X164200000Y-80900000D03*
X164200000Y-80200000D03*
X164100000Y-79500000D03*
X163800000Y-78900000D03*
X163800000Y-78200000D03*
X163800000Y-77500000D03*
X163800000Y-76800000D03*
X163800000Y-76100000D03*
X163800000Y-75400000D03*
X163800000Y-74700000D03*
X163800000Y-74100000D03*
X163800000Y-73600000D03*
X187400000Y-92400000D03*
X186700000Y-92400000D03*
X186000000Y-92400000D03*
X184900000Y-92400000D03*
X184200000Y-92400000D03*
X183600000Y-92400000D03*
X183100000Y-92400000D03*
X182400000Y-92400000D03*
X181700000Y-92400000D03*
X181200000Y-92800000D03*
X180600000Y-93000000D03*
X179900000Y-93000000D03*
X179200000Y-93000000D03*
X178500000Y-93100000D03*
X177800000Y-93300000D03*
X177000000Y-93200000D03*
X176300000Y-93200000D03*
X175400000Y-93200000D03*
X174600000Y-93200000D03*
X173900000Y-93200000D03*
X173200000Y-93200000D03*
X172500000Y-93200000D03*
X171800000Y-93200000D03*
X171100000Y-93200000D03*
X170400000Y-93200000D03*
X169600000Y-93200000D03*
X168900000Y-93200000D03*
X168200000Y-93200000D03*
X167500000Y-93300000D03*
X163700000Y-93200000D03*
X163000000Y-93200000D03*
X162200000Y-93200000D03*
X161500000Y-93200000D03*
X160800000Y-93200000D03*
X160100000Y-93200000D03*
X159400000Y-93200000D03*
X158600000Y-93200000D03*
X157900000Y-93200000D03*
X157100000Y-93200000D03*
X156500000Y-93200000D03*
X156000000Y-93200000D03*
X155400000Y-93400000D03*
X154900000Y-93200000D03*
X154200000Y-93200000D03*
X153500000Y-93200000D03*
X152800000Y-93200000D03*
X152300000Y-92800000D03*
X151700000Y-92400000D03*
X151000000Y-92400000D03*
X150300000Y-92400000D03*
X149500000Y-92400000D03*
X148800000Y-92400000D03*
X148100000Y-92400000D03*
X147400000Y-92400000D03*
X146700000Y-92400000D03*
X187400000Y-96500000D03*
X186500000Y-96500000D03*
X185800000Y-96500000D03*
X185000000Y-96500000D03*
X184200000Y-96500000D03*
X183400000Y-96500000D03*
X182700000Y-96500000D03*
X182000000Y-96500000D03*
X181300000Y-96400000D03*
X180700000Y-96000000D03*
X179900000Y-96000000D03*
X179300000Y-96100000D03*
X178600000Y-96100000D03*
X178000000Y-95900000D03*
X177500000Y-96100000D03*
X176600000Y-96100000D03*
X175700000Y-96100000D03*
X174700000Y-96100000D03*
X173700000Y-96100000D03*
X172900000Y-96100000D03*
X172000000Y-96100000D03*
X171100000Y-96100000D03*
X170300000Y-96100000D03*
X169500000Y-96100000D03*
X168600000Y-96100000D03*
X167800000Y-96100000D03*
X167000000Y-96100000D03*
X146700000Y-96300000D03*
X147500000Y-96300000D03*
X148200000Y-96300000D03*
X148900000Y-96300000D03*
X149700000Y-96300000D03*
X150500000Y-96300000D03*
X151300000Y-96300000D03*
X152100000Y-96200000D03*
X152800000Y-96100000D03*
X153600000Y-96100000D03*
X154400000Y-96100000D03*
X155100000Y-96000000D03*
X155700000Y-96000000D03*
X156500000Y-96100000D03*
X157400000Y-96100000D03*
X158300000Y-96100000D03*
X159200000Y-96100000D03*
X160100000Y-96100000D03*
X161000000Y-96100000D03*
X161800000Y-96100000D03*
X162600000Y-96100000D03*
X163400000Y-96100000D03*
X164200000Y-96100000D03*
X165325000Y-93800000D03*
X165975000Y-93800000D03*
X166300000Y-93450000D03*
X165000000Y-93475000D03*
X165650000Y-95925000D03*
X166225000Y-96075000D03*
X165075000Y-96100000D03*
X165650000Y-93450000D03*
D20*
%TO.N,Net-(R1-Pad1)*%
X164150000Y-92125000D03*
%TO.N,Net-(R2-Pad2)*%
X167300000Y-92175000D03*
%TD*%
D21*
%TO.N,Net-(J3-Pad1)*%
X172549533Y-87267909D02*
X182267442Y-77550000D01*
X182267442Y-77550000D02*
X184450000Y-77550000D01*
X184450000Y-77550000D02*
X184150000Y-77550000D01*
%TO.N,Net-(J5-Pad1)*%
X149475000Y-77350000D02*
X149917442Y-77350000D01*
X149917442Y-77350000D02*
X159619747Y-87052305D01*
X159619747Y-87052305D02*
X159867909Y-87300467D01*
%TO.N,Net-(R1-Pad1)*%
X160832091Y-88449533D02*
X164150000Y-91767442D01*
X164150000Y-91767442D02*
X164150000Y-92125000D01*
%TO.N,Net-(R2-Pad2)*%
X167300000Y-92175000D02*
X171242909Y-88232091D01*
X171242909Y-88232091D02*
X171400467Y-88232091D01*
%TD*%
D22*
%TO.N,GND*%
G36*
X188940000Y-118065000D02*
X144710000Y-118065000D01*
X144710000Y-116265750D01*
X144805000Y-116265750D01*
X144805000Y-117316310D01*
X144901673Y-117549699D01*
X145080302Y-117728327D01*
X145313691Y-117825000D01*
X147694250Y-117825000D01*
X147853000Y-117666250D01*
X147853000Y-116107000D01*
X144963750Y-116107000D01*
X144805000Y-116265750D01*
X144710000Y-116265750D01*
X144710000Y-114643690D01*
X144805000Y-114643690D01*
X144805000Y-115694250D01*
X144963750Y-115853000D01*
X147853000Y-115853000D01*
X147853000Y-114293750D01*
X148107000Y-114293750D01*
X148107000Y-115853000D01*
X148127000Y-115853000D01*
X148127000Y-116107000D01*
X148107000Y-116107000D01*
X148107000Y-117666250D01*
X148265750Y-117825000D01*
X150646309Y-117825000D01*
X150879698Y-117728327D01*
X151058327Y-117549699D01*
X151155000Y-117316310D01*
X151155000Y-117072129D01*
X151278564Y-117113149D01*
X151722968Y-117081018D01*
X151984308Y-116972768D01*
X152019595Y-116759200D01*
X151891710Y-116631315D01*
X151953327Y-116569699D01*
X152022443Y-116402838D01*
X152199200Y-116579595D01*
X152412768Y-116544308D01*
X152553149Y-116121436D01*
X152547158Y-116038564D01*
X180846851Y-116038564D01*
X180878982Y-116482968D01*
X180987232Y-116744308D01*
X181200800Y-116779595D01*
X181377557Y-116602838D01*
X181446673Y-116769699D01*
X181508290Y-116831315D01*
X181380405Y-116959200D01*
X181415692Y-117172768D01*
X181838564Y-117313149D01*
X182245000Y-117283763D01*
X182245000Y-117516310D01*
X182341673Y-117749699D01*
X182520302Y-117928327D01*
X182753691Y-118025000D01*
X185134250Y-118025000D01*
X185293000Y-117866250D01*
X185293000Y-116307000D01*
X185547000Y-116307000D01*
X185547000Y-117866250D01*
X185705750Y-118025000D01*
X188086309Y-118025000D01*
X188319698Y-117928327D01*
X188498327Y-117749699D01*
X188595000Y-117516310D01*
X188595000Y-116465750D01*
X188436250Y-116307000D01*
X185547000Y-116307000D01*
X185293000Y-116307000D01*
X185273000Y-116307000D01*
X185273000Y-116053000D01*
X185293000Y-116053000D01*
X185293000Y-114493750D01*
X185547000Y-114493750D01*
X185547000Y-116053000D01*
X188436250Y-116053000D01*
X188595000Y-115894250D01*
X188595000Y-114843690D01*
X188498327Y-114610301D01*
X188319698Y-114431673D01*
X188086309Y-114335000D01*
X185705750Y-114335000D01*
X185547000Y-114493750D01*
X185293000Y-114493750D01*
X185134250Y-114335000D01*
X182753691Y-114335000D01*
X182520302Y-114431673D01*
X182341673Y-114610301D01*
X182245000Y-114843690D01*
X182245000Y-115087871D01*
X182121436Y-115046851D01*
X181677032Y-115078982D01*
X181415692Y-115187232D01*
X181380405Y-115400800D01*
X181508290Y-115528685D01*
X181446673Y-115590301D01*
X181377557Y-115757162D01*
X181200800Y-115580405D01*
X180987232Y-115615692D01*
X180846851Y-116038564D01*
X152547158Y-116038564D01*
X152521018Y-115677032D01*
X152412768Y-115415692D01*
X152199200Y-115380405D01*
X152022443Y-115557162D01*
X151953327Y-115390301D01*
X151891710Y-115328685D01*
X152019595Y-115200800D01*
X151984308Y-114987232D01*
X151561436Y-114846851D01*
X151155000Y-114876237D01*
X151155000Y-114643690D01*
X151058327Y-114410301D01*
X150879698Y-114231673D01*
X150646309Y-114135000D01*
X148265750Y-114135000D01*
X148107000Y-114293750D01*
X147853000Y-114293750D01*
X147694250Y-114135000D01*
X145313691Y-114135000D01*
X145080302Y-114231673D01*
X144901673Y-114410301D01*
X144805000Y-114643690D01*
X144710000Y-114643690D01*
X144710000Y-107505750D01*
X144805000Y-107505750D01*
X144805000Y-108556310D01*
X144901673Y-108789699D01*
X145080302Y-108968327D01*
X145313691Y-109065000D01*
X147694250Y-109065000D01*
X147853000Y-108906250D01*
X147853000Y-107347000D01*
X144963750Y-107347000D01*
X144805000Y-107505750D01*
X144710000Y-107505750D01*
X144710000Y-105883690D01*
X144805000Y-105883690D01*
X144805000Y-106934250D01*
X144963750Y-107093000D01*
X147853000Y-107093000D01*
X147853000Y-105533750D01*
X148107000Y-105533750D01*
X148107000Y-107093000D01*
X148127000Y-107093000D01*
X148127000Y-107347000D01*
X148107000Y-107347000D01*
X148107000Y-108906250D01*
X148265750Y-109065000D01*
X150646309Y-109065000D01*
X150879698Y-108968327D01*
X151058327Y-108789699D01*
X151155000Y-108556310D01*
X151155000Y-108312129D01*
X151278564Y-108353149D01*
X151722968Y-108321018D01*
X151984308Y-108212768D01*
X152019595Y-107999200D01*
X151891710Y-107871315D01*
X151953327Y-107809699D01*
X152022443Y-107642838D01*
X152199200Y-107819595D01*
X152412768Y-107784308D01*
X152553149Y-107361436D01*
X152547158Y-107278564D01*
X180846851Y-107278564D01*
X180878982Y-107722968D01*
X180987232Y-107984308D01*
X181200800Y-108019595D01*
X181377557Y-107842838D01*
X181446673Y-108009699D01*
X181508290Y-108071315D01*
X181380405Y-108199200D01*
X181415692Y-108412768D01*
X181838564Y-108553149D01*
X182245000Y-108523763D01*
X182245000Y-108756310D01*
X182341673Y-108989699D01*
X182520302Y-109168327D01*
X182753691Y-109265000D01*
X185134250Y-109265000D01*
X185293000Y-109106250D01*
X185293000Y-107547000D01*
X185547000Y-107547000D01*
X185547000Y-109106250D01*
X185705750Y-109265000D01*
X188086309Y-109265000D01*
X188319698Y-109168327D01*
X188498327Y-108989699D01*
X188595000Y-108756310D01*
X188595000Y-107705750D01*
X188436250Y-107547000D01*
X185547000Y-107547000D01*
X185293000Y-107547000D01*
X185273000Y-107547000D01*
X185273000Y-107293000D01*
X185293000Y-107293000D01*
X185293000Y-105733750D01*
X185547000Y-105733750D01*
X185547000Y-107293000D01*
X188436250Y-107293000D01*
X188595000Y-107134250D01*
X188595000Y-106083690D01*
X188498327Y-105850301D01*
X188319698Y-105671673D01*
X188086309Y-105575000D01*
X185705750Y-105575000D01*
X185547000Y-105733750D01*
X185293000Y-105733750D01*
X185134250Y-105575000D01*
X182753691Y-105575000D01*
X182520302Y-105671673D01*
X182341673Y-105850301D01*
X182245000Y-106083690D01*
X182245000Y-106327871D01*
X182121436Y-106286851D01*
X181677032Y-106318982D01*
X181415692Y-106427232D01*
X181380405Y-106640800D01*
X181508290Y-106768685D01*
X181446673Y-106830301D01*
X181377557Y-106997162D01*
X181200800Y-106820405D01*
X180987232Y-106855692D01*
X180846851Y-107278564D01*
X152547158Y-107278564D01*
X152521018Y-106917032D01*
X152412768Y-106655692D01*
X152199200Y-106620405D01*
X152022443Y-106797162D01*
X151953327Y-106630301D01*
X151891710Y-106568685D01*
X152019595Y-106440800D01*
X151984308Y-106227232D01*
X151561436Y-106086851D01*
X151155000Y-106116237D01*
X151155000Y-105883690D01*
X151058327Y-105650301D01*
X150879698Y-105471673D01*
X150646309Y-105375000D01*
X148265750Y-105375000D01*
X148107000Y-105533750D01*
X147853000Y-105533750D01*
X147694250Y-105375000D01*
X145313691Y-105375000D01*
X145080302Y-105471673D01*
X144901673Y-105650301D01*
X144805000Y-105883690D01*
X144710000Y-105883690D01*
X144710000Y-98965750D01*
X144905000Y-98965750D01*
X144905000Y-100016310D01*
X145001673Y-100249699D01*
X145180302Y-100428327D01*
X145413691Y-100525000D01*
X147794250Y-100525000D01*
X147953000Y-100366250D01*
X147953000Y-98807000D01*
X145063750Y-98807000D01*
X144905000Y-98965750D01*
X144710000Y-98965750D01*
X144710000Y-97343690D01*
X144905000Y-97343690D01*
X144905000Y-98394250D01*
X145063750Y-98553000D01*
X147953000Y-98553000D01*
X147953000Y-96993750D01*
X148207000Y-96993750D01*
X148207000Y-98553000D01*
X148227000Y-98553000D01*
X148227000Y-98807000D01*
X148207000Y-98807000D01*
X148207000Y-100366250D01*
X148365750Y-100525000D01*
X150746309Y-100525000D01*
X150979698Y-100428327D01*
X151158327Y-100249699D01*
X151255000Y-100016310D01*
X151255000Y-99772129D01*
X151378564Y-99813149D01*
X151822968Y-99781018D01*
X152084308Y-99672768D01*
X152119595Y-99459200D01*
X151991710Y-99331315D01*
X152053327Y-99269699D01*
X152122443Y-99102838D01*
X152299200Y-99279595D01*
X152512768Y-99244308D01*
X152647463Y-98838564D01*
X180946851Y-98838564D01*
X180978982Y-99282968D01*
X181087232Y-99544308D01*
X181300800Y-99579595D01*
X181477557Y-99402838D01*
X181546673Y-99569699D01*
X181608290Y-99631315D01*
X181480405Y-99759200D01*
X181515692Y-99972768D01*
X181938564Y-100113149D01*
X182345000Y-100083763D01*
X182345000Y-100316310D01*
X182441673Y-100549699D01*
X182620302Y-100728327D01*
X182853691Y-100825000D01*
X185234250Y-100825000D01*
X185393000Y-100666250D01*
X185393000Y-99107000D01*
X185647000Y-99107000D01*
X185647000Y-100666250D01*
X185805750Y-100825000D01*
X188186309Y-100825000D01*
X188419698Y-100728327D01*
X188598327Y-100549699D01*
X188695000Y-100316310D01*
X188695000Y-99265750D01*
X188536250Y-99107000D01*
X185647000Y-99107000D01*
X185393000Y-99107000D01*
X185373000Y-99107000D01*
X185373000Y-98853000D01*
X185393000Y-98853000D01*
X185393000Y-97293750D01*
X185647000Y-97293750D01*
X185647000Y-98853000D01*
X188536250Y-98853000D01*
X188695000Y-98694250D01*
X188695000Y-97643690D01*
X188598327Y-97410301D01*
X188419698Y-97231673D01*
X188186309Y-97135000D01*
X185805750Y-97135000D01*
X185647000Y-97293750D01*
X185393000Y-97293750D01*
X185234250Y-97135000D01*
X182853691Y-97135000D01*
X182620302Y-97231673D01*
X182441673Y-97410301D01*
X182345000Y-97643690D01*
X182345000Y-97887871D01*
X182221436Y-97846851D01*
X181777032Y-97878982D01*
X181515692Y-97987232D01*
X181480405Y-98200800D01*
X181608290Y-98328685D01*
X181546673Y-98390301D01*
X181477557Y-98557162D01*
X181300800Y-98380405D01*
X181087232Y-98415692D01*
X180946851Y-98838564D01*
X152647463Y-98838564D01*
X152653149Y-98821436D01*
X152621018Y-98377032D01*
X152512768Y-98115692D01*
X152299200Y-98080405D01*
X152122443Y-98257162D01*
X152053327Y-98090301D01*
X151991710Y-98028685D01*
X152119595Y-97900800D01*
X152084308Y-97687232D01*
X151661436Y-97546851D01*
X151255000Y-97576237D01*
X151255000Y-97343690D01*
X151158327Y-97110301D01*
X150979698Y-96931673D01*
X150746309Y-96835000D01*
X148365750Y-96835000D01*
X148207000Y-96993750D01*
X147953000Y-96993750D01*
X147794250Y-96835000D01*
X145413691Y-96835000D01*
X145180302Y-96931673D01*
X145001673Y-97110301D01*
X144905000Y-97343690D01*
X144710000Y-97343690D01*
X144710000Y-90205750D01*
X144905000Y-90205750D01*
X144905000Y-91256310D01*
X145001673Y-91489699D01*
X145180302Y-91668327D01*
X145413691Y-91765000D01*
X147794250Y-91765000D01*
X147953000Y-91606250D01*
X147953000Y-90047000D01*
X145063750Y-90047000D01*
X144905000Y-90205750D01*
X144710000Y-90205750D01*
X144710000Y-88583690D01*
X144905000Y-88583690D01*
X144905000Y-89634250D01*
X145063750Y-89793000D01*
X147953000Y-89793000D01*
X147953000Y-88233750D01*
X148207000Y-88233750D01*
X148207000Y-89793000D01*
X148227000Y-89793000D01*
X148227000Y-90047000D01*
X148207000Y-90047000D01*
X148207000Y-91606250D01*
X148365750Y-91765000D01*
X150746309Y-91765000D01*
X150979698Y-91668327D01*
X151158327Y-91489699D01*
X151255000Y-91256310D01*
X151255000Y-91012129D01*
X151378564Y-91053149D01*
X151822968Y-91021018D01*
X152084308Y-90912768D01*
X152119595Y-90699200D01*
X151991710Y-90571315D01*
X152053327Y-90509699D01*
X152122443Y-90342838D01*
X152299200Y-90519595D01*
X152512768Y-90484308D01*
X152653149Y-90061436D01*
X152621018Y-89617032D01*
X152512768Y-89355692D01*
X152299200Y-89320405D01*
X152122443Y-89497162D01*
X152053327Y-89330301D01*
X151991710Y-89268685D01*
X152119595Y-89140800D01*
X152084308Y-88927232D01*
X151661436Y-88786851D01*
X151255000Y-88816237D01*
X151255000Y-88583690D01*
X151158327Y-88350301D01*
X150979698Y-88171673D01*
X150746309Y-88075000D01*
X148365750Y-88075000D01*
X148207000Y-88233750D01*
X147953000Y-88233750D01*
X147794250Y-88075000D01*
X145413691Y-88075000D01*
X145180302Y-88171673D01*
X145001673Y-88350301D01*
X144905000Y-88583690D01*
X144710000Y-88583690D01*
X144710000Y-76350000D01*
X147527560Y-76350000D01*
X147527560Y-78350000D01*
X147576843Y-78597765D01*
X147717191Y-78807809D01*
X147927235Y-78948157D01*
X148175000Y-78997440D01*
X150490080Y-78997440D01*
X158743900Y-87251260D01*
X158717516Y-87341781D01*
X158745017Y-87592899D01*
X158866524Y-87814376D01*
X159187918Y-88197399D01*
X159384932Y-88355519D01*
X159627458Y-88426209D01*
X159702948Y-88417941D01*
X159681698Y-88490847D01*
X159709199Y-88741965D01*
X159830706Y-88963442D01*
X160152100Y-89346465D01*
X160349114Y-89504585D01*
X160591640Y-89575275D01*
X160842757Y-89547773D01*
X160851004Y-89543248D01*
X163147689Y-91839933D01*
X163115180Y-91918223D01*
X163114821Y-92329971D01*
X163272058Y-92710515D01*
X163562954Y-93001919D01*
X163943223Y-93159820D01*
X164354971Y-93160179D01*
X164735515Y-93002942D01*
X165026919Y-92712046D01*
X165164808Y-92379971D01*
X166264821Y-92379971D01*
X166422058Y-92760515D01*
X166712954Y-93051919D01*
X167093223Y-93209820D01*
X167504971Y-93210179D01*
X167885515Y-93052942D01*
X168176919Y-92762046D01*
X168334820Y-92381777D01*
X168334966Y-92214836D01*
X170471238Y-90078564D01*
X180946851Y-90078564D01*
X180978982Y-90522968D01*
X181087232Y-90784308D01*
X181300800Y-90819595D01*
X181477557Y-90642838D01*
X181546673Y-90809699D01*
X181608290Y-90871315D01*
X181480405Y-90999200D01*
X181515692Y-91212768D01*
X181938564Y-91353149D01*
X182345000Y-91323763D01*
X182345000Y-91556310D01*
X182441673Y-91789699D01*
X182620302Y-91968327D01*
X182853691Y-92065000D01*
X185234250Y-92065000D01*
X185393000Y-91906250D01*
X185393000Y-90347000D01*
X185647000Y-90347000D01*
X185647000Y-91906250D01*
X185805750Y-92065000D01*
X188186309Y-92065000D01*
X188419698Y-91968327D01*
X188598327Y-91789699D01*
X188695000Y-91556310D01*
X188695000Y-90505750D01*
X188536250Y-90347000D01*
X185647000Y-90347000D01*
X185393000Y-90347000D01*
X185373000Y-90347000D01*
X185373000Y-90093000D01*
X185393000Y-90093000D01*
X185393000Y-88533750D01*
X185647000Y-88533750D01*
X185647000Y-90093000D01*
X188536250Y-90093000D01*
X188695000Y-89934250D01*
X188695000Y-88883690D01*
X188598327Y-88650301D01*
X188419698Y-88471673D01*
X188186309Y-88375000D01*
X185805750Y-88375000D01*
X185647000Y-88533750D01*
X185393000Y-88533750D01*
X185234250Y-88375000D01*
X182853691Y-88375000D01*
X182620302Y-88471673D01*
X182441673Y-88650301D01*
X182345000Y-88883690D01*
X182345000Y-89127871D01*
X182221436Y-89086851D01*
X181777032Y-89118982D01*
X181515692Y-89227232D01*
X181480405Y-89440800D01*
X181608290Y-89568685D01*
X181546673Y-89630301D01*
X181477557Y-89797162D01*
X181300800Y-89620405D01*
X181087232Y-89655692D01*
X180946851Y-90078564D01*
X170471238Y-90078564D01*
X171229262Y-89320540D01*
X171441781Y-89382484D01*
X171692899Y-89354983D01*
X171914376Y-89233476D01*
X172297399Y-88912082D01*
X172455519Y-88715068D01*
X172526209Y-88472542D01*
X172517941Y-88397052D01*
X172590847Y-88418302D01*
X172841965Y-88390801D01*
X173063442Y-88269294D01*
X173446465Y-87947900D01*
X173604585Y-87750886D01*
X173675275Y-87508360D01*
X173647773Y-87257243D01*
X173643248Y-87248996D01*
X182502560Y-78389684D01*
X182502560Y-78550000D01*
X182551843Y-78797765D01*
X182692191Y-79007809D01*
X182902235Y-79148157D01*
X183150000Y-79197440D01*
X185750000Y-79197440D01*
X185997765Y-79148157D01*
X186207809Y-79007809D01*
X186348157Y-78797765D01*
X186397440Y-78550000D01*
X186397440Y-76550000D01*
X186348157Y-76302235D01*
X186207809Y-76092191D01*
X186047240Y-75984901D01*
X186309144Y-75518355D01*
X186340124Y-75390434D01*
X186220777Y-75137000D01*
X184577000Y-75137000D01*
X184577000Y-75157000D01*
X184323000Y-75157000D01*
X184323000Y-75137000D01*
X182679223Y-75137000D01*
X182559876Y-75390434D01*
X182590856Y-75518355D01*
X182852760Y-75984901D01*
X182692191Y-76092191D01*
X182551843Y-76302235D01*
X182502560Y-76550000D01*
X182502560Y-76790000D01*
X182267442Y-76790000D01*
X181976603Y-76847852D01*
X181730041Y-77012599D01*
X172598740Y-86143900D01*
X172508219Y-86117516D01*
X172257101Y-86145017D01*
X172035624Y-86266524D01*
X171652601Y-86587918D01*
X171494481Y-86784932D01*
X171423791Y-87027458D01*
X171432059Y-87102948D01*
X171359153Y-87081698D01*
X171108035Y-87109199D01*
X170886558Y-87230706D01*
X170503535Y-87552100D01*
X170345415Y-87749114D01*
X170274725Y-87991640D01*
X170287935Y-88112263D01*
X167260233Y-91139965D01*
X167095029Y-91139821D01*
X166714485Y-91297058D01*
X166423081Y-91587954D01*
X166265180Y-91968223D01*
X166264821Y-92379971D01*
X165164808Y-92379971D01*
X165184820Y-92331777D01*
X165185179Y-91920029D01*
X165027942Y-91539485D01*
X164737046Y-91248081D01*
X164682999Y-91225639D01*
X161956100Y-88498740D01*
X161982484Y-88408219D01*
X161954983Y-88157101D01*
X161833476Y-87935624D01*
X161512082Y-87552601D01*
X161315068Y-87394481D01*
X161072542Y-87323791D01*
X160997052Y-87332059D01*
X161018302Y-87259153D01*
X160990801Y-87008035D01*
X160869294Y-86786558D01*
X160547900Y-86403535D01*
X160350886Y-86245415D01*
X160108360Y-86174725D01*
X159857243Y-86202227D01*
X159848996Y-86206752D01*
X151422440Y-77780196D01*
X151422440Y-76350000D01*
X151373157Y-76102235D01*
X151232809Y-75892191D01*
X151072240Y-75784901D01*
X151139127Y-75665750D01*
X159375000Y-75665750D01*
X159375000Y-78046309D01*
X159471673Y-78279698D01*
X159650301Y-78458327D01*
X159883690Y-78555000D01*
X160127871Y-78555000D01*
X160086851Y-78678564D01*
X160118982Y-79122968D01*
X160227232Y-79384308D01*
X160440800Y-79419595D01*
X160568685Y-79291710D01*
X160630301Y-79353327D01*
X160797162Y-79422443D01*
X160620405Y-79599200D01*
X160655692Y-79812768D01*
X161078564Y-79953149D01*
X161522968Y-79921018D01*
X161784308Y-79812768D01*
X161819595Y-79599200D01*
X161642838Y-79422443D01*
X161809699Y-79353327D01*
X161871315Y-79291710D01*
X161999200Y-79419595D01*
X162212768Y-79384308D01*
X162353149Y-78961436D01*
X162323763Y-78555000D01*
X162556310Y-78555000D01*
X162789699Y-78458327D01*
X162968327Y-78279698D01*
X163065000Y-78046309D01*
X163065000Y-75665750D01*
X168135000Y-75665750D01*
X168135000Y-78046309D01*
X168231673Y-78279698D01*
X168410301Y-78458327D01*
X168643690Y-78555000D01*
X168887871Y-78555000D01*
X168846851Y-78678564D01*
X168878982Y-79122968D01*
X168987232Y-79384308D01*
X169200800Y-79419595D01*
X169328685Y-79291710D01*
X169390301Y-79353327D01*
X169557162Y-79422443D01*
X169380405Y-79599200D01*
X169415692Y-79812768D01*
X169838564Y-79953149D01*
X170282968Y-79921018D01*
X170544308Y-79812768D01*
X170579595Y-79599200D01*
X170402838Y-79422443D01*
X170569699Y-79353327D01*
X170631315Y-79291710D01*
X170759200Y-79419595D01*
X170972768Y-79384308D01*
X171113149Y-78961436D01*
X171083763Y-78555000D01*
X171316310Y-78555000D01*
X171549699Y-78458327D01*
X171728327Y-78279698D01*
X171825000Y-78046309D01*
X171825000Y-75665750D01*
X171666250Y-75507000D01*
X170107000Y-75507000D01*
X170107000Y-75527000D01*
X169853000Y-75527000D01*
X169853000Y-75507000D01*
X168293750Y-75507000D01*
X168135000Y-75665750D01*
X163065000Y-75665750D01*
X162906250Y-75507000D01*
X161347000Y-75507000D01*
X161347000Y-75527000D01*
X161093000Y-75527000D01*
X161093000Y-75507000D01*
X159533750Y-75507000D01*
X159375000Y-75665750D01*
X151139127Y-75665750D01*
X151334144Y-75318355D01*
X151365124Y-75190434D01*
X151245777Y-74937000D01*
X149602000Y-74937000D01*
X149602000Y-74957000D01*
X149348000Y-74957000D01*
X149348000Y-74937000D01*
X147704223Y-74937000D01*
X147584876Y-75190434D01*
X147615856Y-75318355D01*
X147877760Y-75784901D01*
X147717191Y-75892191D01*
X147576843Y-76102235D01*
X147527560Y-76350000D01*
X144710000Y-76350000D01*
X144710000Y-74429566D01*
X147584876Y-74429566D01*
X147704223Y-74683000D01*
X149348000Y-74683000D01*
X149348000Y-73175000D01*
X149602000Y-73175000D01*
X149602000Y-74683000D01*
X151245777Y-74683000D01*
X151365124Y-74429566D01*
X151334144Y-74301645D01*
X151020922Y-73743683D01*
X150518020Y-73348058D01*
X149902000Y-73175000D01*
X149602000Y-73175000D01*
X149348000Y-73175000D01*
X149048000Y-73175000D01*
X148431980Y-73348058D01*
X147929078Y-73743683D01*
X147615856Y-74301645D01*
X147584876Y-74429566D01*
X144710000Y-74429566D01*
X144710000Y-72713691D01*
X159375000Y-72713691D01*
X159375000Y-75094250D01*
X159533750Y-75253000D01*
X161093000Y-75253000D01*
X161093000Y-72363750D01*
X161347000Y-72363750D01*
X161347000Y-75253000D01*
X162906250Y-75253000D01*
X163065000Y-75094250D01*
X163065000Y-72713691D01*
X168135000Y-72713691D01*
X168135000Y-75094250D01*
X168293750Y-75253000D01*
X169853000Y-75253000D01*
X169853000Y-72363750D01*
X170107000Y-72363750D01*
X170107000Y-75253000D01*
X171666250Y-75253000D01*
X171825000Y-75094250D01*
X171825000Y-74629566D01*
X182559876Y-74629566D01*
X182679223Y-74883000D01*
X184323000Y-74883000D01*
X184323000Y-73375000D01*
X184577000Y-73375000D01*
X184577000Y-74883000D01*
X186220777Y-74883000D01*
X186340124Y-74629566D01*
X186309144Y-74501645D01*
X185995922Y-73943683D01*
X185493020Y-73548058D01*
X184877000Y-73375000D01*
X184577000Y-73375000D01*
X184323000Y-73375000D01*
X184023000Y-73375000D01*
X183406980Y-73548058D01*
X182904078Y-73943683D01*
X182590856Y-74501645D01*
X182559876Y-74629566D01*
X171825000Y-74629566D01*
X171825000Y-72713691D01*
X171728327Y-72480302D01*
X171549699Y-72301673D01*
X171316310Y-72205000D01*
X170265750Y-72205000D01*
X170107000Y-72363750D01*
X169853000Y-72363750D01*
X169694250Y-72205000D01*
X168643690Y-72205000D01*
X168410301Y-72301673D01*
X168231673Y-72480302D01*
X168135000Y-72713691D01*
X163065000Y-72713691D01*
X162968327Y-72480302D01*
X162789699Y-72301673D01*
X162556310Y-72205000D01*
X161505750Y-72205000D01*
X161347000Y-72363750D01*
X161093000Y-72363750D01*
X160934250Y-72205000D01*
X159883690Y-72205000D01*
X159650301Y-72301673D01*
X159471673Y-72480302D01*
X159375000Y-72713691D01*
X144710000Y-72713691D01*
X144710000Y-72010000D01*
X188940000Y-72010000D01*
X188940000Y-118065000D01*
X188940000Y-118065000D01*
G37*
X188940000Y-118065000D02*
X144710000Y-118065000D01*
X144710000Y-116265750D01*
X144805000Y-116265750D01*
X144805000Y-117316310D01*
X144901673Y-117549699D01*
X145080302Y-117728327D01*
X145313691Y-117825000D01*
X147694250Y-117825000D01*
X147853000Y-117666250D01*
X147853000Y-116107000D01*
X144963750Y-116107000D01*
X144805000Y-116265750D01*
X144710000Y-116265750D01*
X144710000Y-114643690D01*
X144805000Y-114643690D01*
X144805000Y-115694250D01*
X144963750Y-115853000D01*
X147853000Y-115853000D01*
X147853000Y-114293750D01*
X148107000Y-114293750D01*
X148107000Y-115853000D01*
X148127000Y-115853000D01*
X148127000Y-116107000D01*
X148107000Y-116107000D01*
X148107000Y-117666250D01*
X148265750Y-117825000D01*
X150646309Y-117825000D01*
X150879698Y-117728327D01*
X151058327Y-117549699D01*
X151155000Y-117316310D01*
X151155000Y-117072129D01*
X151278564Y-117113149D01*
X151722968Y-117081018D01*
X151984308Y-116972768D01*
X152019595Y-116759200D01*
X151891710Y-116631315D01*
X151953327Y-116569699D01*
X152022443Y-116402838D01*
X152199200Y-116579595D01*
X152412768Y-116544308D01*
X152553149Y-116121436D01*
X152547158Y-116038564D01*
X180846851Y-116038564D01*
X180878982Y-116482968D01*
X180987232Y-116744308D01*
X181200800Y-116779595D01*
X181377557Y-116602838D01*
X181446673Y-116769699D01*
X181508290Y-116831315D01*
X181380405Y-116959200D01*
X181415692Y-117172768D01*
X181838564Y-117313149D01*
X182245000Y-117283763D01*
X182245000Y-117516310D01*
X182341673Y-117749699D01*
X182520302Y-117928327D01*
X182753691Y-118025000D01*
X185134250Y-118025000D01*
X185293000Y-117866250D01*
X185293000Y-116307000D01*
X185547000Y-116307000D01*
X185547000Y-117866250D01*
X185705750Y-118025000D01*
X188086309Y-118025000D01*
X188319698Y-117928327D01*
X188498327Y-117749699D01*
X188595000Y-117516310D01*
X188595000Y-116465750D01*
X188436250Y-116307000D01*
X185547000Y-116307000D01*
X185293000Y-116307000D01*
X185273000Y-116307000D01*
X185273000Y-116053000D01*
X185293000Y-116053000D01*
X185293000Y-114493750D01*
X185547000Y-114493750D01*
X185547000Y-116053000D01*
X188436250Y-116053000D01*
X188595000Y-115894250D01*
X188595000Y-114843690D01*
X188498327Y-114610301D01*
X188319698Y-114431673D01*
X188086309Y-114335000D01*
X185705750Y-114335000D01*
X185547000Y-114493750D01*
X185293000Y-114493750D01*
X185134250Y-114335000D01*
X182753691Y-114335000D01*
X182520302Y-114431673D01*
X182341673Y-114610301D01*
X182245000Y-114843690D01*
X182245000Y-115087871D01*
X182121436Y-115046851D01*
X181677032Y-115078982D01*
X181415692Y-115187232D01*
X181380405Y-115400800D01*
X181508290Y-115528685D01*
X181446673Y-115590301D01*
X181377557Y-115757162D01*
X181200800Y-115580405D01*
X180987232Y-115615692D01*
X180846851Y-116038564D01*
X152547158Y-116038564D01*
X152521018Y-115677032D01*
X152412768Y-115415692D01*
X152199200Y-115380405D01*
X152022443Y-115557162D01*
X151953327Y-115390301D01*
X151891710Y-115328685D01*
X152019595Y-115200800D01*
X151984308Y-114987232D01*
X151561436Y-114846851D01*
X151155000Y-114876237D01*
X151155000Y-114643690D01*
X151058327Y-114410301D01*
X150879698Y-114231673D01*
X150646309Y-114135000D01*
X148265750Y-114135000D01*
X148107000Y-114293750D01*
X147853000Y-114293750D01*
X147694250Y-114135000D01*
X145313691Y-114135000D01*
X145080302Y-114231673D01*
X144901673Y-114410301D01*
X144805000Y-114643690D01*
X144710000Y-114643690D01*
X144710000Y-107505750D01*
X144805000Y-107505750D01*
X144805000Y-108556310D01*
X144901673Y-108789699D01*
X145080302Y-108968327D01*
X145313691Y-109065000D01*
X147694250Y-109065000D01*
X147853000Y-108906250D01*
X147853000Y-107347000D01*
X144963750Y-107347000D01*
X144805000Y-107505750D01*
X144710000Y-107505750D01*
X144710000Y-105883690D01*
X144805000Y-105883690D01*
X144805000Y-106934250D01*
X144963750Y-107093000D01*
X147853000Y-107093000D01*
X147853000Y-105533750D01*
X148107000Y-105533750D01*
X148107000Y-107093000D01*
X148127000Y-107093000D01*
X148127000Y-107347000D01*
X148107000Y-107347000D01*
X148107000Y-108906250D01*
X148265750Y-109065000D01*
X150646309Y-109065000D01*
X150879698Y-108968327D01*
X151058327Y-108789699D01*
X151155000Y-108556310D01*
X151155000Y-108312129D01*
X151278564Y-108353149D01*
X151722968Y-108321018D01*
X151984308Y-108212768D01*
X152019595Y-107999200D01*
X151891710Y-107871315D01*
X151953327Y-107809699D01*
X152022443Y-107642838D01*
X152199200Y-107819595D01*
X152412768Y-107784308D01*
X152553149Y-107361436D01*
X152547158Y-107278564D01*
X180846851Y-107278564D01*
X180878982Y-107722968D01*
X180987232Y-107984308D01*
X181200800Y-108019595D01*
X181377557Y-107842838D01*
X181446673Y-108009699D01*
X181508290Y-108071315D01*
X181380405Y-108199200D01*
X181415692Y-108412768D01*
X181838564Y-108553149D01*
X182245000Y-108523763D01*
X182245000Y-108756310D01*
X182341673Y-108989699D01*
X182520302Y-109168327D01*
X182753691Y-109265000D01*
X185134250Y-109265000D01*
X185293000Y-109106250D01*
X185293000Y-107547000D01*
X185547000Y-107547000D01*
X185547000Y-109106250D01*
X185705750Y-109265000D01*
X188086309Y-109265000D01*
X188319698Y-109168327D01*
X188498327Y-108989699D01*
X188595000Y-108756310D01*
X188595000Y-107705750D01*
X188436250Y-107547000D01*
X185547000Y-107547000D01*
X185293000Y-107547000D01*
X185273000Y-107547000D01*
X185273000Y-107293000D01*
X185293000Y-107293000D01*
X185293000Y-105733750D01*
X185547000Y-105733750D01*
X185547000Y-107293000D01*
X188436250Y-107293000D01*
X188595000Y-107134250D01*
X188595000Y-106083690D01*
X188498327Y-105850301D01*
X188319698Y-105671673D01*
X188086309Y-105575000D01*
X185705750Y-105575000D01*
X185547000Y-105733750D01*
X185293000Y-105733750D01*
X185134250Y-105575000D01*
X182753691Y-105575000D01*
X182520302Y-105671673D01*
X182341673Y-105850301D01*
X182245000Y-106083690D01*
X182245000Y-106327871D01*
X182121436Y-106286851D01*
X181677032Y-106318982D01*
X181415692Y-106427232D01*
X181380405Y-106640800D01*
X181508290Y-106768685D01*
X181446673Y-106830301D01*
X181377557Y-106997162D01*
X181200800Y-106820405D01*
X180987232Y-106855692D01*
X180846851Y-107278564D01*
X152547158Y-107278564D01*
X152521018Y-106917032D01*
X152412768Y-106655692D01*
X152199200Y-106620405D01*
X152022443Y-106797162D01*
X151953327Y-106630301D01*
X151891710Y-106568685D01*
X152019595Y-106440800D01*
X151984308Y-106227232D01*
X151561436Y-106086851D01*
X151155000Y-106116237D01*
X151155000Y-105883690D01*
X151058327Y-105650301D01*
X150879698Y-105471673D01*
X150646309Y-105375000D01*
X148265750Y-105375000D01*
X148107000Y-105533750D01*
X147853000Y-105533750D01*
X147694250Y-105375000D01*
X145313691Y-105375000D01*
X145080302Y-105471673D01*
X144901673Y-105650301D01*
X144805000Y-105883690D01*
X144710000Y-105883690D01*
X144710000Y-98965750D01*
X144905000Y-98965750D01*
X144905000Y-100016310D01*
X145001673Y-100249699D01*
X145180302Y-100428327D01*
X145413691Y-100525000D01*
X147794250Y-100525000D01*
X147953000Y-100366250D01*
X147953000Y-98807000D01*
X145063750Y-98807000D01*
X144905000Y-98965750D01*
X144710000Y-98965750D01*
X144710000Y-97343690D01*
X144905000Y-97343690D01*
X144905000Y-98394250D01*
X145063750Y-98553000D01*
X147953000Y-98553000D01*
X147953000Y-96993750D01*
X148207000Y-96993750D01*
X148207000Y-98553000D01*
X148227000Y-98553000D01*
X148227000Y-98807000D01*
X148207000Y-98807000D01*
X148207000Y-100366250D01*
X148365750Y-100525000D01*
X150746309Y-100525000D01*
X150979698Y-100428327D01*
X151158327Y-100249699D01*
X151255000Y-100016310D01*
X151255000Y-99772129D01*
X151378564Y-99813149D01*
X151822968Y-99781018D01*
X152084308Y-99672768D01*
X152119595Y-99459200D01*
X151991710Y-99331315D01*
X152053327Y-99269699D01*
X152122443Y-99102838D01*
X152299200Y-99279595D01*
X152512768Y-99244308D01*
X152647463Y-98838564D01*
X180946851Y-98838564D01*
X180978982Y-99282968D01*
X181087232Y-99544308D01*
X181300800Y-99579595D01*
X181477557Y-99402838D01*
X181546673Y-99569699D01*
X181608290Y-99631315D01*
X181480405Y-99759200D01*
X181515692Y-99972768D01*
X181938564Y-100113149D01*
X182345000Y-100083763D01*
X182345000Y-100316310D01*
X182441673Y-100549699D01*
X182620302Y-100728327D01*
X182853691Y-100825000D01*
X185234250Y-100825000D01*
X185393000Y-100666250D01*
X185393000Y-99107000D01*
X185647000Y-99107000D01*
X185647000Y-100666250D01*
X185805750Y-100825000D01*
X188186309Y-100825000D01*
X188419698Y-100728327D01*
X188598327Y-100549699D01*
X188695000Y-100316310D01*
X188695000Y-99265750D01*
X188536250Y-99107000D01*
X185647000Y-99107000D01*
X185393000Y-99107000D01*
X185373000Y-99107000D01*
X185373000Y-98853000D01*
X185393000Y-98853000D01*
X185393000Y-97293750D01*
X185647000Y-97293750D01*
X185647000Y-98853000D01*
X188536250Y-98853000D01*
X188695000Y-98694250D01*
X188695000Y-97643690D01*
X188598327Y-97410301D01*
X188419698Y-97231673D01*
X188186309Y-97135000D01*
X185805750Y-97135000D01*
X185647000Y-97293750D01*
X185393000Y-97293750D01*
X185234250Y-97135000D01*
X182853691Y-97135000D01*
X182620302Y-97231673D01*
X182441673Y-97410301D01*
X182345000Y-97643690D01*
X182345000Y-97887871D01*
X182221436Y-97846851D01*
X181777032Y-97878982D01*
X181515692Y-97987232D01*
X181480405Y-98200800D01*
X181608290Y-98328685D01*
X181546673Y-98390301D01*
X181477557Y-98557162D01*
X181300800Y-98380405D01*
X181087232Y-98415692D01*
X180946851Y-98838564D01*
X152647463Y-98838564D01*
X152653149Y-98821436D01*
X152621018Y-98377032D01*
X152512768Y-98115692D01*
X152299200Y-98080405D01*
X152122443Y-98257162D01*
X152053327Y-98090301D01*
X151991710Y-98028685D01*
X152119595Y-97900800D01*
X152084308Y-97687232D01*
X151661436Y-97546851D01*
X151255000Y-97576237D01*
X151255000Y-97343690D01*
X151158327Y-97110301D01*
X150979698Y-96931673D01*
X150746309Y-96835000D01*
X148365750Y-96835000D01*
X148207000Y-96993750D01*
X147953000Y-96993750D01*
X147794250Y-96835000D01*
X145413691Y-96835000D01*
X145180302Y-96931673D01*
X145001673Y-97110301D01*
X144905000Y-97343690D01*
X144710000Y-97343690D01*
X144710000Y-90205750D01*
X144905000Y-90205750D01*
X144905000Y-91256310D01*
X145001673Y-91489699D01*
X145180302Y-91668327D01*
X145413691Y-91765000D01*
X147794250Y-91765000D01*
X147953000Y-91606250D01*
X147953000Y-90047000D01*
X145063750Y-90047000D01*
X144905000Y-90205750D01*
X144710000Y-90205750D01*
X144710000Y-88583690D01*
X144905000Y-88583690D01*
X144905000Y-89634250D01*
X145063750Y-89793000D01*
X147953000Y-89793000D01*
X147953000Y-88233750D01*
X148207000Y-88233750D01*
X148207000Y-89793000D01*
X148227000Y-89793000D01*
X148227000Y-90047000D01*
X148207000Y-90047000D01*
X148207000Y-91606250D01*
X148365750Y-91765000D01*
X150746309Y-91765000D01*
X150979698Y-91668327D01*
X151158327Y-91489699D01*
X151255000Y-91256310D01*
X151255000Y-91012129D01*
X151378564Y-91053149D01*
X151822968Y-91021018D01*
X152084308Y-90912768D01*
X152119595Y-90699200D01*
X151991710Y-90571315D01*
X152053327Y-90509699D01*
X152122443Y-90342838D01*
X152299200Y-90519595D01*
X152512768Y-90484308D01*
X152653149Y-90061436D01*
X152621018Y-89617032D01*
X152512768Y-89355692D01*
X152299200Y-89320405D01*
X152122443Y-89497162D01*
X152053327Y-89330301D01*
X151991710Y-89268685D01*
X152119595Y-89140800D01*
X152084308Y-88927232D01*
X151661436Y-88786851D01*
X151255000Y-88816237D01*
X151255000Y-88583690D01*
X151158327Y-88350301D01*
X150979698Y-88171673D01*
X150746309Y-88075000D01*
X148365750Y-88075000D01*
X148207000Y-88233750D01*
X147953000Y-88233750D01*
X147794250Y-88075000D01*
X145413691Y-88075000D01*
X145180302Y-88171673D01*
X145001673Y-88350301D01*
X144905000Y-88583690D01*
X144710000Y-88583690D01*
X144710000Y-76350000D01*
X147527560Y-76350000D01*
X147527560Y-78350000D01*
X147576843Y-78597765D01*
X147717191Y-78807809D01*
X147927235Y-78948157D01*
X148175000Y-78997440D01*
X150490080Y-78997440D01*
X158743900Y-87251260D01*
X158717516Y-87341781D01*
X158745017Y-87592899D01*
X158866524Y-87814376D01*
X159187918Y-88197399D01*
X159384932Y-88355519D01*
X159627458Y-88426209D01*
X159702948Y-88417941D01*
X159681698Y-88490847D01*
X159709199Y-88741965D01*
X159830706Y-88963442D01*
X160152100Y-89346465D01*
X160349114Y-89504585D01*
X160591640Y-89575275D01*
X160842757Y-89547773D01*
X160851004Y-89543248D01*
X163147689Y-91839933D01*
X163115180Y-91918223D01*
X163114821Y-92329971D01*
X163272058Y-92710515D01*
X163562954Y-93001919D01*
X163943223Y-93159820D01*
X164354971Y-93160179D01*
X164735515Y-93002942D01*
X165026919Y-92712046D01*
X165164808Y-92379971D01*
X166264821Y-92379971D01*
X166422058Y-92760515D01*
X166712954Y-93051919D01*
X167093223Y-93209820D01*
X167504971Y-93210179D01*
X167885515Y-93052942D01*
X168176919Y-92762046D01*
X168334820Y-92381777D01*
X168334966Y-92214836D01*
X170471238Y-90078564D01*
X180946851Y-90078564D01*
X180978982Y-90522968D01*
X181087232Y-90784308D01*
X181300800Y-90819595D01*
X181477557Y-90642838D01*
X181546673Y-90809699D01*
X181608290Y-90871315D01*
X181480405Y-90999200D01*
X181515692Y-91212768D01*
X181938564Y-91353149D01*
X182345000Y-91323763D01*
X182345000Y-91556310D01*
X182441673Y-91789699D01*
X182620302Y-91968327D01*
X182853691Y-92065000D01*
X185234250Y-92065000D01*
X185393000Y-91906250D01*
X185393000Y-90347000D01*
X185647000Y-90347000D01*
X185647000Y-91906250D01*
X185805750Y-92065000D01*
X188186309Y-92065000D01*
X188419698Y-91968327D01*
X188598327Y-91789699D01*
X188695000Y-91556310D01*
X188695000Y-90505750D01*
X188536250Y-90347000D01*
X185647000Y-90347000D01*
X185393000Y-90347000D01*
X185373000Y-90347000D01*
X185373000Y-90093000D01*
X185393000Y-90093000D01*
X185393000Y-88533750D01*
X185647000Y-88533750D01*
X185647000Y-90093000D01*
X188536250Y-90093000D01*
X188695000Y-89934250D01*
X188695000Y-88883690D01*
X188598327Y-88650301D01*
X188419698Y-88471673D01*
X188186309Y-88375000D01*
X185805750Y-88375000D01*
X185647000Y-88533750D01*
X185393000Y-88533750D01*
X185234250Y-88375000D01*
X182853691Y-88375000D01*
X182620302Y-88471673D01*
X182441673Y-88650301D01*
X182345000Y-88883690D01*
X182345000Y-89127871D01*
X182221436Y-89086851D01*
X181777032Y-89118982D01*
X181515692Y-89227232D01*
X181480405Y-89440800D01*
X181608290Y-89568685D01*
X181546673Y-89630301D01*
X181477557Y-89797162D01*
X181300800Y-89620405D01*
X181087232Y-89655692D01*
X180946851Y-90078564D01*
X170471238Y-90078564D01*
X171229262Y-89320540D01*
X171441781Y-89382484D01*
X171692899Y-89354983D01*
X171914376Y-89233476D01*
X172297399Y-88912082D01*
X172455519Y-88715068D01*
X172526209Y-88472542D01*
X172517941Y-88397052D01*
X172590847Y-88418302D01*
X172841965Y-88390801D01*
X173063442Y-88269294D01*
X173446465Y-87947900D01*
X173604585Y-87750886D01*
X173675275Y-87508360D01*
X173647773Y-87257243D01*
X173643248Y-87248996D01*
X182502560Y-78389684D01*
X182502560Y-78550000D01*
X182551843Y-78797765D01*
X182692191Y-79007809D01*
X182902235Y-79148157D01*
X183150000Y-79197440D01*
X185750000Y-79197440D01*
X185997765Y-79148157D01*
X186207809Y-79007809D01*
X186348157Y-78797765D01*
X186397440Y-78550000D01*
X186397440Y-76550000D01*
X186348157Y-76302235D01*
X186207809Y-76092191D01*
X186047240Y-75984901D01*
X186309144Y-75518355D01*
X186340124Y-75390434D01*
X186220777Y-75137000D01*
X184577000Y-75137000D01*
X184577000Y-75157000D01*
X184323000Y-75157000D01*
X184323000Y-75137000D01*
X182679223Y-75137000D01*
X182559876Y-75390434D01*
X182590856Y-75518355D01*
X182852760Y-75984901D01*
X182692191Y-76092191D01*
X182551843Y-76302235D01*
X182502560Y-76550000D01*
X182502560Y-76790000D01*
X182267442Y-76790000D01*
X181976603Y-76847852D01*
X181730041Y-77012599D01*
X172598740Y-86143900D01*
X172508219Y-86117516D01*
X172257101Y-86145017D01*
X172035624Y-86266524D01*
X171652601Y-86587918D01*
X171494481Y-86784932D01*
X171423791Y-87027458D01*
X171432059Y-87102948D01*
X171359153Y-87081698D01*
X171108035Y-87109199D01*
X170886558Y-87230706D01*
X170503535Y-87552100D01*
X170345415Y-87749114D01*
X170274725Y-87991640D01*
X170287935Y-88112263D01*
X167260233Y-91139965D01*
X167095029Y-91139821D01*
X166714485Y-91297058D01*
X166423081Y-91587954D01*
X166265180Y-91968223D01*
X166264821Y-92379971D01*
X165164808Y-92379971D01*
X165184820Y-92331777D01*
X165185179Y-91920029D01*
X165027942Y-91539485D01*
X164737046Y-91248081D01*
X164682999Y-91225639D01*
X161956100Y-88498740D01*
X161982484Y-88408219D01*
X161954983Y-88157101D01*
X161833476Y-87935624D01*
X161512082Y-87552601D01*
X161315068Y-87394481D01*
X161072542Y-87323791D01*
X160997052Y-87332059D01*
X161018302Y-87259153D01*
X160990801Y-87008035D01*
X160869294Y-86786558D01*
X160547900Y-86403535D01*
X160350886Y-86245415D01*
X160108360Y-86174725D01*
X159857243Y-86202227D01*
X159848996Y-86206752D01*
X151422440Y-77780196D01*
X151422440Y-76350000D01*
X151373157Y-76102235D01*
X151232809Y-75892191D01*
X151072240Y-75784901D01*
X151139127Y-75665750D01*
X159375000Y-75665750D01*
X159375000Y-78046309D01*
X159471673Y-78279698D01*
X159650301Y-78458327D01*
X159883690Y-78555000D01*
X160127871Y-78555000D01*
X160086851Y-78678564D01*
X160118982Y-79122968D01*
X160227232Y-79384308D01*
X160440800Y-79419595D01*
X160568685Y-79291710D01*
X160630301Y-79353327D01*
X160797162Y-79422443D01*
X160620405Y-79599200D01*
X160655692Y-79812768D01*
X161078564Y-79953149D01*
X161522968Y-79921018D01*
X161784308Y-79812768D01*
X161819595Y-79599200D01*
X161642838Y-79422443D01*
X161809699Y-79353327D01*
X161871315Y-79291710D01*
X161999200Y-79419595D01*
X162212768Y-79384308D01*
X162353149Y-78961436D01*
X162323763Y-78555000D01*
X162556310Y-78555000D01*
X162789699Y-78458327D01*
X162968327Y-78279698D01*
X163065000Y-78046309D01*
X163065000Y-75665750D01*
X168135000Y-75665750D01*
X168135000Y-78046309D01*
X168231673Y-78279698D01*
X168410301Y-78458327D01*
X168643690Y-78555000D01*
X168887871Y-78555000D01*
X168846851Y-78678564D01*
X168878982Y-79122968D01*
X168987232Y-79384308D01*
X169200800Y-79419595D01*
X169328685Y-79291710D01*
X169390301Y-79353327D01*
X169557162Y-79422443D01*
X169380405Y-79599200D01*
X169415692Y-79812768D01*
X169838564Y-79953149D01*
X170282968Y-79921018D01*
X170544308Y-79812768D01*
X170579595Y-79599200D01*
X170402838Y-79422443D01*
X170569699Y-79353327D01*
X170631315Y-79291710D01*
X170759200Y-79419595D01*
X170972768Y-79384308D01*
X171113149Y-78961436D01*
X171083763Y-78555000D01*
X171316310Y-78555000D01*
X171549699Y-78458327D01*
X171728327Y-78279698D01*
X171825000Y-78046309D01*
X171825000Y-75665750D01*
X171666250Y-75507000D01*
X170107000Y-75507000D01*
X170107000Y-75527000D01*
X169853000Y-75527000D01*
X169853000Y-75507000D01*
X168293750Y-75507000D01*
X168135000Y-75665750D01*
X163065000Y-75665750D01*
X162906250Y-75507000D01*
X161347000Y-75507000D01*
X161347000Y-75527000D01*
X161093000Y-75527000D01*
X161093000Y-75507000D01*
X159533750Y-75507000D01*
X159375000Y-75665750D01*
X151139127Y-75665750D01*
X151334144Y-75318355D01*
X151365124Y-75190434D01*
X151245777Y-74937000D01*
X149602000Y-74937000D01*
X149602000Y-74957000D01*
X149348000Y-74957000D01*
X149348000Y-74937000D01*
X147704223Y-74937000D01*
X147584876Y-75190434D01*
X147615856Y-75318355D01*
X147877760Y-75784901D01*
X147717191Y-75892191D01*
X147576843Y-76102235D01*
X147527560Y-76350000D01*
X144710000Y-76350000D01*
X144710000Y-74429566D01*
X147584876Y-74429566D01*
X147704223Y-74683000D01*
X149348000Y-74683000D01*
X149348000Y-73175000D01*
X149602000Y-73175000D01*
X149602000Y-74683000D01*
X151245777Y-74683000D01*
X151365124Y-74429566D01*
X151334144Y-74301645D01*
X151020922Y-73743683D01*
X150518020Y-73348058D01*
X149902000Y-73175000D01*
X149602000Y-73175000D01*
X149348000Y-73175000D01*
X149048000Y-73175000D01*
X148431980Y-73348058D01*
X147929078Y-73743683D01*
X147615856Y-74301645D01*
X147584876Y-74429566D01*
X144710000Y-74429566D01*
X144710000Y-72713691D01*
X159375000Y-72713691D01*
X159375000Y-75094250D01*
X159533750Y-75253000D01*
X161093000Y-75253000D01*
X161093000Y-72363750D01*
X161347000Y-72363750D01*
X161347000Y-75253000D01*
X162906250Y-75253000D01*
X163065000Y-75094250D01*
X163065000Y-72713691D01*
X168135000Y-72713691D01*
X168135000Y-75094250D01*
X168293750Y-75253000D01*
X169853000Y-75253000D01*
X169853000Y-72363750D01*
X170107000Y-72363750D01*
X170107000Y-75253000D01*
X171666250Y-75253000D01*
X171825000Y-75094250D01*
X171825000Y-74629566D01*
X182559876Y-74629566D01*
X182679223Y-74883000D01*
X184323000Y-74883000D01*
X184323000Y-73375000D01*
X184577000Y-73375000D01*
X184577000Y-74883000D01*
X186220777Y-74883000D01*
X186340124Y-74629566D01*
X186309144Y-74501645D01*
X185995922Y-73943683D01*
X185493020Y-73548058D01*
X184877000Y-73375000D01*
X184577000Y-73375000D01*
X184323000Y-73375000D01*
X184023000Y-73375000D01*
X183406980Y-73548058D01*
X182904078Y-73943683D01*
X182590856Y-74501645D01*
X182559876Y-74629566D01*
X171825000Y-74629566D01*
X171825000Y-72713691D01*
X171728327Y-72480302D01*
X171549699Y-72301673D01*
X171316310Y-72205000D01*
X170265750Y-72205000D01*
X170107000Y-72363750D01*
X169853000Y-72363750D01*
X169694250Y-72205000D01*
X168643690Y-72205000D01*
X168410301Y-72301673D01*
X168231673Y-72480302D01*
X168135000Y-72713691D01*
X163065000Y-72713691D01*
X162968327Y-72480302D01*
X162789699Y-72301673D01*
X162556310Y-72205000D01*
X161505750Y-72205000D01*
X161347000Y-72363750D01*
X161093000Y-72363750D01*
X160934250Y-72205000D01*
X159883690Y-72205000D01*
X159650301Y-72301673D01*
X159471673Y-72480302D01*
X159375000Y-72713691D01*
X144710000Y-72713691D01*
X144710000Y-72010000D01*
X188940000Y-72010000D01*
X188940000Y-118065000D01*
%TD*%
M02*
