%TF.GenerationSoftware,KiCad,Pcbnew,(2017-10-17 revision 537804b)-master*%
%TF.CreationDate,2018-07-22T22:11:37+10:00*%
%TF.ProjectId,rf_matching,72665F6D61746368696E672E6B696361,rev?*%
%TF.SameCoordinates,PX92c53e0PY691e668*%
%TF.FileFunction,Copper,L1,Top,Signal*%
%TF.FilePolarity,Positive*%
%FSLAX46Y46*%
G04 Gerber Fmt 4.6, Leading zero omitted, Abs format (unit mm)*
G04 Created by KiCad (PCBNEW (2017-10-17 revision 537804b)-master) date Sunday, 22 July 2018 'PMt' 22:11:38*
%MOMM*%
%LPD*%
G01*
G04 APERTURE LIST*
%TA.AperFunction,SMDPad,CuDef*%
%ADD10R,5.080000X2.290000*%
%TD*%
%TA.AperFunction,SMDPad,CuDef*%
%ADD11R,5.080000X2.420000*%
%TD*%
%TA.AperFunction,ViaPad*%
%ADD12C,0.970000*%
%TD*%
%TA.AperFunction,Conductor*%
%ADD13R,0.890000X0.460000*%
%TD*%
%TA.AperFunction,SMDPad,CuDef*%
%ADD14R,1.000000X0.300000*%
%TD*%
%TA.AperFunction,SMDPad,CuDef*%
%ADD15R,1.960000X0.650000*%
%TD*%
%TA.AperFunction,SMDPad,CuDef*%
%ADD16R,1.200000X0.650000*%
%TD*%
%TA.AperFunction,SMDPad,CuDef*%
%ADD17R,2.290000X5.080000*%
%TD*%
%TA.AperFunction,SMDPad,CuDef*%
%ADD18R,2.420000X5.080000*%
%TD*%
%TA.AperFunction,Conductor*%
%ADD19R,0.460000X0.890000*%
%TD*%
%TA.AperFunction,SMDPad,CuDef*%
%ADD20R,0.900000X0.500000*%
%TD*%
%TA.AperFunction,SMDPad,CuDef*%
%ADD21R,0.500000X0.900000*%
%TD*%
%TA.AperFunction,SMDPad,CuDef*%
%ADD22R,0.750000X0.800000*%
%TD*%
%TA.AperFunction,SMDPad,CuDef*%
%ADD23C,0.750000*%
%TD*%
%TA.AperFunction,Conductor*%
%ADD24C,0.100000*%
%TD*%
%TA.AperFunction,Conductor*%
%ADD25C,0.250000*%
%TD*%
%TA.AperFunction,Conductor*%
%ADD26C,0.254000*%
%TD*%
G04 APERTURE END LIST*
D10*
%TO.P,J1,1*%
%TO.N,Net-(C2-Pad2)*%
X4430000Y23075000D03*
D11*
%TO.P,J1,2*%
%TO.N,GND*%
X4430000Y27455000D03*
X4430000Y18695000D03*
D12*
%TD*%
%TO.N,GND*%
%TO.C,J1*%
X7870000Y27455000D03*
%TO.N,GND*%
%TO.C,J1*%
X7870000Y18695000D03*
D13*
X7420000Y27455000D03*
X7420000Y18695000D03*
%TD*%
%TO.N,GND*%
%TO.C,J2*%
X7420000Y5470000D03*
X7420000Y14230000D03*
D12*
X7870000Y5470000D03*
X7870000Y14230000D03*
D11*
%TD*%
%TO.P,J2,2*%
%TO.N,GND*%
X4430000Y5470000D03*
%TO.P,J2,2*%
%TO.N,GND*%
X4430000Y14230000D03*
D10*
%TO.P,J2,1*%
%TO.N,Net-(C3-Pad2)*%
X4430000Y9850000D03*
%TD*%
%TO.P,J3,1*%
%TO.N,Net-(J3-Pad1)*%
X41820000Y10875000D03*
D11*
%TO.P,J3,2*%
%TO.N,GND*%
X41820000Y6495000D03*
X41820000Y15255000D03*
D12*
%TD*%
%TO.N,GND*%
%TO.C,J3*%
X38380000Y6495000D03*
%TO.N,GND*%
%TO.C,J3*%
X38380000Y15255000D03*
D13*
X38830000Y6495000D03*
X38830000Y15255000D03*
%TD*%
%TO.N,GND*%
%TO.C,J4*%
X38680000Y29355000D03*
X38680000Y20595000D03*
D12*
X38230000Y29355000D03*
X38230000Y20595000D03*
D11*
%TD*%
%TO.P,J4,2*%
%TO.N,GND*%
X41670000Y29355000D03*
%TO.P,J4,2*%
%TO.N,GND*%
X41670000Y20595000D03*
D10*
%TO.P,J4,1*%
%TO.N,Net-(C1-Pad1)*%
X41670000Y24975000D03*
%TD*%
D14*
%TO.P,U1,1*%
%TO.N,Net-(C2-Pad1)*%
X14875000Y17125000D03*
%TO.P,U1,2*%
%TO.N,GND*%
X14875000Y16475000D03*
%TO.P,U1,3*%
%TO.N,Net-(C3-Pad1)*%
X14875000Y15825000D03*
%TO.P,U1,4*%
%TO.N,Net-(R2-Pad2)*%
X17075000Y15825000D03*
%TO.P,U1,5*%
%TO.N,Net-(U1-Pad5)*%
X17075000Y16475000D03*
%TO.P,U1,6*%
%TO.N,Net-(R1-Pad1)*%
X17075000Y17125000D03*
%TD*%
D15*
%TO.P,U2,1*%
%TO.N,GND*%
X30105000Y15275000D03*
D16*
%TO.P,U2,2*%
%TO.N,Net-(C1-Pad2)*%
X30475000Y16475000D03*
%TO.P,U2,3*%
%TO.N,GND*%
X30475000Y17675000D03*
%TO.P,U2,4*%
X27875000Y17675000D03*
%TO.P,U2,5*%
%TO.N,Net-(U1-Pad5)*%
X27875000Y16475000D03*
%TO.P,U2,6*%
%TO.N,GND*%
X27875000Y15275000D03*
%TD*%
D17*
%TO.P,J5,1*%
%TO.N,Net-(J5-Pad1)*%
X20225000Y28270000D03*
D18*
%TO.P,J5,2*%
%TO.N,GND*%
X24605000Y28270000D03*
X15845000Y28270000D03*
D12*
%TD*%
%TO.N,GND*%
%TO.C,J5*%
X24605000Y24830000D03*
%TO.N,GND*%
%TO.C,J5*%
X15845000Y24830000D03*
D19*
X24605000Y25280000D03*
X15845000Y25280000D03*
%TD*%
D20*
%TO.P,R1,2*%
%TO.N,Net-(J5-Pad1)*%
X19975000Y23050000D03*
%TO.P,R1,1*%
%TO.N,Net-(R1-Pad1)*%
X19975000Y21550000D03*
%TD*%
D21*
%TO.P,R2,1*%
%TO.N,Net-(J3-Pad1)*%
X36650000Y10900000D03*
%TO.P,R2,2*%
%TO.N,Net-(R2-Pad2)*%
X35150000Y10900000D03*
%TD*%
D22*
%TO.P,C1,2*%
%TO.N,Net-(C1-Pad2)*%
X33575000Y20400000D03*
%TO.P,C1,1*%
%TO.N,Net-(C1-Pad1)*%
X33575000Y21900000D03*
%TD*%
D23*
%TO.P,C2,2*%
%TO.N,Net-(C2-Pad2)*%
X13044670Y20480330D03*
D24*
%TD*%
%TO.N,Net-(C2-Pad2)*%
%TO.C,C2*%
G36*
X13592678Y20462652D02*
X13062348Y19932322D01*
X12496662Y20498008D01*
X13026992Y21028338D01*
X13592678Y20462652D01*
X13592678Y20462652D01*
G37*
D23*
%TO.P,C2,1*%
%TO.N,Net-(C2-Pad1)*%
X14105330Y19419670D03*
D24*
%TD*%
%TO.N,Net-(C2-Pad1)*%
%TO.C,C2*%
G36*
X14653338Y19401992D02*
X14123008Y18871662D01*
X13557322Y19437348D01*
X14087652Y19967678D01*
X14653338Y19401992D01*
X14653338Y19401992D01*
G37*
D23*
%TO.P,C3,1*%
%TO.N,Net-(C3-Pad1)*%
X14080330Y13530330D03*
D24*
%TD*%
%TO.N,Net-(C3-Pad1)*%
%TO.C,C3*%
G36*
X14098008Y14078338D02*
X14628338Y13548008D01*
X14062652Y12982322D01*
X13532322Y13512652D01*
X14098008Y14078338D01*
X14098008Y14078338D01*
G37*
D23*
%TO.P,C3,2*%
%TO.N,Net-(C3-Pad2)*%
X13019670Y12469670D03*
D24*
%TD*%
%TO.N,Net-(C3-Pad2)*%
%TO.C,C3*%
G36*
X13037348Y13017678D02*
X13567678Y12487348D01*
X13001992Y11921662D01*
X12471662Y12451992D01*
X13037348Y13017678D01*
X13037348Y13017678D01*
G37*
D25*
%TO.N,GND*%
X24605000Y24830000D02*
X24605000Y28270000D01*
X15845000Y24830000D02*
X15845000Y28270000D01*
X24355000Y26030000D02*
X24355000Y29470000D01*
X15595000Y26030000D02*
X15595000Y29470000D01*
X14875000Y16475000D02*
X9315000Y16475000D01*
X3680000Y14230000D02*
X6470000Y14230000D01*
X6470000Y14230000D02*
X7120000Y14230000D01*
X3680000Y5470000D02*
X6470000Y5470000D01*
X6470000Y5470000D02*
X7120000Y5470000D01*
%TO.N,Net-(J3-Pad1)*%
X41820000Y10875000D02*
X36675000Y10875000D01*
X36675000Y10875000D02*
X36650000Y10900000D01*
%TO.N,Net-(U1-Pad5)*%
X17075000Y16475000D02*
X27875000Y16475000D01*
%TO.N,Net-(J5-Pad1)*%
X19950000Y28295000D02*
X19950000Y23075000D01*
%TO.N,Net-(R1-Pad1)*%
X17075000Y17125000D02*
X17075000Y18150000D01*
X17075000Y18150000D02*
X19975000Y21050000D01*
X19975000Y21050000D02*
X19975000Y21550000D01*
%TO.N,Net-(R2-Pad2)*%
X35150000Y10900000D02*
X21600000Y10900000D01*
X21600000Y10900000D02*
X17075000Y15425000D01*
X17075000Y15425000D02*
X17075000Y15825000D01*
%TO.N,Net-(C1-Pad2)*%
X30475000Y16475000D02*
X33000000Y16475000D01*
X33000000Y16475000D02*
X33575000Y17050000D01*
X33575000Y17050000D02*
X33575000Y20400000D01*
%TO.N,Net-(C2-Pad2)*%
X10725000Y22975000D02*
X13044670Y20480330D01*
%TO.N,Net-(C2-Pad1)*%
X14105330Y19419670D02*
X14875000Y18650000D01*
X14875000Y18650000D02*
X14875000Y17125000D01*
%TO.N,Net-(C3-Pad1)*%
X14875000Y14325000D02*
X14875000Y15825000D01*
X14080330Y13530330D02*
X14875000Y14325000D01*
%TO.N,Net-(C3-Pad2)*%
X10725000Y9825000D02*
X13019670Y12469670D01*
X10725000Y9825000D02*
X3780000Y9825000D01*
%TO.N,Net-(C2-Pad2)*%
X10725000Y22975000D02*
X3755000Y22975000D01*
%TO.N,GND*%
X3755000Y18595000D02*
X7195000Y18595000D01*
X3755000Y27355000D02*
X7195000Y27355000D01*
X41620000Y29130000D02*
X38180000Y29130000D01*
X41620000Y20370000D02*
X38180000Y20370000D01*
X41495000Y15030000D02*
X38055000Y15030000D01*
X41495000Y6270000D02*
X38055000Y6270000D01*
%TO.N,Net-(J5-Pad1)*%
X19950000Y23075000D02*
X19975000Y23050000D01*
%TO.N,Net-(C1-Pad1)*%
X33575000Y21900000D02*
X33575000Y24925000D01*
X33575000Y24925000D02*
X33625000Y24975000D01*
X33625000Y24975000D02*
X41670000Y24975000D01*
%TD*%
D26*
%TO.N,GND*%
G36*
X45865000Y685000D02*
X2904151Y685000D01*
X689462Y699459D01*
X716997Y5184250D01*
X1255000Y5184250D01*
X1255000Y4133690D01*
X1351673Y3900301D01*
X1530302Y3721673D01*
X1763691Y3625000D01*
X4144250Y3625000D01*
X4303000Y3783750D01*
X4303000Y5343000D01*
X1413750Y5343000D01*
X1255000Y5184250D01*
X716997Y5184250D01*
X726955Y6806310D01*
X1255000Y6806310D01*
X1255000Y5755750D01*
X1413750Y5597000D01*
X4303000Y5597000D01*
X4303000Y7156250D01*
X4557000Y7156250D01*
X4557000Y5597000D01*
X4577000Y5597000D01*
X4577000Y5343000D01*
X4557000Y5343000D01*
X4557000Y3783750D01*
X4715750Y3625000D01*
X7096309Y3625000D01*
X7329698Y3721673D01*
X7508327Y3900301D01*
X7605000Y4133690D01*
X7605000Y4377871D01*
X7728564Y4336851D01*
X8172968Y4368982D01*
X8434308Y4477232D01*
X8469595Y4690800D01*
X8341710Y4818685D01*
X8403327Y4880301D01*
X8472443Y5047162D01*
X8649200Y4870405D01*
X8862768Y4905692D01*
X9003149Y5328564D01*
X8971018Y5772968D01*
X8862768Y6034308D01*
X8649200Y6069595D01*
X8472443Y5892838D01*
X8403327Y6059699D01*
X8341710Y6121315D01*
X8469595Y6249200D01*
X8434308Y6462768D01*
X8011436Y6603149D01*
X7605000Y6573763D01*
X7605000Y6636436D01*
X37246851Y6636436D01*
X37278982Y6192032D01*
X37387232Y5930692D01*
X37600800Y5895405D01*
X37777557Y6072162D01*
X37846673Y5905301D01*
X37908290Y5843685D01*
X37780405Y5715800D01*
X37815692Y5502232D01*
X38238564Y5361851D01*
X38645000Y5391237D01*
X38645000Y5158690D01*
X38741673Y4925301D01*
X38920302Y4746673D01*
X39153691Y4650000D01*
X41534250Y4650000D01*
X41693000Y4808750D01*
X41693000Y6368000D01*
X41947000Y6368000D01*
X41947000Y4808750D01*
X42105750Y4650000D01*
X44486309Y4650000D01*
X44719698Y4746673D01*
X44898327Y4925301D01*
X44995000Y5158690D01*
X44995000Y6209250D01*
X44836250Y6368000D01*
X41947000Y6368000D01*
X41693000Y6368000D01*
X41673000Y6368000D01*
X41673000Y6622000D01*
X41693000Y6622000D01*
X41693000Y8181250D01*
X41947000Y8181250D01*
X41947000Y6622000D01*
X44836250Y6622000D01*
X44995000Y6780750D01*
X44995000Y7831310D01*
X44898327Y8064699D01*
X44719698Y8243327D01*
X44486309Y8340000D01*
X42105750Y8340000D01*
X41947000Y8181250D01*
X41693000Y8181250D01*
X41534250Y8340000D01*
X39153691Y8340000D01*
X38920302Y8243327D01*
X38741673Y8064699D01*
X38645000Y7831310D01*
X38645000Y7587129D01*
X38521436Y7628149D01*
X38077032Y7596018D01*
X37815692Y7487768D01*
X37780405Y7274200D01*
X37908290Y7146315D01*
X37846673Y7084699D01*
X37777557Y6917838D01*
X37600800Y7094595D01*
X37387232Y7059308D01*
X37246851Y6636436D01*
X7605000Y6636436D01*
X7605000Y6806310D01*
X7508327Y7039699D01*
X7329698Y7218327D01*
X7096309Y7315000D01*
X4715750Y7315000D01*
X4557000Y7156250D01*
X4303000Y7156250D01*
X4144250Y7315000D01*
X1763691Y7315000D01*
X1530302Y7218327D01*
X1351673Y7039699D01*
X1255000Y6806310D01*
X726955Y6806310D01*
X770779Y13944250D01*
X1255000Y13944250D01*
X1255000Y12893690D01*
X1351673Y12660301D01*
X1530302Y12481673D01*
X1763691Y12385000D01*
X4144250Y12385000D01*
X4303000Y12543750D01*
X4303000Y14103000D01*
X1413750Y14103000D01*
X1255000Y13944250D01*
X770779Y13944250D01*
X780738Y15566310D01*
X1255000Y15566310D01*
X1255000Y14515750D01*
X1413750Y14357000D01*
X4303000Y14357000D01*
X4303000Y15916250D01*
X4557000Y15916250D01*
X4557000Y14357000D01*
X4577000Y14357000D01*
X4577000Y14103000D01*
X4557000Y14103000D01*
X4557000Y12543750D01*
X4715750Y12385000D01*
X7096309Y12385000D01*
X7329698Y12481673D01*
X7508327Y12660301D01*
X7605000Y12893690D01*
X7605000Y13137871D01*
X7728564Y13096851D01*
X8172968Y13128982D01*
X8434308Y13237232D01*
X8469595Y13450800D01*
X8341710Y13578685D01*
X8403327Y13640301D01*
X8472443Y13807162D01*
X8649200Y13630405D01*
X8862768Y13665692D01*
X9003149Y14088564D01*
X8971018Y14532968D01*
X8862768Y14794308D01*
X8649200Y14829595D01*
X8472443Y14652838D01*
X8403327Y14819699D01*
X8341710Y14881315D01*
X8469595Y15009200D01*
X8434308Y15222768D01*
X8011436Y15363149D01*
X7605000Y15333763D01*
X7605000Y15566310D01*
X7508327Y15799699D01*
X7329698Y15978327D01*
X7096309Y16075000D01*
X4715750Y16075000D01*
X4557000Y15916250D01*
X4303000Y15916250D01*
X4144250Y16075000D01*
X1763691Y16075000D01*
X1530302Y15978327D01*
X1351673Y15799699D01*
X1255000Y15566310D01*
X780738Y15566310D01*
X798193Y18409250D01*
X1255000Y18409250D01*
X1255000Y17358690D01*
X1351673Y17125301D01*
X1530302Y16946673D01*
X1763691Y16850000D01*
X4144250Y16850000D01*
X4303000Y17008750D01*
X4303000Y18568000D01*
X1413750Y18568000D01*
X1255000Y18409250D01*
X798193Y18409250D01*
X808152Y20031310D01*
X1255000Y20031310D01*
X1255000Y18980750D01*
X1413750Y18822000D01*
X4303000Y18822000D01*
X4303000Y20381250D01*
X4557000Y20381250D01*
X4557000Y18822000D01*
X4577000Y18822000D01*
X4577000Y18568000D01*
X4557000Y18568000D01*
X4557000Y17008750D01*
X4715750Y16850000D01*
X7096309Y16850000D01*
X7329698Y16946673D01*
X7508327Y17125301D01*
X7605000Y17358690D01*
X7605000Y17602871D01*
X7728564Y17561851D01*
X8172968Y17593982D01*
X8434308Y17702232D01*
X8469595Y17915800D01*
X8341710Y18043685D01*
X8403327Y18105301D01*
X8472443Y18272162D01*
X8649200Y18095405D01*
X8862768Y18130692D01*
X9003149Y18553564D01*
X8971018Y18997968D01*
X8862768Y19259308D01*
X8649200Y19294595D01*
X8472443Y19117838D01*
X8403327Y19284699D01*
X8341710Y19346315D01*
X8469595Y19474200D01*
X8434308Y19687768D01*
X8011436Y19828149D01*
X7605000Y19798763D01*
X7605000Y20031310D01*
X7508327Y20264699D01*
X7329698Y20443327D01*
X7096309Y20540000D01*
X4715750Y20540000D01*
X4557000Y20381250D01*
X4303000Y20381250D01*
X4144250Y20540000D01*
X1763691Y20540000D01*
X1530302Y20443327D01*
X1351673Y20264699D01*
X1255000Y20031310D01*
X808152Y20031310D01*
X833870Y24220000D01*
X1242560Y24220000D01*
X1242560Y21930000D01*
X1291843Y21682235D01*
X1432191Y21472191D01*
X1642235Y21331843D01*
X1890000Y21282560D01*
X6970000Y21282560D01*
X7217765Y21331843D01*
X7427809Y21472191D01*
X7568157Y21682235D01*
X7617440Y21930000D01*
X7617440Y22215000D01*
X10393897Y22215000D01*
X11874108Y20623120D01*
X11849222Y20498008D01*
X11898505Y20250243D01*
X12038853Y20040199D01*
X12604539Y19474513D01*
X12814583Y19334165D01*
X12935178Y19310178D01*
X12959165Y19189583D01*
X13099513Y18979539D01*
X13665199Y18413853D01*
X13875243Y18273505D01*
X14115000Y18225815D01*
X14115000Y17864982D01*
X13917191Y17732809D01*
X13776843Y17522765D01*
X13727560Y17275000D01*
X13727560Y16975000D01*
X13761655Y16803589D01*
X13740000Y16751309D01*
X13740000Y16708750D01*
X13888258Y16560492D01*
X13917191Y16517191D01*
X13980334Y16475000D01*
X13917191Y16432809D01*
X13888258Y16389508D01*
X13740000Y16241250D01*
X13740000Y16198691D01*
X13761655Y16146411D01*
X13727560Y15975000D01*
X13727560Y15675000D01*
X13776843Y15427235D01*
X13917191Y15217191D01*
X14115000Y15085018D01*
X14115000Y14722398D01*
X14098008Y14725778D01*
X13850243Y14676495D01*
X13640199Y14536147D01*
X13074513Y13970461D01*
X12934165Y13760417D01*
X12910178Y13639822D01*
X12789583Y13615835D01*
X12579539Y13475487D01*
X12013853Y12909801D01*
X11873505Y12699757D01*
X11824222Y12451992D01*
X11856656Y12288935D01*
X10378222Y10585000D01*
X7617440Y10585000D01*
X7617440Y10995000D01*
X7568157Y11242765D01*
X7427809Y11452809D01*
X7217765Y11593157D01*
X6970000Y11642440D01*
X1890000Y11642440D01*
X1642235Y11593157D01*
X1432191Y11452809D01*
X1291843Y11242765D01*
X1242560Y10995000D01*
X1242560Y8705000D01*
X1291843Y8457235D01*
X1432191Y8247191D01*
X1642235Y8106843D01*
X1890000Y8057560D01*
X6970000Y8057560D01*
X7217765Y8106843D01*
X7427809Y8247191D01*
X7568157Y8457235D01*
X7617440Y8705000D01*
X7617440Y9065000D01*
X10725000Y9065000D01*
X10751706Y9070312D01*
X10778719Y9066901D01*
X10896286Y9099071D01*
X11015839Y9122852D01*
X11038480Y9137980D01*
X11064741Y9145166D01*
X11161047Y9219877D01*
X11262401Y9287599D01*
X11277528Y9310238D01*
X11299042Y9326928D01*
X12990595Y11276489D01*
X13001992Y11274222D01*
X13249757Y11323505D01*
X13459801Y11463853D01*
X14025487Y12029539D01*
X14165835Y12239583D01*
X14189822Y12360178D01*
X14310417Y12384165D01*
X14520461Y12524513D01*
X15086147Y13090199D01*
X15226495Y13300243D01*
X15275778Y13548008D01*
X15258695Y13633893D01*
X15412401Y13787599D01*
X15577148Y14034161D01*
X15635000Y14325000D01*
X15635000Y15085018D01*
X15832809Y15217191D01*
X15973157Y15427235D01*
X15975000Y15436500D01*
X15976843Y15427235D01*
X16117191Y15217191D01*
X16327235Y15076843D01*
X16424013Y15057593D01*
X16537599Y14887599D01*
X21062599Y10362599D01*
X21309160Y10197852D01*
X21600000Y10140000D01*
X34343427Y10140000D01*
X34442191Y9992191D01*
X34652235Y9851843D01*
X34900000Y9802560D01*
X35400000Y9802560D01*
X35647765Y9851843D01*
X35857809Y9992191D01*
X35900000Y10055334D01*
X35942191Y9992191D01*
X36152235Y9851843D01*
X36400000Y9802560D01*
X36900000Y9802560D01*
X37147765Y9851843D01*
X37357809Y9992191D01*
X37439868Y10115000D01*
X38632560Y10115000D01*
X38632560Y9730000D01*
X38681843Y9482235D01*
X38822191Y9272191D01*
X39032235Y9131843D01*
X39280000Y9082560D01*
X44360000Y9082560D01*
X44607765Y9131843D01*
X44817809Y9272191D01*
X44958157Y9482235D01*
X45007440Y9730000D01*
X45007440Y12020000D01*
X44958157Y12267765D01*
X44817809Y12477809D01*
X44607765Y12618157D01*
X44360000Y12667440D01*
X39280000Y12667440D01*
X39032235Y12618157D01*
X38822191Y12477809D01*
X38681843Y12267765D01*
X38632560Y12020000D01*
X38632560Y11635000D01*
X37473277Y11635000D01*
X37357809Y11807809D01*
X37147765Y11948157D01*
X36900000Y11997440D01*
X36400000Y11997440D01*
X36152235Y11948157D01*
X35942191Y11807809D01*
X35900000Y11744666D01*
X35857809Y11807809D01*
X35647765Y11948157D01*
X35400000Y11997440D01*
X34900000Y11997440D01*
X34652235Y11948157D01*
X34442191Y11807809D01*
X34343427Y11660000D01*
X21914802Y11660000D01*
X18585552Y14989250D01*
X26640000Y14989250D01*
X26640000Y14823690D01*
X26736673Y14590301D01*
X26915302Y14411673D01*
X27148691Y14315000D01*
X27589250Y14315000D01*
X27748000Y14473750D01*
X27748000Y15148000D01*
X28002000Y15148000D01*
X28002000Y14473750D01*
X28160750Y14315000D01*
X28601309Y14315000D01*
X28800000Y14397301D01*
X28998691Y14315000D01*
X29819250Y14315000D01*
X29978000Y14473750D01*
X29978000Y15148000D01*
X30232000Y15148000D01*
X30232000Y14473750D01*
X30390750Y14315000D01*
X31211309Y14315000D01*
X31444698Y14411673D01*
X31623327Y14590301D01*
X31720000Y14823690D01*
X31720000Y14989250D01*
X31561250Y15148000D01*
X30232000Y15148000D01*
X29978000Y15148000D01*
X28002000Y15148000D01*
X27748000Y15148000D01*
X26798750Y15148000D01*
X26640000Y14989250D01*
X18585552Y14989250D01*
X18178366Y15396436D01*
X37246851Y15396436D01*
X37278982Y14952032D01*
X37387232Y14690692D01*
X37600800Y14655405D01*
X37777557Y14832162D01*
X37846673Y14665301D01*
X37908290Y14603685D01*
X37780405Y14475800D01*
X37815692Y14262232D01*
X38238564Y14121851D01*
X38645000Y14151237D01*
X38645000Y13918690D01*
X38741673Y13685301D01*
X38920302Y13506673D01*
X39153691Y13410000D01*
X41534250Y13410000D01*
X41693000Y13568750D01*
X41693000Y15128000D01*
X41947000Y15128000D01*
X41947000Y13568750D01*
X42105750Y13410000D01*
X44486309Y13410000D01*
X44719698Y13506673D01*
X44898327Y13685301D01*
X44995000Y13918690D01*
X44995000Y14969250D01*
X44836250Y15128000D01*
X41947000Y15128000D01*
X41693000Y15128000D01*
X41673000Y15128000D01*
X41673000Y15382000D01*
X41693000Y15382000D01*
X41693000Y16941250D01*
X41947000Y16941250D01*
X41947000Y15382000D01*
X44836250Y15382000D01*
X44995000Y15540750D01*
X44995000Y16591310D01*
X44898327Y16824699D01*
X44719698Y17003327D01*
X44486309Y17100000D01*
X42105750Y17100000D01*
X41947000Y16941250D01*
X41693000Y16941250D01*
X41534250Y17100000D01*
X39153691Y17100000D01*
X38920302Y17003327D01*
X38741673Y16824699D01*
X38645000Y16591310D01*
X38645000Y16347129D01*
X38521436Y16388149D01*
X38077032Y16356018D01*
X37815692Y16247768D01*
X37780405Y16034200D01*
X37908290Y15906315D01*
X37846673Y15844699D01*
X37777557Y15677838D01*
X37600800Y15854595D01*
X37387232Y15819308D01*
X37246851Y15396436D01*
X18178366Y15396436D01*
X18162907Y15411895D01*
X18173157Y15427235D01*
X18222440Y15675000D01*
X18222440Y15715000D01*
X26640000Y15715000D01*
X26640000Y15560750D01*
X26798750Y15402000D01*
X27748000Y15402000D01*
X27748000Y15422000D01*
X28002000Y15422000D01*
X28002000Y15402000D01*
X29978000Y15402000D01*
X29978000Y15422000D01*
X30232000Y15422000D01*
X30232000Y15402000D01*
X31561250Y15402000D01*
X31720000Y15560750D01*
X31720000Y15715000D01*
X33000000Y15715000D01*
X33290839Y15772852D01*
X33537401Y15937599D01*
X34112401Y16512599D01*
X34277148Y16759161D01*
X34335000Y17050000D01*
X34335000Y19493541D01*
X34407809Y19542191D01*
X34548157Y19752235D01*
X34597440Y20000000D01*
X34597440Y20736436D01*
X37096851Y20736436D01*
X37128982Y20292032D01*
X37237232Y20030692D01*
X37450800Y19995405D01*
X37627557Y20172162D01*
X37696673Y20005301D01*
X37758290Y19943685D01*
X37630405Y19815800D01*
X37665692Y19602232D01*
X38088564Y19461851D01*
X38495000Y19491237D01*
X38495000Y19258690D01*
X38591673Y19025301D01*
X38770302Y18846673D01*
X39003691Y18750000D01*
X41384250Y18750000D01*
X41543000Y18908750D01*
X41543000Y20468000D01*
X41797000Y20468000D01*
X41797000Y18908750D01*
X41955750Y18750000D01*
X44336309Y18750000D01*
X44569698Y18846673D01*
X44748327Y19025301D01*
X44845000Y19258690D01*
X44845000Y20309250D01*
X44686250Y20468000D01*
X41797000Y20468000D01*
X41543000Y20468000D01*
X41523000Y20468000D01*
X41523000Y20722000D01*
X41543000Y20722000D01*
X41543000Y22281250D01*
X41797000Y22281250D01*
X41797000Y20722000D01*
X44686250Y20722000D01*
X44845000Y20880750D01*
X44845000Y21931310D01*
X44748327Y22164699D01*
X44569698Y22343327D01*
X44336309Y22440000D01*
X41955750Y22440000D01*
X41797000Y22281250D01*
X41543000Y22281250D01*
X41384250Y22440000D01*
X39003691Y22440000D01*
X38770302Y22343327D01*
X38591673Y22164699D01*
X38495000Y21931310D01*
X38495000Y21687129D01*
X38371436Y21728149D01*
X37927032Y21696018D01*
X37665692Y21587768D01*
X37630405Y21374200D01*
X37758290Y21246315D01*
X37696673Y21184699D01*
X37627557Y21017838D01*
X37450800Y21194595D01*
X37237232Y21159308D01*
X37096851Y20736436D01*
X34597440Y20736436D01*
X34597440Y20800000D01*
X34548157Y21047765D01*
X34479845Y21150000D01*
X34548157Y21252235D01*
X34597440Y21500000D01*
X34597440Y22300000D01*
X34548157Y22547765D01*
X34407809Y22757809D01*
X34335000Y22806459D01*
X34335000Y24215000D01*
X38482560Y24215000D01*
X38482560Y23830000D01*
X38531843Y23582235D01*
X38672191Y23372191D01*
X38882235Y23231843D01*
X39130000Y23182560D01*
X44210000Y23182560D01*
X44457765Y23231843D01*
X44667809Y23372191D01*
X44808157Y23582235D01*
X44857440Y23830000D01*
X44857440Y26120000D01*
X44808157Y26367765D01*
X44667809Y26577809D01*
X44457765Y26718157D01*
X44210000Y26767440D01*
X39130000Y26767440D01*
X38882235Y26718157D01*
X38672191Y26577809D01*
X38531843Y26367765D01*
X38482560Y26120000D01*
X38482560Y25735000D01*
X33625000Y25735000D01*
X33334161Y25677148D01*
X33087599Y25512401D01*
X33037599Y25462401D01*
X32872852Y25215839D01*
X32815000Y24925000D01*
X32815000Y22806459D01*
X32742191Y22757809D01*
X32601843Y22547765D01*
X32552560Y22300000D01*
X32552560Y21500000D01*
X32601843Y21252235D01*
X32670155Y21150000D01*
X32601843Y21047765D01*
X32552560Y20800000D01*
X32552560Y20000000D01*
X32601843Y19752235D01*
X32742191Y19542191D01*
X32815000Y19493541D01*
X32815000Y17364802D01*
X32685198Y17235000D01*
X31710000Y17235000D01*
X31710000Y17389250D01*
X31551250Y17548000D01*
X30602000Y17548000D01*
X30602000Y17528000D01*
X30348000Y17528000D01*
X30348000Y17548000D01*
X30328000Y17548000D01*
X30328000Y17802000D01*
X30348000Y17802000D01*
X30348000Y18476250D01*
X30602000Y18476250D01*
X30602000Y17802000D01*
X31551250Y17802000D01*
X31710000Y17960750D01*
X31710000Y18126310D01*
X31613327Y18359699D01*
X31434698Y18538327D01*
X31201309Y18635000D01*
X30760750Y18635000D01*
X30602000Y18476250D01*
X30348000Y18476250D01*
X30189250Y18635000D01*
X29748691Y18635000D01*
X29515302Y18538327D01*
X29336673Y18359699D01*
X29285272Y18235606D01*
X29061741Y18242816D01*
X29013327Y18359699D01*
X28834698Y18538327D01*
X28601309Y18635000D01*
X28160750Y18635000D01*
X28002000Y18476250D01*
X28002000Y17802000D01*
X28022000Y17802000D01*
X28022000Y17548000D01*
X28002000Y17548000D01*
X28002000Y17528000D01*
X27748000Y17528000D01*
X27748000Y17548000D01*
X26798750Y17548000D01*
X26640000Y17389250D01*
X26640000Y17235000D01*
X18222440Y17235000D01*
X18222440Y17275000D01*
X18173157Y17522765D01*
X18032809Y17732809D01*
X17852854Y17853052D01*
X18126112Y18126310D01*
X26640000Y18126310D01*
X26640000Y17960750D01*
X26798750Y17802000D01*
X27748000Y17802000D01*
X27748000Y18476250D01*
X27589250Y18635000D01*
X27148691Y18635000D01*
X26915302Y18538327D01*
X26736673Y18359699D01*
X26640000Y18126310D01*
X18126112Y18126310D01*
X20512401Y20512599D01*
X20633651Y20694063D01*
X20672765Y20701843D01*
X20882809Y20842191D01*
X21023157Y21052235D01*
X21072440Y21300000D01*
X21072440Y21800000D01*
X21023157Y22047765D01*
X20882809Y22257809D01*
X20819666Y22300000D01*
X20882809Y22342191D01*
X21023157Y22552235D01*
X21072440Y22800000D01*
X21072440Y23300000D01*
X21023157Y23547765D01*
X20882809Y23757809D01*
X20710000Y23873277D01*
X20710000Y25082560D01*
X21370000Y25082560D01*
X21617765Y25131843D01*
X21827809Y25272191D01*
X21968157Y25482235D01*
X22017440Y25730000D01*
X22017440Y27984250D01*
X22760000Y27984250D01*
X22760000Y25603691D01*
X22856673Y25370302D01*
X23035301Y25191673D01*
X23268690Y25095000D01*
X23512871Y25095000D01*
X23471851Y24971436D01*
X23503982Y24527032D01*
X23612232Y24265692D01*
X23825800Y24230405D01*
X23953685Y24358290D01*
X24015301Y24296673D01*
X24182162Y24227557D01*
X24005405Y24050800D01*
X24040692Y23837232D01*
X24463564Y23696851D01*
X24907968Y23728982D01*
X25169308Y23837232D01*
X25204595Y24050800D01*
X25027838Y24227557D01*
X25194699Y24296673D01*
X25256315Y24358290D01*
X25384200Y24230405D01*
X25597768Y24265692D01*
X25738149Y24688564D01*
X25708763Y25095000D01*
X25941310Y25095000D01*
X26174699Y25191673D01*
X26353327Y25370302D01*
X26450000Y25603691D01*
X26450000Y27984250D01*
X26291250Y28143000D01*
X24732000Y28143000D01*
X24732000Y28123000D01*
X24478000Y28123000D01*
X24478000Y28143000D01*
X22918750Y28143000D01*
X22760000Y27984250D01*
X22017440Y27984250D01*
X22017440Y30810000D01*
X21992316Y30936309D01*
X22760000Y30936309D01*
X22760000Y28555750D01*
X22918750Y28397000D01*
X24478000Y28397000D01*
X24478000Y31286250D01*
X24732000Y31286250D01*
X24732000Y28397000D01*
X26291250Y28397000D01*
X26450000Y28555750D01*
X26450000Y29496436D01*
X37096851Y29496436D01*
X37128982Y29052032D01*
X37237232Y28790692D01*
X37450800Y28755405D01*
X37627557Y28932162D01*
X37696673Y28765301D01*
X37758290Y28703685D01*
X37630405Y28575800D01*
X37665692Y28362232D01*
X38088564Y28221851D01*
X38495000Y28251237D01*
X38495000Y28018690D01*
X38591673Y27785301D01*
X38770302Y27606673D01*
X39003691Y27510000D01*
X41384250Y27510000D01*
X41543000Y27668750D01*
X41543000Y29228000D01*
X41797000Y29228000D01*
X41797000Y27668750D01*
X41955750Y27510000D01*
X44336309Y27510000D01*
X44569698Y27606673D01*
X44748327Y27785301D01*
X44845000Y28018690D01*
X44845000Y29069250D01*
X44686250Y29228000D01*
X41797000Y29228000D01*
X41543000Y29228000D01*
X41523000Y29228000D01*
X41523000Y29482000D01*
X41543000Y29482000D01*
X41543000Y31041250D01*
X41797000Y31041250D01*
X41797000Y29482000D01*
X44686250Y29482000D01*
X44845000Y29640750D01*
X44845000Y30691310D01*
X44748327Y30924699D01*
X44569698Y31103327D01*
X44336309Y31200000D01*
X41955750Y31200000D01*
X41797000Y31041250D01*
X41543000Y31041250D01*
X41384250Y31200000D01*
X39003691Y31200000D01*
X38770302Y31103327D01*
X38591673Y30924699D01*
X38495000Y30691310D01*
X38495000Y30447129D01*
X38371436Y30488149D01*
X37927032Y30456018D01*
X37665692Y30347768D01*
X37630405Y30134200D01*
X37758290Y30006315D01*
X37696673Y29944699D01*
X37627557Y29777838D01*
X37450800Y29954595D01*
X37237232Y29919308D01*
X37096851Y29496436D01*
X26450000Y29496436D01*
X26450000Y30936309D01*
X26353327Y31169698D01*
X26174699Y31348327D01*
X25941310Y31445000D01*
X24890750Y31445000D01*
X24732000Y31286250D01*
X24478000Y31286250D01*
X24319250Y31445000D01*
X23268690Y31445000D01*
X23035301Y31348327D01*
X22856673Y31169698D01*
X22760000Y30936309D01*
X21992316Y30936309D01*
X21968157Y31057765D01*
X21827809Y31267809D01*
X21617765Y31408157D01*
X21370000Y31457440D01*
X19080000Y31457440D01*
X18832235Y31408157D01*
X18622191Y31267809D01*
X18481843Y31057765D01*
X18432560Y30810000D01*
X18432560Y25730000D01*
X18481843Y25482235D01*
X18622191Y25272191D01*
X18832235Y25131843D01*
X19080000Y25082560D01*
X19190000Y25082560D01*
X19190000Y23839868D01*
X19067191Y23757809D01*
X18926843Y23547765D01*
X18877560Y23300000D01*
X18877560Y22800000D01*
X18926843Y22552235D01*
X19067191Y22342191D01*
X19130334Y22300000D01*
X19067191Y22257809D01*
X18926843Y22047765D01*
X18877560Y21800000D01*
X18877560Y21300000D01*
X18922793Y21072595D01*
X16537599Y18687401D01*
X16372852Y18440839D01*
X16315000Y18150000D01*
X16315000Y17864982D01*
X16117191Y17732809D01*
X15976843Y17522765D01*
X15975000Y17513500D01*
X15973157Y17522765D01*
X15832809Y17732809D01*
X15635000Y17864982D01*
X15635000Y18650000D01*
X15577148Y18940839D01*
X15412401Y19187401D01*
X15283695Y19316107D01*
X15300778Y19401992D01*
X15251495Y19649757D01*
X15111147Y19859801D01*
X14545461Y20425487D01*
X14335417Y20565835D01*
X14214822Y20589822D01*
X14190835Y20710417D01*
X14050487Y20920461D01*
X13484801Y21486147D01*
X13274757Y21626495D01*
X13026992Y21675778D01*
X12979631Y21666357D01*
X11281568Y23492525D01*
X11270194Y23500738D01*
X11262401Y23512401D01*
X11150375Y23587254D01*
X11041153Y23666119D01*
X11027504Y23669353D01*
X11015839Y23677148D01*
X10883692Y23703434D01*
X10752608Y23734498D01*
X10738760Y23732263D01*
X10725000Y23735000D01*
X7617440Y23735000D01*
X7617440Y24220000D01*
X7568157Y24467765D01*
X7427809Y24677809D01*
X7217765Y24818157D01*
X6970000Y24867440D01*
X1890000Y24867440D01*
X1642235Y24818157D01*
X1432191Y24677809D01*
X1291843Y24467765D01*
X1242560Y24220000D01*
X833870Y24220000D01*
X851977Y27169250D01*
X1255000Y27169250D01*
X1255000Y26118690D01*
X1351673Y25885301D01*
X1530302Y25706673D01*
X1763691Y25610000D01*
X4144250Y25610000D01*
X4303000Y25768750D01*
X4303000Y27328000D01*
X1413750Y27328000D01*
X1255000Y27169250D01*
X851977Y27169250D01*
X861936Y28791310D01*
X1255000Y28791310D01*
X1255000Y27740750D01*
X1413750Y27582000D01*
X4303000Y27582000D01*
X4303000Y29141250D01*
X4557000Y29141250D01*
X4557000Y27582000D01*
X4577000Y27582000D01*
X4577000Y27328000D01*
X4557000Y27328000D01*
X4557000Y25768750D01*
X4715750Y25610000D01*
X7096309Y25610000D01*
X7329698Y25706673D01*
X7508327Y25885301D01*
X7605000Y26118690D01*
X7605000Y26362871D01*
X7728564Y26321851D01*
X8172968Y26353982D01*
X8434308Y26462232D01*
X8469595Y26675800D01*
X8341710Y26803685D01*
X8403327Y26865301D01*
X8472443Y27032162D01*
X8649200Y26855405D01*
X8862768Y26890692D01*
X9003149Y27313564D01*
X8971018Y27757968D01*
X8877290Y27984250D01*
X14000000Y27984250D01*
X14000000Y25603691D01*
X14096673Y25370302D01*
X14275301Y25191673D01*
X14508690Y25095000D01*
X14752871Y25095000D01*
X14711851Y24971436D01*
X14743982Y24527032D01*
X14852232Y24265692D01*
X15065800Y24230405D01*
X15193685Y24358290D01*
X15255301Y24296673D01*
X15422162Y24227557D01*
X15245405Y24050800D01*
X15280692Y23837232D01*
X15703564Y23696851D01*
X16147968Y23728982D01*
X16409308Y23837232D01*
X16444595Y24050800D01*
X16267838Y24227557D01*
X16434699Y24296673D01*
X16496315Y24358290D01*
X16624200Y24230405D01*
X16837768Y24265692D01*
X16978149Y24688564D01*
X16948763Y25095000D01*
X17181310Y25095000D01*
X17414699Y25191673D01*
X17593327Y25370302D01*
X17690000Y25603691D01*
X17690000Y27984250D01*
X17531250Y28143000D01*
X15972000Y28143000D01*
X15972000Y28123000D01*
X15718000Y28123000D01*
X15718000Y28143000D01*
X14158750Y28143000D01*
X14000000Y27984250D01*
X8877290Y27984250D01*
X8862768Y28019308D01*
X8649200Y28054595D01*
X8472443Y27877838D01*
X8403327Y28044699D01*
X8341710Y28106315D01*
X8469595Y28234200D01*
X8434308Y28447768D01*
X8011436Y28588149D01*
X7605000Y28558763D01*
X7605000Y28791310D01*
X7508327Y29024699D01*
X7329698Y29203327D01*
X7096309Y29300000D01*
X4715750Y29300000D01*
X4557000Y29141250D01*
X4303000Y29141250D01*
X4144250Y29300000D01*
X1763691Y29300000D01*
X1530302Y29203327D01*
X1351673Y29024699D01*
X1255000Y28791310D01*
X861936Y28791310D01*
X875105Y30936309D01*
X14000000Y30936309D01*
X14000000Y28555750D01*
X14158750Y28397000D01*
X15718000Y28397000D01*
X15718000Y31286250D01*
X15972000Y31286250D01*
X15972000Y28397000D01*
X17531250Y28397000D01*
X17690000Y28555750D01*
X17690000Y30936309D01*
X17593327Y31169698D01*
X17414699Y31348327D01*
X17181310Y31445000D01*
X16130750Y31445000D01*
X15972000Y31286250D01*
X15718000Y31286250D01*
X15559250Y31445000D01*
X14508690Y31445000D01*
X14275301Y31348327D01*
X14096673Y31169698D01*
X14000000Y30936309D01*
X875105Y30936309D01*
X880501Y31815000D01*
X45865000Y31815000D01*
X45865000Y685000D01*
X45865000Y685000D01*
G37*
X45865000Y685000D02*
X2904151Y685000D01*
X689462Y699459D01*
X716997Y5184250D01*
X1255000Y5184250D01*
X1255000Y4133690D01*
X1351673Y3900301D01*
X1530302Y3721673D01*
X1763691Y3625000D01*
X4144250Y3625000D01*
X4303000Y3783750D01*
X4303000Y5343000D01*
X1413750Y5343000D01*
X1255000Y5184250D01*
X716997Y5184250D01*
X726955Y6806310D01*
X1255000Y6806310D01*
X1255000Y5755750D01*
X1413750Y5597000D01*
X4303000Y5597000D01*
X4303000Y7156250D01*
X4557000Y7156250D01*
X4557000Y5597000D01*
X4577000Y5597000D01*
X4577000Y5343000D01*
X4557000Y5343000D01*
X4557000Y3783750D01*
X4715750Y3625000D01*
X7096309Y3625000D01*
X7329698Y3721673D01*
X7508327Y3900301D01*
X7605000Y4133690D01*
X7605000Y4377871D01*
X7728564Y4336851D01*
X8172968Y4368982D01*
X8434308Y4477232D01*
X8469595Y4690800D01*
X8341710Y4818685D01*
X8403327Y4880301D01*
X8472443Y5047162D01*
X8649200Y4870405D01*
X8862768Y4905692D01*
X9003149Y5328564D01*
X8971018Y5772968D01*
X8862768Y6034308D01*
X8649200Y6069595D01*
X8472443Y5892838D01*
X8403327Y6059699D01*
X8341710Y6121315D01*
X8469595Y6249200D01*
X8434308Y6462768D01*
X8011436Y6603149D01*
X7605000Y6573763D01*
X7605000Y6636436D01*
X37246851Y6636436D01*
X37278982Y6192032D01*
X37387232Y5930692D01*
X37600800Y5895405D01*
X37777557Y6072162D01*
X37846673Y5905301D01*
X37908290Y5843685D01*
X37780405Y5715800D01*
X37815692Y5502232D01*
X38238564Y5361851D01*
X38645000Y5391237D01*
X38645000Y5158690D01*
X38741673Y4925301D01*
X38920302Y4746673D01*
X39153691Y4650000D01*
X41534250Y4650000D01*
X41693000Y4808750D01*
X41693000Y6368000D01*
X41947000Y6368000D01*
X41947000Y4808750D01*
X42105750Y4650000D01*
X44486309Y4650000D01*
X44719698Y4746673D01*
X44898327Y4925301D01*
X44995000Y5158690D01*
X44995000Y6209250D01*
X44836250Y6368000D01*
X41947000Y6368000D01*
X41693000Y6368000D01*
X41673000Y6368000D01*
X41673000Y6622000D01*
X41693000Y6622000D01*
X41693000Y8181250D01*
X41947000Y8181250D01*
X41947000Y6622000D01*
X44836250Y6622000D01*
X44995000Y6780750D01*
X44995000Y7831310D01*
X44898327Y8064699D01*
X44719698Y8243327D01*
X44486309Y8340000D01*
X42105750Y8340000D01*
X41947000Y8181250D01*
X41693000Y8181250D01*
X41534250Y8340000D01*
X39153691Y8340000D01*
X38920302Y8243327D01*
X38741673Y8064699D01*
X38645000Y7831310D01*
X38645000Y7587129D01*
X38521436Y7628149D01*
X38077032Y7596018D01*
X37815692Y7487768D01*
X37780405Y7274200D01*
X37908290Y7146315D01*
X37846673Y7084699D01*
X37777557Y6917838D01*
X37600800Y7094595D01*
X37387232Y7059308D01*
X37246851Y6636436D01*
X7605000Y6636436D01*
X7605000Y6806310D01*
X7508327Y7039699D01*
X7329698Y7218327D01*
X7096309Y7315000D01*
X4715750Y7315000D01*
X4557000Y7156250D01*
X4303000Y7156250D01*
X4144250Y7315000D01*
X1763691Y7315000D01*
X1530302Y7218327D01*
X1351673Y7039699D01*
X1255000Y6806310D01*
X726955Y6806310D01*
X770779Y13944250D01*
X1255000Y13944250D01*
X1255000Y12893690D01*
X1351673Y12660301D01*
X1530302Y12481673D01*
X1763691Y12385000D01*
X4144250Y12385000D01*
X4303000Y12543750D01*
X4303000Y14103000D01*
X1413750Y14103000D01*
X1255000Y13944250D01*
X770779Y13944250D01*
X780738Y15566310D01*
X1255000Y15566310D01*
X1255000Y14515750D01*
X1413750Y14357000D01*
X4303000Y14357000D01*
X4303000Y15916250D01*
X4557000Y15916250D01*
X4557000Y14357000D01*
X4577000Y14357000D01*
X4577000Y14103000D01*
X4557000Y14103000D01*
X4557000Y12543750D01*
X4715750Y12385000D01*
X7096309Y12385000D01*
X7329698Y12481673D01*
X7508327Y12660301D01*
X7605000Y12893690D01*
X7605000Y13137871D01*
X7728564Y13096851D01*
X8172968Y13128982D01*
X8434308Y13237232D01*
X8469595Y13450800D01*
X8341710Y13578685D01*
X8403327Y13640301D01*
X8472443Y13807162D01*
X8649200Y13630405D01*
X8862768Y13665692D01*
X9003149Y14088564D01*
X8971018Y14532968D01*
X8862768Y14794308D01*
X8649200Y14829595D01*
X8472443Y14652838D01*
X8403327Y14819699D01*
X8341710Y14881315D01*
X8469595Y15009200D01*
X8434308Y15222768D01*
X8011436Y15363149D01*
X7605000Y15333763D01*
X7605000Y15566310D01*
X7508327Y15799699D01*
X7329698Y15978327D01*
X7096309Y16075000D01*
X4715750Y16075000D01*
X4557000Y15916250D01*
X4303000Y15916250D01*
X4144250Y16075000D01*
X1763691Y16075000D01*
X1530302Y15978327D01*
X1351673Y15799699D01*
X1255000Y15566310D01*
X780738Y15566310D01*
X798193Y18409250D01*
X1255000Y18409250D01*
X1255000Y17358690D01*
X1351673Y17125301D01*
X1530302Y16946673D01*
X1763691Y16850000D01*
X4144250Y16850000D01*
X4303000Y17008750D01*
X4303000Y18568000D01*
X1413750Y18568000D01*
X1255000Y18409250D01*
X798193Y18409250D01*
X808152Y20031310D01*
X1255000Y20031310D01*
X1255000Y18980750D01*
X1413750Y18822000D01*
X4303000Y18822000D01*
X4303000Y20381250D01*
X4557000Y20381250D01*
X4557000Y18822000D01*
X4577000Y18822000D01*
X4577000Y18568000D01*
X4557000Y18568000D01*
X4557000Y17008750D01*
X4715750Y16850000D01*
X7096309Y16850000D01*
X7329698Y16946673D01*
X7508327Y17125301D01*
X7605000Y17358690D01*
X7605000Y17602871D01*
X7728564Y17561851D01*
X8172968Y17593982D01*
X8434308Y17702232D01*
X8469595Y17915800D01*
X8341710Y18043685D01*
X8403327Y18105301D01*
X8472443Y18272162D01*
X8649200Y18095405D01*
X8862768Y18130692D01*
X9003149Y18553564D01*
X8971018Y18997968D01*
X8862768Y19259308D01*
X8649200Y19294595D01*
X8472443Y19117838D01*
X8403327Y19284699D01*
X8341710Y19346315D01*
X8469595Y19474200D01*
X8434308Y19687768D01*
X8011436Y19828149D01*
X7605000Y19798763D01*
X7605000Y20031310D01*
X7508327Y20264699D01*
X7329698Y20443327D01*
X7096309Y20540000D01*
X4715750Y20540000D01*
X4557000Y20381250D01*
X4303000Y20381250D01*
X4144250Y20540000D01*
X1763691Y20540000D01*
X1530302Y20443327D01*
X1351673Y20264699D01*
X1255000Y20031310D01*
X808152Y20031310D01*
X833870Y24220000D01*
X1242560Y24220000D01*
X1242560Y21930000D01*
X1291843Y21682235D01*
X1432191Y21472191D01*
X1642235Y21331843D01*
X1890000Y21282560D01*
X6970000Y21282560D01*
X7217765Y21331843D01*
X7427809Y21472191D01*
X7568157Y21682235D01*
X7617440Y21930000D01*
X7617440Y22215000D01*
X10393897Y22215000D01*
X11874108Y20623120D01*
X11849222Y20498008D01*
X11898505Y20250243D01*
X12038853Y20040199D01*
X12604539Y19474513D01*
X12814583Y19334165D01*
X12935178Y19310178D01*
X12959165Y19189583D01*
X13099513Y18979539D01*
X13665199Y18413853D01*
X13875243Y18273505D01*
X14115000Y18225815D01*
X14115000Y17864982D01*
X13917191Y17732809D01*
X13776843Y17522765D01*
X13727560Y17275000D01*
X13727560Y16975000D01*
X13761655Y16803589D01*
X13740000Y16751309D01*
X13740000Y16708750D01*
X13888258Y16560492D01*
X13917191Y16517191D01*
X13980334Y16475000D01*
X13917191Y16432809D01*
X13888258Y16389508D01*
X13740000Y16241250D01*
X13740000Y16198691D01*
X13761655Y16146411D01*
X13727560Y15975000D01*
X13727560Y15675000D01*
X13776843Y15427235D01*
X13917191Y15217191D01*
X14115000Y15085018D01*
X14115000Y14722398D01*
X14098008Y14725778D01*
X13850243Y14676495D01*
X13640199Y14536147D01*
X13074513Y13970461D01*
X12934165Y13760417D01*
X12910178Y13639822D01*
X12789583Y13615835D01*
X12579539Y13475487D01*
X12013853Y12909801D01*
X11873505Y12699757D01*
X11824222Y12451992D01*
X11856656Y12288935D01*
X10378222Y10585000D01*
X7617440Y10585000D01*
X7617440Y10995000D01*
X7568157Y11242765D01*
X7427809Y11452809D01*
X7217765Y11593157D01*
X6970000Y11642440D01*
X1890000Y11642440D01*
X1642235Y11593157D01*
X1432191Y11452809D01*
X1291843Y11242765D01*
X1242560Y10995000D01*
X1242560Y8705000D01*
X1291843Y8457235D01*
X1432191Y8247191D01*
X1642235Y8106843D01*
X1890000Y8057560D01*
X6970000Y8057560D01*
X7217765Y8106843D01*
X7427809Y8247191D01*
X7568157Y8457235D01*
X7617440Y8705000D01*
X7617440Y9065000D01*
X10725000Y9065000D01*
X10751706Y9070312D01*
X10778719Y9066901D01*
X10896286Y9099071D01*
X11015839Y9122852D01*
X11038480Y9137980D01*
X11064741Y9145166D01*
X11161047Y9219877D01*
X11262401Y9287599D01*
X11277528Y9310238D01*
X11299042Y9326928D01*
X12990595Y11276489D01*
X13001992Y11274222D01*
X13249757Y11323505D01*
X13459801Y11463853D01*
X14025487Y12029539D01*
X14165835Y12239583D01*
X14189822Y12360178D01*
X14310417Y12384165D01*
X14520461Y12524513D01*
X15086147Y13090199D01*
X15226495Y13300243D01*
X15275778Y13548008D01*
X15258695Y13633893D01*
X15412401Y13787599D01*
X15577148Y14034161D01*
X15635000Y14325000D01*
X15635000Y15085018D01*
X15832809Y15217191D01*
X15973157Y15427235D01*
X15975000Y15436500D01*
X15976843Y15427235D01*
X16117191Y15217191D01*
X16327235Y15076843D01*
X16424013Y15057593D01*
X16537599Y14887599D01*
X21062599Y10362599D01*
X21309160Y10197852D01*
X21600000Y10140000D01*
X34343427Y10140000D01*
X34442191Y9992191D01*
X34652235Y9851843D01*
X34900000Y9802560D01*
X35400000Y9802560D01*
X35647765Y9851843D01*
X35857809Y9992191D01*
X35900000Y10055334D01*
X35942191Y9992191D01*
X36152235Y9851843D01*
X36400000Y9802560D01*
X36900000Y9802560D01*
X37147765Y9851843D01*
X37357809Y9992191D01*
X37439868Y10115000D01*
X38632560Y10115000D01*
X38632560Y9730000D01*
X38681843Y9482235D01*
X38822191Y9272191D01*
X39032235Y9131843D01*
X39280000Y9082560D01*
X44360000Y9082560D01*
X44607765Y9131843D01*
X44817809Y9272191D01*
X44958157Y9482235D01*
X45007440Y9730000D01*
X45007440Y12020000D01*
X44958157Y12267765D01*
X44817809Y12477809D01*
X44607765Y12618157D01*
X44360000Y12667440D01*
X39280000Y12667440D01*
X39032235Y12618157D01*
X38822191Y12477809D01*
X38681843Y12267765D01*
X38632560Y12020000D01*
X38632560Y11635000D01*
X37473277Y11635000D01*
X37357809Y11807809D01*
X37147765Y11948157D01*
X36900000Y11997440D01*
X36400000Y11997440D01*
X36152235Y11948157D01*
X35942191Y11807809D01*
X35900000Y11744666D01*
X35857809Y11807809D01*
X35647765Y11948157D01*
X35400000Y11997440D01*
X34900000Y11997440D01*
X34652235Y11948157D01*
X34442191Y11807809D01*
X34343427Y11660000D01*
X21914802Y11660000D01*
X18585552Y14989250D01*
X26640000Y14989250D01*
X26640000Y14823690D01*
X26736673Y14590301D01*
X26915302Y14411673D01*
X27148691Y14315000D01*
X27589250Y14315000D01*
X27748000Y14473750D01*
X27748000Y15148000D01*
X28002000Y15148000D01*
X28002000Y14473750D01*
X28160750Y14315000D01*
X28601309Y14315000D01*
X28800000Y14397301D01*
X28998691Y14315000D01*
X29819250Y14315000D01*
X29978000Y14473750D01*
X29978000Y15148000D01*
X30232000Y15148000D01*
X30232000Y14473750D01*
X30390750Y14315000D01*
X31211309Y14315000D01*
X31444698Y14411673D01*
X31623327Y14590301D01*
X31720000Y14823690D01*
X31720000Y14989250D01*
X31561250Y15148000D01*
X30232000Y15148000D01*
X29978000Y15148000D01*
X28002000Y15148000D01*
X27748000Y15148000D01*
X26798750Y15148000D01*
X26640000Y14989250D01*
X18585552Y14989250D01*
X18178366Y15396436D01*
X37246851Y15396436D01*
X37278982Y14952032D01*
X37387232Y14690692D01*
X37600800Y14655405D01*
X37777557Y14832162D01*
X37846673Y14665301D01*
X37908290Y14603685D01*
X37780405Y14475800D01*
X37815692Y14262232D01*
X38238564Y14121851D01*
X38645000Y14151237D01*
X38645000Y13918690D01*
X38741673Y13685301D01*
X38920302Y13506673D01*
X39153691Y13410000D01*
X41534250Y13410000D01*
X41693000Y13568750D01*
X41693000Y15128000D01*
X41947000Y15128000D01*
X41947000Y13568750D01*
X42105750Y13410000D01*
X44486309Y13410000D01*
X44719698Y13506673D01*
X44898327Y13685301D01*
X44995000Y13918690D01*
X44995000Y14969250D01*
X44836250Y15128000D01*
X41947000Y15128000D01*
X41693000Y15128000D01*
X41673000Y15128000D01*
X41673000Y15382000D01*
X41693000Y15382000D01*
X41693000Y16941250D01*
X41947000Y16941250D01*
X41947000Y15382000D01*
X44836250Y15382000D01*
X44995000Y15540750D01*
X44995000Y16591310D01*
X44898327Y16824699D01*
X44719698Y17003327D01*
X44486309Y17100000D01*
X42105750Y17100000D01*
X41947000Y16941250D01*
X41693000Y16941250D01*
X41534250Y17100000D01*
X39153691Y17100000D01*
X38920302Y17003327D01*
X38741673Y16824699D01*
X38645000Y16591310D01*
X38645000Y16347129D01*
X38521436Y16388149D01*
X38077032Y16356018D01*
X37815692Y16247768D01*
X37780405Y16034200D01*
X37908290Y15906315D01*
X37846673Y15844699D01*
X37777557Y15677838D01*
X37600800Y15854595D01*
X37387232Y15819308D01*
X37246851Y15396436D01*
X18178366Y15396436D01*
X18162907Y15411895D01*
X18173157Y15427235D01*
X18222440Y15675000D01*
X18222440Y15715000D01*
X26640000Y15715000D01*
X26640000Y15560750D01*
X26798750Y15402000D01*
X27748000Y15402000D01*
X27748000Y15422000D01*
X28002000Y15422000D01*
X28002000Y15402000D01*
X29978000Y15402000D01*
X29978000Y15422000D01*
X30232000Y15422000D01*
X30232000Y15402000D01*
X31561250Y15402000D01*
X31720000Y15560750D01*
X31720000Y15715000D01*
X33000000Y15715000D01*
X33290839Y15772852D01*
X33537401Y15937599D01*
X34112401Y16512599D01*
X34277148Y16759161D01*
X34335000Y17050000D01*
X34335000Y19493541D01*
X34407809Y19542191D01*
X34548157Y19752235D01*
X34597440Y20000000D01*
X34597440Y20736436D01*
X37096851Y20736436D01*
X37128982Y20292032D01*
X37237232Y20030692D01*
X37450800Y19995405D01*
X37627557Y20172162D01*
X37696673Y20005301D01*
X37758290Y19943685D01*
X37630405Y19815800D01*
X37665692Y19602232D01*
X38088564Y19461851D01*
X38495000Y19491237D01*
X38495000Y19258690D01*
X38591673Y19025301D01*
X38770302Y18846673D01*
X39003691Y18750000D01*
X41384250Y18750000D01*
X41543000Y18908750D01*
X41543000Y20468000D01*
X41797000Y20468000D01*
X41797000Y18908750D01*
X41955750Y18750000D01*
X44336309Y18750000D01*
X44569698Y18846673D01*
X44748327Y19025301D01*
X44845000Y19258690D01*
X44845000Y20309250D01*
X44686250Y20468000D01*
X41797000Y20468000D01*
X41543000Y20468000D01*
X41523000Y20468000D01*
X41523000Y20722000D01*
X41543000Y20722000D01*
X41543000Y22281250D01*
X41797000Y22281250D01*
X41797000Y20722000D01*
X44686250Y20722000D01*
X44845000Y20880750D01*
X44845000Y21931310D01*
X44748327Y22164699D01*
X44569698Y22343327D01*
X44336309Y22440000D01*
X41955750Y22440000D01*
X41797000Y22281250D01*
X41543000Y22281250D01*
X41384250Y22440000D01*
X39003691Y22440000D01*
X38770302Y22343327D01*
X38591673Y22164699D01*
X38495000Y21931310D01*
X38495000Y21687129D01*
X38371436Y21728149D01*
X37927032Y21696018D01*
X37665692Y21587768D01*
X37630405Y21374200D01*
X37758290Y21246315D01*
X37696673Y21184699D01*
X37627557Y21017838D01*
X37450800Y21194595D01*
X37237232Y21159308D01*
X37096851Y20736436D01*
X34597440Y20736436D01*
X34597440Y20800000D01*
X34548157Y21047765D01*
X34479845Y21150000D01*
X34548157Y21252235D01*
X34597440Y21500000D01*
X34597440Y22300000D01*
X34548157Y22547765D01*
X34407809Y22757809D01*
X34335000Y22806459D01*
X34335000Y24215000D01*
X38482560Y24215000D01*
X38482560Y23830000D01*
X38531843Y23582235D01*
X38672191Y23372191D01*
X38882235Y23231843D01*
X39130000Y23182560D01*
X44210000Y23182560D01*
X44457765Y23231843D01*
X44667809Y23372191D01*
X44808157Y23582235D01*
X44857440Y23830000D01*
X44857440Y26120000D01*
X44808157Y26367765D01*
X44667809Y26577809D01*
X44457765Y26718157D01*
X44210000Y26767440D01*
X39130000Y26767440D01*
X38882235Y26718157D01*
X38672191Y26577809D01*
X38531843Y26367765D01*
X38482560Y26120000D01*
X38482560Y25735000D01*
X33625000Y25735000D01*
X33334161Y25677148D01*
X33087599Y25512401D01*
X33037599Y25462401D01*
X32872852Y25215839D01*
X32815000Y24925000D01*
X32815000Y22806459D01*
X32742191Y22757809D01*
X32601843Y22547765D01*
X32552560Y22300000D01*
X32552560Y21500000D01*
X32601843Y21252235D01*
X32670155Y21150000D01*
X32601843Y21047765D01*
X32552560Y20800000D01*
X32552560Y20000000D01*
X32601843Y19752235D01*
X32742191Y19542191D01*
X32815000Y19493541D01*
X32815000Y17364802D01*
X32685198Y17235000D01*
X31710000Y17235000D01*
X31710000Y17389250D01*
X31551250Y17548000D01*
X30602000Y17548000D01*
X30602000Y17528000D01*
X30348000Y17528000D01*
X30348000Y17548000D01*
X30328000Y17548000D01*
X30328000Y17802000D01*
X30348000Y17802000D01*
X30348000Y18476250D01*
X30602000Y18476250D01*
X30602000Y17802000D01*
X31551250Y17802000D01*
X31710000Y17960750D01*
X31710000Y18126310D01*
X31613327Y18359699D01*
X31434698Y18538327D01*
X31201309Y18635000D01*
X30760750Y18635000D01*
X30602000Y18476250D01*
X30348000Y18476250D01*
X30189250Y18635000D01*
X29748691Y18635000D01*
X29515302Y18538327D01*
X29336673Y18359699D01*
X29285272Y18235606D01*
X29061741Y18242816D01*
X29013327Y18359699D01*
X28834698Y18538327D01*
X28601309Y18635000D01*
X28160750Y18635000D01*
X28002000Y18476250D01*
X28002000Y17802000D01*
X28022000Y17802000D01*
X28022000Y17548000D01*
X28002000Y17548000D01*
X28002000Y17528000D01*
X27748000Y17528000D01*
X27748000Y17548000D01*
X26798750Y17548000D01*
X26640000Y17389250D01*
X26640000Y17235000D01*
X18222440Y17235000D01*
X18222440Y17275000D01*
X18173157Y17522765D01*
X18032809Y17732809D01*
X17852854Y17853052D01*
X18126112Y18126310D01*
X26640000Y18126310D01*
X26640000Y17960750D01*
X26798750Y17802000D01*
X27748000Y17802000D01*
X27748000Y18476250D01*
X27589250Y18635000D01*
X27148691Y18635000D01*
X26915302Y18538327D01*
X26736673Y18359699D01*
X26640000Y18126310D01*
X18126112Y18126310D01*
X20512401Y20512599D01*
X20633651Y20694063D01*
X20672765Y20701843D01*
X20882809Y20842191D01*
X21023157Y21052235D01*
X21072440Y21300000D01*
X21072440Y21800000D01*
X21023157Y22047765D01*
X20882809Y22257809D01*
X20819666Y22300000D01*
X20882809Y22342191D01*
X21023157Y22552235D01*
X21072440Y22800000D01*
X21072440Y23300000D01*
X21023157Y23547765D01*
X20882809Y23757809D01*
X20710000Y23873277D01*
X20710000Y25082560D01*
X21370000Y25082560D01*
X21617765Y25131843D01*
X21827809Y25272191D01*
X21968157Y25482235D01*
X22017440Y25730000D01*
X22017440Y27984250D01*
X22760000Y27984250D01*
X22760000Y25603691D01*
X22856673Y25370302D01*
X23035301Y25191673D01*
X23268690Y25095000D01*
X23512871Y25095000D01*
X23471851Y24971436D01*
X23503982Y24527032D01*
X23612232Y24265692D01*
X23825800Y24230405D01*
X23953685Y24358290D01*
X24015301Y24296673D01*
X24182162Y24227557D01*
X24005405Y24050800D01*
X24040692Y23837232D01*
X24463564Y23696851D01*
X24907968Y23728982D01*
X25169308Y23837232D01*
X25204595Y24050800D01*
X25027838Y24227557D01*
X25194699Y24296673D01*
X25256315Y24358290D01*
X25384200Y24230405D01*
X25597768Y24265692D01*
X25738149Y24688564D01*
X25708763Y25095000D01*
X25941310Y25095000D01*
X26174699Y25191673D01*
X26353327Y25370302D01*
X26450000Y25603691D01*
X26450000Y27984250D01*
X26291250Y28143000D01*
X24732000Y28143000D01*
X24732000Y28123000D01*
X24478000Y28123000D01*
X24478000Y28143000D01*
X22918750Y28143000D01*
X22760000Y27984250D01*
X22017440Y27984250D01*
X22017440Y30810000D01*
X21992316Y30936309D01*
X22760000Y30936309D01*
X22760000Y28555750D01*
X22918750Y28397000D01*
X24478000Y28397000D01*
X24478000Y31286250D01*
X24732000Y31286250D01*
X24732000Y28397000D01*
X26291250Y28397000D01*
X26450000Y28555750D01*
X26450000Y29496436D01*
X37096851Y29496436D01*
X37128982Y29052032D01*
X37237232Y28790692D01*
X37450800Y28755405D01*
X37627557Y28932162D01*
X37696673Y28765301D01*
X37758290Y28703685D01*
X37630405Y28575800D01*
X37665692Y28362232D01*
X38088564Y28221851D01*
X38495000Y28251237D01*
X38495000Y28018690D01*
X38591673Y27785301D01*
X38770302Y27606673D01*
X39003691Y27510000D01*
X41384250Y27510000D01*
X41543000Y27668750D01*
X41543000Y29228000D01*
X41797000Y29228000D01*
X41797000Y27668750D01*
X41955750Y27510000D01*
X44336309Y27510000D01*
X44569698Y27606673D01*
X44748327Y27785301D01*
X44845000Y28018690D01*
X44845000Y29069250D01*
X44686250Y29228000D01*
X41797000Y29228000D01*
X41543000Y29228000D01*
X41523000Y29228000D01*
X41523000Y29482000D01*
X41543000Y29482000D01*
X41543000Y31041250D01*
X41797000Y31041250D01*
X41797000Y29482000D01*
X44686250Y29482000D01*
X44845000Y29640750D01*
X44845000Y30691310D01*
X44748327Y30924699D01*
X44569698Y31103327D01*
X44336309Y31200000D01*
X41955750Y31200000D01*
X41797000Y31041250D01*
X41543000Y31041250D01*
X41384250Y31200000D01*
X39003691Y31200000D01*
X38770302Y31103327D01*
X38591673Y30924699D01*
X38495000Y30691310D01*
X38495000Y30447129D01*
X38371436Y30488149D01*
X37927032Y30456018D01*
X37665692Y30347768D01*
X37630405Y30134200D01*
X37758290Y30006315D01*
X37696673Y29944699D01*
X37627557Y29777838D01*
X37450800Y29954595D01*
X37237232Y29919308D01*
X37096851Y29496436D01*
X26450000Y29496436D01*
X26450000Y30936309D01*
X26353327Y31169698D01*
X26174699Y31348327D01*
X25941310Y31445000D01*
X24890750Y31445000D01*
X24732000Y31286250D01*
X24478000Y31286250D01*
X24319250Y31445000D01*
X23268690Y31445000D01*
X23035301Y31348327D01*
X22856673Y31169698D01*
X22760000Y30936309D01*
X21992316Y30936309D01*
X21968157Y31057765D01*
X21827809Y31267809D01*
X21617765Y31408157D01*
X21370000Y31457440D01*
X19080000Y31457440D01*
X18832235Y31408157D01*
X18622191Y31267809D01*
X18481843Y31057765D01*
X18432560Y30810000D01*
X18432560Y25730000D01*
X18481843Y25482235D01*
X18622191Y25272191D01*
X18832235Y25131843D01*
X19080000Y25082560D01*
X19190000Y25082560D01*
X19190000Y23839868D01*
X19067191Y23757809D01*
X18926843Y23547765D01*
X18877560Y23300000D01*
X18877560Y22800000D01*
X18926843Y22552235D01*
X19067191Y22342191D01*
X19130334Y22300000D01*
X19067191Y22257809D01*
X18926843Y22047765D01*
X18877560Y21800000D01*
X18877560Y21300000D01*
X18922793Y21072595D01*
X16537599Y18687401D01*
X16372852Y18440839D01*
X16315000Y18150000D01*
X16315000Y17864982D01*
X16117191Y17732809D01*
X15976843Y17522765D01*
X15975000Y17513500D01*
X15973157Y17522765D01*
X15832809Y17732809D01*
X15635000Y17864982D01*
X15635000Y18650000D01*
X15577148Y18940839D01*
X15412401Y19187401D01*
X15283695Y19316107D01*
X15300778Y19401992D01*
X15251495Y19649757D01*
X15111147Y19859801D01*
X14545461Y20425487D01*
X14335417Y20565835D01*
X14214822Y20589822D01*
X14190835Y20710417D01*
X14050487Y20920461D01*
X13484801Y21486147D01*
X13274757Y21626495D01*
X13026992Y21675778D01*
X12979631Y21666357D01*
X11281568Y23492525D01*
X11270194Y23500738D01*
X11262401Y23512401D01*
X11150375Y23587254D01*
X11041153Y23666119D01*
X11027504Y23669353D01*
X11015839Y23677148D01*
X10883692Y23703434D01*
X10752608Y23734498D01*
X10738760Y23732263D01*
X10725000Y23735000D01*
X7617440Y23735000D01*
X7617440Y24220000D01*
X7568157Y24467765D01*
X7427809Y24677809D01*
X7217765Y24818157D01*
X6970000Y24867440D01*
X1890000Y24867440D01*
X1642235Y24818157D01*
X1432191Y24677809D01*
X1291843Y24467765D01*
X1242560Y24220000D01*
X833870Y24220000D01*
X851977Y27169250D01*
X1255000Y27169250D01*
X1255000Y26118690D01*
X1351673Y25885301D01*
X1530302Y25706673D01*
X1763691Y25610000D01*
X4144250Y25610000D01*
X4303000Y25768750D01*
X4303000Y27328000D01*
X1413750Y27328000D01*
X1255000Y27169250D01*
X851977Y27169250D01*
X861936Y28791310D01*
X1255000Y28791310D01*
X1255000Y27740750D01*
X1413750Y27582000D01*
X4303000Y27582000D01*
X4303000Y29141250D01*
X4557000Y29141250D01*
X4557000Y27582000D01*
X4577000Y27582000D01*
X4577000Y27328000D01*
X4557000Y27328000D01*
X4557000Y25768750D01*
X4715750Y25610000D01*
X7096309Y25610000D01*
X7329698Y25706673D01*
X7508327Y25885301D01*
X7605000Y26118690D01*
X7605000Y26362871D01*
X7728564Y26321851D01*
X8172968Y26353982D01*
X8434308Y26462232D01*
X8469595Y26675800D01*
X8341710Y26803685D01*
X8403327Y26865301D01*
X8472443Y27032162D01*
X8649200Y26855405D01*
X8862768Y26890692D01*
X9003149Y27313564D01*
X8971018Y27757968D01*
X8877290Y27984250D01*
X14000000Y27984250D01*
X14000000Y25603691D01*
X14096673Y25370302D01*
X14275301Y25191673D01*
X14508690Y25095000D01*
X14752871Y25095000D01*
X14711851Y24971436D01*
X14743982Y24527032D01*
X14852232Y24265692D01*
X15065800Y24230405D01*
X15193685Y24358290D01*
X15255301Y24296673D01*
X15422162Y24227557D01*
X15245405Y24050800D01*
X15280692Y23837232D01*
X15703564Y23696851D01*
X16147968Y23728982D01*
X16409308Y23837232D01*
X16444595Y24050800D01*
X16267838Y24227557D01*
X16434699Y24296673D01*
X16496315Y24358290D01*
X16624200Y24230405D01*
X16837768Y24265692D01*
X16978149Y24688564D01*
X16948763Y25095000D01*
X17181310Y25095000D01*
X17414699Y25191673D01*
X17593327Y25370302D01*
X17690000Y25603691D01*
X17690000Y27984250D01*
X17531250Y28143000D01*
X15972000Y28143000D01*
X15972000Y28123000D01*
X15718000Y28123000D01*
X15718000Y28143000D01*
X14158750Y28143000D01*
X14000000Y27984250D01*
X8877290Y27984250D01*
X8862768Y28019308D01*
X8649200Y28054595D01*
X8472443Y27877838D01*
X8403327Y28044699D01*
X8341710Y28106315D01*
X8469595Y28234200D01*
X8434308Y28447768D01*
X8011436Y28588149D01*
X7605000Y28558763D01*
X7605000Y28791310D01*
X7508327Y29024699D01*
X7329698Y29203327D01*
X7096309Y29300000D01*
X4715750Y29300000D01*
X4557000Y29141250D01*
X4303000Y29141250D01*
X4144250Y29300000D01*
X1763691Y29300000D01*
X1530302Y29203327D01*
X1351673Y29024699D01*
X1255000Y28791310D01*
X861936Y28791310D01*
X875105Y30936309D01*
X14000000Y30936309D01*
X14000000Y28555750D01*
X14158750Y28397000D01*
X15718000Y28397000D01*
X15718000Y31286250D01*
X15972000Y31286250D01*
X15972000Y28397000D01*
X17531250Y28397000D01*
X17690000Y28555750D01*
X17690000Y30936309D01*
X17593327Y31169698D01*
X17414699Y31348327D01*
X17181310Y31445000D01*
X16130750Y31445000D01*
X15972000Y31286250D01*
X15718000Y31286250D01*
X15559250Y31445000D01*
X14508690Y31445000D01*
X14275301Y31348327D01*
X14096673Y31169698D01*
X14000000Y30936309D01*
X875105Y30936309D01*
X880501Y31815000D01*
X45865000Y31815000D01*
X45865000Y685000D01*
%TD*%
M02*
