%TF.GenerationSoftware,KiCad,Pcbnew,(2017-10-17 revision 537804b)-master*%
%TF.CreationDate,2018-07-24T22:51:58+10:00*%
%TF.ProjectId,rf_matching,72665F6D61746368696E672E6B696361,rev?*%
%TF.SameCoordinates,PX8094428PY7b4f620*%
%TF.FileFunction,Copper,L1,Top,Signal*%
%TF.FilePolarity,Positive*%
%FSLAX46Y46*%
G04 Gerber Fmt 4.6, Leading zero omitted, Abs format (unit mm)*
G04 Created by KiCad (PCBNEW (2017-10-17 revision 537804b)-master) date Tuesday, 24 July 2018 'PMt' 22:51:58*
%MOMM*%
%LPD*%
G01*
G04 APERTURE LIST*
%TA.AperFunction,SMDPad,CuDef*%
%ADD10R,5.080000X2.290000*%
%TD*%
%TA.AperFunction,SMDPad,CuDef*%
%ADD11R,5.080000X2.420000*%
%TD*%
%TA.AperFunction,ViaPad*%
%ADD12C,0.970000*%
%TD*%
%TA.AperFunction,Conductor*%
%ADD13R,0.890000X0.460000*%
%TD*%
%TA.AperFunction,SMDPad,CuDef*%
%ADD14R,1.000000X0.300000*%
%TD*%
%TA.AperFunction,SMDPad,CuDef*%
%ADD15R,1.960000X0.650000*%
%TD*%
%TA.AperFunction,SMDPad,CuDef*%
%ADD16R,1.200000X0.650000*%
%TD*%
%TA.AperFunction,SMDPad,CuDef*%
%ADD17R,2.290000X5.080000*%
%TD*%
%TA.AperFunction,SMDPad,CuDef*%
%ADD18R,2.420000X5.080000*%
%TD*%
%TA.AperFunction,Conductor*%
%ADD19R,0.460000X0.890000*%
%TD*%
%TA.AperFunction,SMDPad,CuDef*%
%ADD20R,0.900000X0.500000*%
%TD*%
%TA.AperFunction,SMDPad,CuDef*%
%ADD21R,0.500000X0.900000*%
%TD*%
%TA.AperFunction,SMDPad,CuDef*%
%ADD22R,0.750000X0.800000*%
%TD*%
%TA.AperFunction,SMDPad,CuDef*%
%ADD23C,0.750000*%
%TD*%
%TA.AperFunction,Conductor*%
%ADD24C,0.100000*%
%TD*%
%TA.AperFunction,Conductor*%
%ADD25C,0.250000*%
%TD*%
%TA.AperFunction,Conductor*%
%ADD26C,0.254000*%
%TD*%
G04 APERTURE END LIST*
D10*
%TO.P,J1,1*%
%TO.N,Net-(C2-Pad2)*%
X23505000Y42150000D03*
D11*
%TO.P,J1,2*%
%TO.N,GND*%
X23505000Y46530000D03*
X23505000Y37770000D03*
D12*
%TD*%
%TO.N,GND*%
%TO.C,J1*%
X26945000Y46530000D03*
%TO.N,GND*%
%TO.C,J1*%
X26945000Y37770000D03*
D13*
X26495000Y46530000D03*
X26495000Y37770000D03*
%TD*%
%TO.N,GND*%
%TO.C,J2*%
X26495000Y24545000D03*
X26495000Y33305000D03*
D12*
X26945000Y24545000D03*
X26945000Y33305000D03*
D11*
%TD*%
%TO.P,J2,2*%
%TO.N,GND*%
X23505000Y24545000D03*
%TO.P,J2,2*%
%TO.N,GND*%
X23505000Y33305000D03*
D10*
%TO.P,J2,1*%
%TO.N,Net-(C3-Pad2)*%
X23505000Y28925000D03*
%TD*%
%TO.P,J3,1*%
%TO.N,Net-(J3-Pad1)*%
X60895000Y29950000D03*
D11*
%TO.P,J3,2*%
%TO.N,GND*%
X60895000Y25570000D03*
X60895000Y34330000D03*
D12*
%TD*%
%TO.N,GND*%
%TO.C,J3*%
X57455000Y25570000D03*
%TO.N,GND*%
%TO.C,J3*%
X57455000Y34330000D03*
D13*
X57905000Y25570000D03*
X57905000Y34330000D03*
%TD*%
%TO.N,GND*%
%TO.C,J4*%
X57755000Y48430000D03*
X57755000Y39670000D03*
D12*
X57305000Y48430000D03*
X57305000Y39670000D03*
D11*
%TD*%
%TO.P,J4,2*%
%TO.N,GND*%
X60745000Y48430000D03*
%TO.P,J4,2*%
%TO.N,GND*%
X60745000Y39670000D03*
D10*
%TO.P,J4,1*%
%TO.N,Net-(C1-Pad1)*%
X60745000Y44050000D03*
%TD*%
D14*
%TO.P,U1,1*%
%TO.N,Net-(C2-Pad1)*%
X33950000Y36200000D03*
%TO.P,U1,2*%
%TO.N,GND*%
X33950000Y35550000D03*
%TO.P,U1,3*%
%TO.N,Net-(C3-Pad1)*%
X33950000Y34900000D03*
%TO.P,U1,4*%
%TO.N,Net-(R2-Pad2)*%
X36150000Y34900000D03*
%TO.P,U1,5*%
%TO.N,Net-(U1-Pad5)*%
X36150000Y35550000D03*
%TO.P,U1,6*%
%TO.N,Net-(R1-Pad1)*%
X36150000Y36200000D03*
%TD*%
D15*
%TO.P,U2,1*%
%TO.N,GND*%
X49180000Y34350000D03*
D16*
%TO.P,U2,2*%
%TO.N,Net-(C1-Pad2)*%
X49550000Y35550000D03*
%TO.P,U2,3*%
%TO.N,GND*%
X49550000Y36750000D03*
%TO.P,U2,4*%
X46950000Y36750000D03*
%TO.P,U2,5*%
%TO.N,Net-(U1-Pad5)*%
X46950000Y35550000D03*
%TO.P,U2,6*%
%TO.N,GND*%
X46950000Y34350000D03*
%TD*%
D17*
%TO.P,J5,1*%
%TO.N,Net-(J5-Pad1)*%
X39300000Y47345000D03*
D18*
%TO.P,J5,2*%
%TO.N,GND*%
X43680000Y47345000D03*
X34920000Y47345000D03*
D12*
%TD*%
%TO.N,GND*%
%TO.C,J5*%
X43680000Y43905000D03*
%TO.N,GND*%
%TO.C,J5*%
X34920000Y43905000D03*
D19*
X43680000Y44355000D03*
X34920000Y44355000D03*
%TD*%
D20*
%TO.P,R1,2*%
%TO.N,Net-(J5-Pad1)*%
X39050000Y42125000D03*
%TO.P,R1,1*%
%TO.N,Net-(R1-Pad1)*%
X39050000Y40625000D03*
%TD*%
D21*
%TO.P,R2,1*%
%TO.N,Net-(J3-Pad1)*%
X55725000Y29975000D03*
%TO.P,R2,2*%
%TO.N,Net-(R2-Pad2)*%
X54225000Y29975000D03*
%TD*%
D22*
%TO.P,C1,2*%
%TO.N,Net-(C1-Pad2)*%
X52650000Y39475000D03*
%TO.P,C1,1*%
%TO.N,Net-(C1-Pad1)*%
X52650000Y40975000D03*
%TD*%
D23*
%TO.P,C2,2*%
%TO.N,Net-(C2-Pad2)*%
X32119670Y39555330D03*
D24*
%TD*%
%TO.N,Net-(C2-Pad2)*%
%TO.C,C2*%
G36*
X32667678Y39537652D02*
X32137348Y39007322D01*
X31571662Y39573008D01*
X32101992Y40103338D01*
X32667678Y39537652D01*
X32667678Y39537652D01*
G37*
D23*
%TO.P,C2,1*%
%TO.N,Net-(C2-Pad1)*%
X33180330Y38494670D03*
D24*
%TD*%
%TO.N,Net-(C2-Pad1)*%
%TO.C,C2*%
G36*
X33728338Y38476992D02*
X33198008Y37946662D01*
X32632322Y38512348D01*
X33162652Y39042678D01*
X33728338Y38476992D01*
X33728338Y38476992D01*
G37*
D23*
%TO.P,C3,1*%
%TO.N,Net-(C3-Pad1)*%
X33155330Y32605330D03*
D24*
%TD*%
%TO.N,Net-(C3-Pad1)*%
%TO.C,C3*%
G36*
X33173008Y33153338D02*
X33703338Y32623008D01*
X33137652Y32057322D01*
X32607322Y32587652D01*
X33173008Y33153338D01*
X33173008Y33153338D01*
G37*
D23*
%TO.P,C3,2*%
%TO.N,Net-(C3-Pad2)*%
X32094670Y31544670D03*
D24*
%TD*%
%TO.N,Net-(C3-Pad2)*%
%TO.C,C3*%
G36*
X32112348Y32092678D02*
X32642678Y31562348D01*
X32076992Y30996662D01*
X31546662Y31526992D01*
X32112348Y32092678D01*
X32112348Y32092678D01*
G37*
D25*
%TO.N,GND*%
X43680000Y43905000D02*
X43680000Y47345000D01*
X34920000Y43905000D02*
X34920000Y47345000D01*
X43430000Y45105000D02*
X43430000Y48545000D01*
X34670000Y45105000D02*
X34670000Y48545000D01*
X33950000Y35550000D02*
X28390000Y35550000D01*
X22755000Y33305000D02*
X25545000Y33305000D01*
X25545000Y33305000D02*
X26195000Y33305000D01*
X22755000Y24545000D02*
X25545000Y24545000D01*
X25545000Y24545000D02*
X26195000Y24545000D01*
%TO.N,Net-(J3-Pad1)*%
X60895000Y29950000D02*
X55750000Y29950000D01*
X55750000Y29950000D02*
X55725000Y29975000D01*
%TO.N,Net-(U1-Pad5)*%
X36150000Y35550000D02*
X46950000Y35550000D01*
%TO.N,Net-(J5-Pad1)*%
X39025000Y47370000D02*
X39025000Y42150000D01*
%TO.N,Net-(R1-Pad1)*%
X36150000Y36200000D02*
X36150000Y37225000D01*
X36150000Y37225000D02*
X39050000Y40125000D01*
X39050000Y40125000D02*
X39050000Y40625000D01*
%TO.N,Net-(R2-Pad2)*%
X54225000Y29975000D02*
X40675000Y29975000D01*
X40675000Y29975000D02*
X36150000Y34500000D01*
X36150000Y34500000D02*
X36150000Y34900000D01*
%TO.N,Net-(C1-Pad2)*%
X49550000Y35550000D02*
X52075000Y35550000D01*
X52075000Y35550000D02*
X52650000Y36125000D01*
X52650000Y36125000D02*
X52650000Y39475000D01*
%TO.N,Net-(C2-Pad2)*%
X29800000Y42050000D02*
X32119670Y39555330D01*
%TO.N,Net-(C2-Pad1)*%
X33180330Y38494670D02*
X33950000Y37725000D01*
X33950000Y37725000D02*
X33950000Y36200000D01*
%TO.N,Net-(C3-Pad1)*%
X33950000Y33400000D02*
X33950000Y34900000D01*
X33155330Y32605330D02*
X33950000Y33400000D01*
%TO.N,Net-(C3-Pad2)*%
X29800000Y28900000D02*
X32094670Y31544670D01*
X29800000Y28900000D02*
X22855000Y28900000D01*
%TO.N,Net-(C2-Pad2)*%
X29800000Y42050000D02*
X22830000Y42050000D01*
%TO.N,GND*%
X22830000Y37670000D02*
X26270000Y37670000D01*
X22830000Y46430000D02*
X26270000Y46430000D01*
X60695000Y48205000D02*
X57255000Y48205000D01*
X60695000Y39445000D02*
X57255000Y39445000D01*
X60570000Y34105000D02*
X57130000Y34105000D01*
X60570000Y25345000D02*
X57130000Y25345000D01*
%TO.N,Net-(J5-Pad1)*%
X39025000Y42150000D02*
X39050000Y42125000D01*
%TO.N,Net-(C1-Pad1)*%
X52650000Y40975000D02*
X52650000Y44000000D01*
X52650000Y44000000D02*
X52700000Y44050000D01*
X52700000Y44050000D02*
X60745000Y44050000D01*
%TD*%
D26*
%TO.N,GND*%
G36*
X64940000Y19760000D02*
X21979151Y19760000D01*
X19764462Y19774459D01*
X19791997Y24259250D01*
X20330000Y24259250D01*
X20330000Y23208690D01*
X20426673Y22975301D01*
X20605302Y22796673D01*
X20838691Y22700000D01*
X23219250Y22700000D01*
X23378000Y22858750D01*
X23378000Y24418000D01*
X20488750Y24418000D01*
X20330000Y24259250D01*
X19791997Y24259250D01*
X19801955Y25881310D01*
X20330000Y25881310D01*
X20330000Y24830750D01*
X20488750Y24672000D01*
X23378000Y24672000D01*
X23378000Y26231250D01*
X23632000Y26231250D01*
X23632000Y24672000D01*
X23652000Y24672000D01*
X23652000Y24418000D01*
X23632000Y24418000D01*
X23632000Y22858750D01*
X23790750Y22700000D01*
X26171309Y22700000D01*
X26404698Y22796673D01*
X26583327Y22975301D01*
X26680000Y23208690D01*
X26680000Y23452871D01*
X26803564Y23411851D01*
X27247968Y23443982D01*
X27509308Y23552232D01*
X27544595Y23765800D01*
X27416710Y23893685D01*
X27478327Y23955301D01*
X27547443Y24122162D01*
X27724200Y23945405D01*
X27937768Y23980692D01*
X28078149Y24403564D01*
X28046018Y24847968D01*
X27937768Y25109308D01*
X27724200Y25144595D01*
X27547443Y24967838D01*
X27478327Y25134699D01*
X27416710Y25196315D01*
X27544595Y25324200D01*
X27509308Y25537768D01*
X27086436Y25678149D01*
X26680000Y25648763D01*
X26680000Y25711436D01*
X56321851Y25711436D01*
X56353982Y25267032D01*
X56462232Y25005692D01*
X56675800Y24970405D01*
X56852557Y25147162D01*
X56921673Y24980301D01*
X56983290Y24918685D01*
X56855405Y24790800D01*
X56890692Y24577232D01*
X57313564Y24436851D01*
X57720000Y24466237D01*
X57720000Y24233690D01*
X57816673Y24000301D01*
X57995302Y23821673D01*
X58228691Y23725000D01*
X60609250Y23725000D01*
X60768000Y23883750D01*
X60768000Y25443000D01*
X61022000Y25443000D01*
X61022000Y23883750D01*
X61180750Y23725000D01*
X63561309Y23725000D01*
X63794698Y23821673D01*
X63973327Y24000301D01*
X64070000Y24233690D01*
X64070000Y25284250D01*
X63911250Y25443000D01*
X61022000Y25443000D01*
X60768000Y25443000D01*
X60748000Y25443000D01*
X60748000Y25697000D01*
X60768000Y25697000D01*
X60768000Y27256250D01*
X61022000Y27256250D01*
X61022000Y25697000D01*
X63911250Y25697000D01*
X64070000Y25855750D01*
X64070000Y26906310D01*
X63973327Y27139699D01*
X63794698Y27318327D01*
X63561309Y27415000D01*
X61180750Y27415000D01*
X61022000Y27256250D01*
X60768000Y27256250D01*
X60609250Y27415000D01*
X58228691Y27415000D01*
X57995302Y27318327D01*
X57816673Y27139699D01*
X57720000Y26906310D01*
X57720000Y26662129D01*
X57596436Y26703149D01*
X57152032Y26671018D01*
X56890692Y26562768D01*
X56855405Y26349200D01*
X56983290Y26221315D01*
X56921673Y26159699D01*
X56852557Y25992838D01*
X56675800Y26169595D01*
X56462232Y26134308D01*
X56321851Y25711436D01*
X26680000Y25711436D01*
X26680000Y25881310D01*
X26583327Y26114699D01*
X26404698Y26293327D01*
X26171309Y26390000D01*
X23790750Y26390000D01*
X23632000Y26231250D01*
X23378000Y26231250D01*
X23219250Y26390000D01*
X20838691Y26390000D01*
X20605302Y26293327D01*
X20426673Y26114699D01*
X20330000Y25881310D01*
X19801955Y25881310D01*
X19845779Y33019250D01*
X20330000Y33019250D01*
X20330000Y31968690D01*
X20426673Y31735301D01*
X20605302Y31556673D01*
X20838691Y31460000D01*
X23219250Y31460000D01*
X23378000Y31618750D01*
X23378000Y33178000D01*
X20488750Y33178000D01*
X20330000Y33019250D01*
X19845779Y33019250D01*
X19855738Y34641310D01*
X20330000Y34641310D01*
X20330000Y33590750D01*
X20488750Y33432000D01*
X23378000Y33432000D01*
X23378000Y34991250D01*
X23632000Y34991250D01*
X23632000Y33432000D01*
X23652000Y33432000D01*
X23652000Y33178000D01*
X23632000Y33178000D01*
X23632000Y31618750D01*
X23790750Y31460000D01*
X26171309Y31460000D01*
X26404698Y31556673D01*
X26583327Y31735301D01*
X26680000Y31968690D01*
X26680000Y32212871D01*
X26803564Y32171851D01*
X27247968Y32203982D01*
X27509308Y32312232D01*
X27544595Y32525800D01*
X27416710Y32653685D01*
X27478327Y32715301D01*
X27547443Y32882162D01*
X27724200Y32705405D01*
X27937768Y32740692D01*
X28078149Y33163564D01*
X28046018Y33607968D01*
X27937768Y33869308D01*
X27724200Y33904595D01*
X27547443Y33727838D01*
X27478327Y33894699D01*
X27416710Y33956315D01*
X27544595Y34084200D01*
X27509308Y34297768D01*
X27086436Y34438149D01*
X26680000Y34408763D01*
X26680000Y34641310D01*
X26583327Y34874699D01*
X26404698Y35053327D01*
X26171309Y35150000D01*
X23790750Y35150000D01*
X23632000Y34991250D01*
X23378000Y34991250D01*
X23219250Y35150000D01*
X20838691Y35150000D01*
X20605302Y35053327D01*
X20426673Y34874699D01*
X20330000Y34641310D01*
X19855738Y34641310D01*
X19873193Y37484250D01*
X20330000Y37484250D01*
X20330000Y36433690D01*
X20426673Y36200301D01*
X20605302Y36021673D01*
X20838691Y35925000D01*
X23219250Y35925000D01*
X23378000Y36083750D01*
X23378000Y37643000D01*
X20488750Y37643000D01*
X20330000Y37484250D01*
X19873193Y37484250D01*
X19883152Y39106310D01*
X20330000Y39106310D01*
X20330000Y38055750D01*
X20488750Y37897000D01*
X23378000Y37897000D01*
X23378000Y39456250D01*
X23632000Y39456250D01*
X23632000Y37897000D01*
X23652000Y37897000D01*
X23652000Y37643000D01*
X23632000Y37643000D01*
X23632000Y36083750D01*
X23790750Y35925000D01*
X26171309Y35925000D01*
X26404698Y36021673D01*
X26583327Y36200301D01*
X26680000Y36433690D01*
X26680000Y36677871D01*
X26803564Y36636851D01*
X27247968Y36668982D01*
X27509308Y36777232D01*
X27544595Y36990800D01*
X27416710Y37118685D01*
X27478327Y37180301D01*
X27547443Y37347162D01*
X27724200Y37170405D01*
X27937768Y37205692D01*
X28078149Y37628564D01*
X28046018Y38072968D01*
X27937768Y38334308D01*
X27724200Y38369595D01*
X27547443Y38192838D01*
X27478327Y38359699D01*
X27416710Y38421315D01*
X27544595Y38549200D01*
X27509308Y38762768D01*
X27086436Y38903149D01*
X26680000Y38873763D01*
X26680000Y39106310D01*
X26583327Y39339699D01*
X26404698Y39518327D01*
X26171309Y39615000D01*
X23790750Y39615000D01*
X23632000Y39456250D01*
X23378000Y39456250D01*
X23219250Y39615000D01*
X20838691Y39615000D01*
X20605302Y39518327D01*
X20426673Y39339699D01*
X20330000Y39106310D01*
X19883152Y39106310D01*
X19908870Y43295000D01*
X20317560Y43295000D01*
X20317560Y41005000D01*
X20366843Y40757235D01*
X20507191Y40547191D01*
X20717235Y40406843D01*
X20965000Y40357560D01*
X26045000Y40357560D01*
X26292765Y40406843D01*
X26502809Y40547191D01*
X26643157Y40757235D01*
X26692440Y41005000D01*
X26692440Y41290000D01*
X29468897Y41290000D01*
X30949108Y39698120D01*
X30924222Y39573008D01*
X30973505Y39325243D01*
X31113853Y39115199D01*
X31679539Y38549513D01*
X31889583Y38409165D01*
X32010178Y38385178D01*
X32034165Y38264583D01*
X32174513Y38054539D01*
X32740199Y37488853D01*
X32950243Y37348505D01*
X33190000Y37300815D01*
X33190000Y36939982D01*
X32992191Y36807809D01*
X32851843Y36597765D01*
X32802560Y36350000D01*
X32802560Y36050000D01*
X32836655Y35878589D01*
X32815000Y35826309D01*
X32815000Y35783750D01*
X32963258Y35635492D01*
X32992191Y35592191D01*
X33055334Y35550000D01*
X32992191Y35507809D01*
X32963258Y35464508D01*
X32815000Y35316250D01*
X32815000Y35273691D01*
X32836655Y35221411D01*
X32802560Y35050000D01*
X32802560Y34750000D01*
X32851843Y34502235D01*
X32992191Y34292191D01*
X33190000Y34160018D01*
X33190000Y33797398D01*
X33173008Y33800778D01*
X32925243Y33751495D01*
X32715199Y33611147D01*
X32149513Y33045461D01*
X32009165Y32835417D01*
X31985178Y32714822D01*
X31864583Y32690835D01*
X31654539Y32550487D01*
X31088853Y31984801D01*
X30948505Y31774757D01*
X30899222Y31526992D01*
X30931656Y31363935D01*
X29453222Y29660000D01*
X26692440Y29660000D01*
X26692440Y30070000D01*
X26643157Y30317765D01*
X26502809Y30527809D01*
X26292765Y30668157D01*
X26045000Y30717440D01*
X20965000Y30717440D01*
X20717235Y30668157D01*
X20507191Y30527809D01*
X20366843Y30317765D01*
X20317560Y30070000D01*
X20317560Y27780000D01*
X20366843Y27532235D01*
X20507191Y27322191D01*
X20717235Y27181843D01*
X20965000Y27132560D01*
X26045000Y27132560D01*
X26292765Y27181843D01*
X26502809Y27322191D01*
X26643157Y27532235D01*
X26692440Y27780000D01*
X26692440Y28140000D01*
X29800000Y28140000D01*
X29826706Y28145312D01*
X29853719Y28141901D01*
X29971286Y28174071D01*
X30090839Y28197852D01*
X30113480Y28212980D01*
X30139741Y28220166D01*
X30236047Y28294877D01*
X30337401Y28362599D01*
X30352528Y28385238D01*
X30374042Y28401928D01*
X32065595Y30351489D01*
X32076992Y30349222D01*
X32324757Y30398505D01*
X32534801Y30538853D01*
X33100487Y31104539D01*
X33240835Y31314583D01*
X33264822Y31435178D01*
X33385417Y31459165D01*
X33595461Y31599513D01*
X34161147Y32165199D01*
X34301495Y32375243D01*
X34350778Y32623008D01*
X34333695Y32708893D01*
X34487401Y32862599D01*
X34652148Y33109161D01*
X34710000Y33400000D01*
X34710000Y34160018D01*
X34907809Y34292191D01*
X35048157Y34502235D01*
X35050000Y34511500D01*
X35051843Y34502235D01*
X35192191Y34292191D01*
X35402235Y34151843D01*
X35499013Y34132593D01*
X35612599Y33962599D01*
X40137599Y29437599D01*
X40384160Y29272852D01*
X40675000Y29215000D01*
X53418427Y29215000D01*
X53517191Y29067191D01*
X53727235Y28926843D01*
X53975000Y28877560D01*
X54475000Y28877560D01*
X54722765Y28926843D01*
X54932809Y29067191D01*
X54975000Y29130334D01*
X55017191Y29067191D01*
X55227235Y28926843D01*
X55475000Y28877560D01*
X55975000Y28877560D01*
X56222765Y28926843D01*
X56432809Y29067191D01*
X56514868Y29190000D01*
X57707560Y29190000D01*
X57707560Y28805000D01*
X57756843Y28557235D01*
X57897191Y28347191D01*
X58107235Y28206843D01*
X58355000Y28157560D01*
X63435000Y28157560D01*
X63682765Y28206843D01*
X63892809Y28347191D01*
X64033157Y28557235D01*
X64082440Y28805000D01*
X64082440Y31095000D01*
X64033157Y31342765D01*
X63892809Y31552809D01*
X63682765Y31693157D01*
X63435000Y31742440D01*
X58355000Y31742440D01*
X58107235Y31693157D01*
X57897191Y31552809D01*
X57756843Y31342765D01*
X57707560Y31095000D01*
X57707560Y30710000D01*
X56548277Y30710000D01*
X56432809Y30882809D01*
X56222765Y31023157D01*
X55975000Y31072440D01*
X55475000Y31072440D01*
X55227235Y31023157D01*
X55017191Y30882809D01*
X54975000Y30819666D01*
X54932809Y30882809D01*
X54722765Y31023157D01*
X54475000Y31072440D01*
X53975000Y31072440D01*
X53727235Y31023157D01*
X53517191Y30882809D01*
X53418427Y30735000D01*
X40989802Y30735000D01*
X37660552Y34064250D01*
X45715000Y34064250D01*
X45715000Y33898690D01*
X45811673Y33665301D01*
X45990302Y33486673D01*
X46223691Y33390000D01*
X46664250Y33390000D01*
X46823000Y33548750D01*
X46823000Y34223000D01*
X47077000Y34223000D01*
X47077000Y33548750D01*
X47235750Y33390000D01*
X47676309Y33390000D01*
X47875000Y33472301D01*
X48073691Y33390000D01*
X48894250Y33390000D01*
X49053000Y33548750D01*
X49053000Y34223000D01*
X49307000Y34223000D01*
X49307000Y33548750D01*
X49465750Y33390000D01*
X50286309Y33390000D01*
X50519698Y33486673D01*
X50698327Y33665301D01*
X50795000Y33898690D01*
X50795000Y34064250D01*
X50636250Y34223000D01*
X49307000Y34223000D01*
X49053000Y34223000D01*
X47077000Y34223000D01*
X46823000Y34223000D01*
X45873750Y34223000D01*
X45715000Y34064250D01*
X37660552Y34064250D01*
X37253366Y34471436D01*
X56321851Y34471436D01*
X56353982Y34027032D01*
X56462232Y33765692D01*
X56675800Y33730405D01*
X56852557Y33907162D01*
X56921673Y33740301D01*
X56983290Y33678685D01*
X56855405Y33550800D01*
X56890692Y33337232D01*
X57313564Y33196851D01*
X57720000Y33226237D01*
X57720000Y32993690D01*
X57816673Y32760301D01*
X57995302Y32581673D01*
X58228691Y32485000D01*
X60609250Y32485000D01*
X60768000Y32643750D01*
X60768000Y34203000D01*
X61022000Y34203000D01*
X61022000Y32643750D01*
X61180750Y32485000D01*
X63561309Y32485000D01*
X63794698Y32581673D01*
X63973327Y32760301D01*
X64070000Y32993690D01*
X64070000Y34044250D01*
X63911250Y34203000D01*
X61022000Y34203000D01*
X60768000Y34203000D01*
X60748000Y34203000D01*
X60748000Y34457000D01*
X60768000Y34457000D01*
X60768000Y36016250D01*
X61022000Y36016250D01*
X61022000Y34457000D01*
X63911250Y34457000D01*
X64070000Y34615750D01*
X64070000Y35666310D01*
X63973327Y35899699D01*
X63794698Y36078327D01*
X63561309Y36175000D01*
X61180750Y36175000D01*
X61022000Y36016250D01*
X60768000Y36016250D01*
X60609250Y36175000D01*
X58228691Y36175000D01*
X57995302Y36078327D01*
X57816673Y35899699D01*
X57720000Y35666310D01*
X57720000Y35422129D01*
X57596436Y35463149D01*
X57152032Y35431018D01*
X56890692Y35322768D01*
X56855405Y35109200D01*
X56983290Y34981315D01*
X56921673Y34919699D01*
X56852557Y34752838D01*
X56675800Y34929595D01*
X56462232Y34894308D01*
X56321851Y34471436D01*
X37253366Y34471436D01*
X37237907Y34486895D01*
X37248157Y34502235D01*
X37297440Y34750000D01*
X37297440Y34790000D01*
X45715000Y34790000D01*
X45715000Y34635750D01*
X45873750Y34477000D01*
X46823000Y34477000D01*
X46823000Y34497000D01*
X47077000Y34497000D01*
X47077000Y34477000D01*
X49053000Y34477000D01*
X49053000Y34497000D01*
X49307000Y34497000D01*
X49307000Y34477000D01*
X50636250Y34477000D01*
X50795000Y34635750D01*
X50795000Y34790000D01*
X52075000Y34790000D01*
X52365839Y34847852D01*
X52612401Y35012599D01*
X53187401Y35587599D01*
X53352148Y35834161D01*
X53410000Y36125000D01*
X53410000Y38568541D01*
X53482809Y38617191D01*
X53623157Y38827235D01*
X53672440Y39075000D01*
X53672440Y39811436D01*
X56171851Y39811436D01*
X56203982Y39367032D01*
X56312232Y39105692D01*
X56525800Y39070405D01*
X56702557Y39247162D01*
X56771673Y39080301D01*
X56833290Y39018685D01*
X56705405Y38890800D01*
X56740692Y38677232D01*
X57163564Y38536851D01*
X57570000Y38566237D01*
X57570000Y38333690D01*
X57666673Y38100301D01*
X57845302Y37921673D01*
X58078691Y37825000D01*
X60459250Y37825000D01*
X60618000Y37983750D01*
X60618000Y39543000D01*
X60872000Y39543000D01*
X60872000Y37983750D01*
X61030750Y37825000D01*
X63411309Y37825000D01*
X63644698Y37921673D01*
X63823327Y38100301D01*
X63920000Y38333690D01*
X63920000Y39384250D01*
X63761250Y39543000D01*
X60872000Y39543000D01*
X60618000Y39543000D01*
X60598000Y39543000D01*
X60598000Y39797000D01*
X60618000Y39797000D01*
X60618000Y41356250D01*
X60872000Y41356250D01*
X60872000Y39797000D01*
X63761250Y39797000D01*
X63920000Y39955750D01*
X63920000Y41006310D01*
X63823327Y41239699D01*
X63644698Y41418327D01*
X63411309Y41515000D01*
X61030750Y41515000D01*
X60872000Y41356250D01*
X60618000Y41356250D01*
X60459250Y41515000D01*
X58078691Y41515000D01*
X57845302Y41418327D01*
X57666673Y41239699D01*
X57570000Y41006310D01*
X57570000Y40762129D01*
X57446436Y40803149D01*
X57002032Y40771018D01*
X56740692Y40662768D01*
X56705405Y40449200D01*
X56833290Y40321315D01*
X56771673Y40259699D01*
X56702557Y40092838D01*
X56525800Y40269595D01*
X56312232Y40234308D01*
X56171851Y39811436D01*
X53672440Y39811436D01*
X53672440Y39875000D01*
X53623157Y40122765D01*
X53554845Y40225000D01*
X53623157Y40327235D01*
X53672440Y40575000D01*
X53672440Y41375000D01*
X53623157Y41622765D01*
X53482809Y41832809D01*
X53410000Y41881459D01*
X53410000Y43290000D01*
X57557560Y43290000D01*
X57557560Y42905000D01*
X57606843Y42657235D01*
X57747191Y42447191D01*
X57957235Y42306843D01*
X58205000Y42257560D01*
X63285000Y42257560D01*
X63532765Y42306843D01*
X63742809Y42447191D01*
X63883157Y42657235D01*
X63932440Y42905000D01*
X63932440Y45195000D01*
X63883157Y45442765D01*
X63742809Y45652809D01*
X63532765Y45793157D01*
X63285000Y45842440D01*
X58205000Y45842440D01*
X57957235Y45793157D01*
X57747191Y45652809D01*
X57606843Y45442765D01*
X57557560Y45195000D01*
X57557560Y44810000D01*
X52700000Y44810000D01*
X52409161Y44752148D01*
X52162599Y44587401D01*
X52112599Y44537401D01*
X51947852Y44290839D01*
X51890000Y44000000D01*
X51890000Y41881459D01*
X51817191Y41832809D01*
X51676843Y41622765D01*
X51627560Y41375000D01*
X51627560Y40575000D01*
X51676843Y40327235D01*
X51745155Y40225000D01*
X51676843Y40122765D01*
X51627560Y39875000D01*
X51627560Y39075000D01*
X51676843Y38827235D01*
X51817191Y38617191D01*
X51890000Y38568541D01*
X51890000Y36439802D01*
X51760198Y36310000D01*
X50785000Y36310000D01*
X50785000Y36464250D01*
X50626250Y36623000D01*
X49677000Y36623000D01*
X49677000Y36603000D01*
X49423000Y36603000D01*
X49423000Y36623000D01*
X49403000Y36623000D01*
X49403000Y36877000D01*
X49423000Y36877000D01*
X49423000Y37551250D01*
X49677000Y37551250D01*
X49677000Y36877000D01*
X50626250Y36877000D01*
X50785000Y37035750D01*
X50785000Y37201310D01*
X50688327Y37434699D01*
X50509698Y37613327D01*
X50276309Y37710000D01*
X49835750Y37710000D01*
X49677000Y37551250D01*
X49423000Y37551250D01*
X49264250Y37710000D01*
X48823691Y37710000D01*
X48590302Y37613327D01*
X48411673Y37434699D01*
X48360272Y37310606D01*
X48136741Y37317816D01*
X48088327Y37434699D01*
X47909698Y37613327D01*
X47676309Y37710000D01*
X47235750Y37710000D01*
X47077000Y37551250D01*
X47077000Y36877000D01*
X47097000Y36877000D01*
X47097000Y36623000D01*
X47077000Y36623000D01*
X47077000Y36603000D01*
X46823000Y36603000D01*
X46823000Y36623000D01*
X45873750Y36623000D01*
X45715000Y36464250D01*
X45715000Y36310000D01*
X37297440Y36310000D01*
X37297440Y36350000D01*
X37248157Y36597765D01*
X37107809Y36807809D01*
X36927854Y36928052D01*
X37201112Y37201310D01*
X45715000Y37201310D01*
X45715000Y37035750D01*
X45873750Y36877000D01*
X46823000Y36877000D01*
X46823000Y37551250D01*
X46664250Y37710000D01*
X46223691Y37710000D01*
X45990302Y37613327D01*
X45811673Y37434699D01*
X45715000Y37201310D01*
X37201112Y37201310D01*
X39587401Y39587599D01*
X39708651Y39769063D01*
X39747765Y39776843D01*
X39957809Y39917191D01*
X40098157Y40127235D01*
X40147440Y40375000D01*
X40147440Y40875000D01*
X40098157Y41122765D01*
X39957809Y41332809D01*
X39894666Y41375000D01*
X39957809Y41417191D01*
X40098157Y41627235D01*
X40147440Y41875000D01*
X40147440Y42375000D01*
X40098157Y42622765D01*
X39957809Y42832809D01*
X39785000Y42948277D01*
X39785000Y44157560D01*
X40445000Y44157560D01*
X40692765Y44206843D01*
X40902809Y44347191D01*
X41043157Y44557235D01*
X41092440Y44805000D01*
X41092440Y47059250D01*
X41835000Y47059250D01*
X41835000Y44678691D01*
X41931673Y44445302D01*
X42110301Y44266673D01*
X42343690Y44170000D01*
X42587871Y44170000D01*
X42546851Y44046436D01*
X42578982Y43602032D01*
X42687232Y43340692D01*
X42900800Y43305405D01*
X43028685Y43433290D01*
X43090301Y43371673D01*
X43257162Y43302557D01*
X43080405Y43125800D01*
X43115692Y42912232D01*
X43538564Y42771851D01*
X43982968Y42803982D01*
X44244308Y42912232D01*
X44279595Y43125800D01*
X44102838Y43302557D01*
X44269699Y43371673D01*
X44331315Y43433290D01*
X44459200Y43305405D01*
X44672768Y43340692D01*
X44813149Y43763564D01*
X44783763Y44170000D01*
X45016310Y44170000D01*
X45249699Y44266673D01*
X45428327Y44445302D01*
X45525000Y44678691D01*
X45525000Y47059250D01*
X45366250Y47218000D01*
X43807000Y47218000D01*
X43807000Y47198000D01*
X43553000Y47198000D01*
X43553000Y47218000D01*
X41993750Y47218000D01*
X41835000Y47059250D01*
X41092440Y47059250D01*
X41092440Y49885000D01*
X41067316Y50011309D01*
X41835000Y50011309D01*
X41835000Y47630750D01*
X41993750Y47472000D01*
X43553000Y47472000D01*
X43553000Y50361250D01*
X43807000Y50361250D01*
X43807000Y47472000D01*
X45366250Y47472000D01*
X45525000Y47630750D01*
X45525000Y48571436D01*
X56171851Y48571436D01*
X56203982Y48127032D01*
X56312232Y47865692D01*
X56525800Y47830405D01*
X56702557Y48007162D01*
X56771673Y47840301D01*
X56833290Y47778685D01*
X56705405Y47650800D01*
X56740692Y47437232D01*
X57163564Y47296851D01*
X57570000Y47326237D01*
X57570000Y47093690D01*
X57666673Y46860301D01*
X57845302Y46681673D01*
X58078691Y46585000D01*
X60459250Y46585000D01*
X60618000Y46743750D01*
X60618000Y48303000D01*
X60872000Y48303000D01*
X60872000Y46743750D01*
X61030750Y46585000D01*
X63411309Y46585000D01*
X63644698Y46681673D01*
X63823327Y46860301D01*
X63920000Y47093690D01*
X63920000Y48144250D01*
X63761250Y48303000D01*
X60872000Y48303000D01*
X60618000Y48303000D01*
X60598000Y48303000D01*
X60598000Y48557000D01*
X60618000Y48557000D01*
X60618000Y50116250D01*
X60872000Y50116250D01*
X60872000Y48557000D01*
X63761250Y48557000D01*
X63920000Y48715750D01*
X63920000Y49766310D01*
X63823327Y49999699D01*
X63644698Y50178327D01*
X63411309Y50275000D01*
X61030750Y50275000D01*
X60872000Y50116250D01*
X60618000Y50116250D01*
X60459250Y50275000D01*
X58078691Y50275000D01*
X57845302Y50178327D01*
X57666673Y49999699D01*
X57570000Y49766310D01*
X57570000Y49522129D01*
X57446436Y49563149D01*
X57002032Y49531018D01*
X56740692Y49422768D01*
X56705405Y49209200D01*
X56833290Y49081315D01*
X56771673Y49019699D01*
X56702557Y48852838D01*
X56525800Y49029595D01*
X56312232Y48994308D01*
X56171851Y48571436D01*
X45525000Y48571436D01*
X45525000Y50011309D01*
X45428327Y50244698D01*
X45249699Y50423327D01*
X45016310Y50520000D01*
X43965750Y50520000D01*
X43807000Y50361250D01*
X43553000Y50361250D01*
X43394250Y50520000D01*
X42343690Y50520000D01*
X42110301Y50423327D01*
X41931673Y50244698D01*
X41835000Y50011309D01*
X41067316Y50011309D01*
X41043157Y50132765D01*
X40902809Y50342809D01*
X40692765Y50483157D01*
X40445000Y50532440D01*
X38155000Y50532440D01*
X37907235Y50483157D01*
X37697191Y50342809D01*
X37556843Y50132765D01*
X37507560Y49885000D01*
X37507560Y44805000D01*
X37556843Y44557235D01*
X37697191Y44347191D01*
X37907235Y44206843D01*
X38155000Y44157560D01*
X38265000Y44157560D01*
X38265000Y42914868D01*
X38142191Y42832809D01*
X38001843Y42622765D01*
X37952560Y42375000D01*
X37952560Y41875000D01*
X38001843Y41627235D01*
X38142191Y41417191D01*
X38205334Y41375000D01*
X38142191Y41332809D01*
X38001843Y41122765D01*
X37952560Y40875000D01*
X37952560Y40375000D01*
X37997793Y40147595D01*
X35612599Y37762401D01*
X35447852Y37515839D01*
X35390000Y37225000D01*
X35390000Y36939982D01*
X35192191Y36807809D01*
X35051843Y36597765D01*
X35050000Y36588500D01*
X35048157Y36597765D01*
X34907809Y36807809D01*
X34710000Y36939982D01*
X34710000Y37725000D01*
X34652148Y38015839D01*
X34487401Y38262401D01*
X34358695Y38391107D01*
X34375778Y38476992D01*
X34326495Y38724757D01*
X34186147Y38934801D01*
X33620461Y39500487D01*
X33410417Y39640835D01*
X33289822Y39664822D01*
X33265835Y39785417D01*
X33125487Y39995461D01*
X32559801Y40561147D01*
X32349757Y40701495D01*
X32101992Y40750778D01*
X32054631Y40741357D01*
X30356568Y42567525D01*
X30345194Y42575738D01*
X30337401Y42587401D01*
X30225375Y42662254D01*
X30116153Y42741119D01*
X30102504Y42744353D01*
X30090839Y42752148D01*
X29958692Y42778434D01*
X29827608Y42809498D01*
X29813760Y42807263D01*
X29800000Y42810000D01*
X26692440Y42810000D01*
X26692440Y43295000D01*
X26643157Y43542765D01*
X26502809Y43752809D01*
X26292765Y43893157D01*
X26045000Y43942440D01*
X20965000Y43942440D01*
X20717235Y43893157D01*
X20507191Y43752809D01*
X20366843Y43542765D01*
X20317560Y43295000D01*
X19908870Y43295000D01*
X19926977Y46244250D01*
X20330000Y46244250D01*
X20330000Y45193690D01*
X20426673Y44960301D01*
X20605302Y44781673D01*
X20838691Y44685000D01*
X23219250Y44685000D01*
X23378000Y44843750D01*
X23378000Y46403000D01*
X20488750Y46403000D01*
X20330000Y46244250D01*
X19926977Y46244250D01*
X19936936Y47866310D01*
X20330000Y47866310D01*
X20330000Y46815750D01*
X20488750Y46657000D01*
X23378000Y46657000D01*
X23378000Y48216250D01*
X23632000Y48216250D01*
X23632000Y46657000D01*
X23652000Y46657000D01*
X23652000Y46403000D01*
X23632000Y46403000D01*
X23632000Y44843750D01*
X23790750Y44685000D01*
X26171309Y44685000D01*
X26404698Y44781673D01*
X26583327Y44960301D01*
X26680000Y45193690D01*
X26680000Y45437871D01*
X26803564Y45396851D01*
X27247968Y45428982D01*
X27509308Y45537232D01*
X27544595Y45750800D01*
X27416710Y45878685D01*
X27478327Y45940301D01*
X27547443Y46107162D01*
X27724200Y45930405D01*
X27937768Y45965692D01*
X28078149Y46388564D01*
X28046018Y46832968D01*
X27952290Y47059250D01*
X33075000Y47059250D01*
X33075000Y44678691D01*
X33171673Y44445302D01*
X33350301Y44266673D01*
X33583690Y44170000D01*
X33827871Y44170000D01*
X33786851Y44046436D01*
X33818982Y43602032D01*
X33927232Y43340692D01*
X34140800Y43305405D01*
X34268685Y43433290D01*
X34330301Y43371673D01*
X34497162Y43302557D01*
X34320405Y43125800D01*
X34355692Y42912232D01*
X34778564Y42771851D01*
X35222968Y42803982D01*
X35484308Y42912232D01*
X35519595Y43125800D01*
X35342838Y43302557D01*
X35509699Y43371673D01*
X35571315Y43433290D01*
X35699200Y43305405D01*
X35912768Y43340692D01*
X36053149Y43763564D01*
X36023763Y44170000D01*
X36256310Y44170000D01*
X36489699Y44266673D01*
X36668327Y44445302D01*
X36765000Y44678691D01*
X36765000Y47059250D01*
X36606250Y47218000D01*
X35047000Y47218000D01*
X35047000Y47198000D01*
X34793000Y47198000D01*
X34793000Y47218000D01*
X33233750Y47218000D01*
X33075000Y47059250D01*
X27952290Y47059250D01*
X27937768Y47094308D01*
X27724200Y47129595D01*
X27547443Y46952838D01*
X27478327Y47119699D01*
X27416710Y47181315D01*
X27544595Y47309200D01*
X27509308Y47522768D01*
X27086436Y47663149D01*
X26680000Y47633763D01*
X26680000Y47866310D01*
X26583327Y48099699D01*
X26404698Y48278327D01*
X26171309Y48375000D01*
X23790750Y48375000D01*
X23632000Y48216250D01*
X23378000Y48216250D01*
X23219250Y48375000D01*
X20838691Y48375000D01*
X20605302Y48278327D01*
X20426673Y48099699D01*
X20330000Y47866310D01*
X19936936Y47866310D01*
X19950105Y50011309D01*
X33075000Y50011309D01*
X33075000Y47630750D01*
X33233750Y47472000D01*
X34793000Y47472000D01*
X34793000Y50361250D01*
X35047000Y50361250D01*
X35047000Y47472000D01*
X36606250Y47472000D01*
X36765000Y47630750D01*
X36765000Y50011309D01*
X36668327Y50244698D01*
X36489699Y50423327D01*
X36256310Y50520000D01*
X35205750Y50520000D01*
X35047000Y50361250D01*
X34793000Y50361250D01*
X34634250Y50520000D01*
X33583690Y50520000D01*
X33350301Y50423327D01*
X33171673Y50244698D01*
X33075000Y50011309D01*
X19950105Y50011309D01*
X19955501Y50890000D01*
X64940000Y50890000D01*
X64940000Y19760000D01*
X64940000Y19760000D01*
G37*
X64940000Y19760000D02*
X21979151Y19760000D01*
X19764462Y19774459D01*
X19791997Y24259250D01*
X20330000Y24259250D01*
X20330000Y23208690D01*
X20426673Y22975301D01*
X20605302Y22796673D01*
X20838691Y22700000D01*
X23219250Y22700000D01*
X23378000Y22858750D01*
X23378000Y24418000D01*
X20488750Y24418000D01*
X20330000Y24259250D01*
X19791997Y24259250D01*
X19801955Y25881310D01*
X20330000Y25881310D01*
X20330000Y24830750D01*
X20488750Y24672000D01*
X23378000Y24672000D01*
X23378000Y26231250D01*
X23632000Y26231250D01*
X23632000Y24672000D01*
X23652000Y24672000D01*
X23652000Y24418000D01*
X23632000Y24418000D01*
X23632000Y22858750D01*
X23790750Y22700000D01*
X26171309Y22700000D01*
X26404698Y22796673D01*
X26583327Y22975301D01*
X26680000Y23208690D01*
X26680000Y23452871D01*
X26803564Y23411851D01*
X27247968Y23443982D01*
X27509308Y23552232D01*
X27544595Y23765800D01*
X27416710Y23893685D01*
X27478327Y23955301D01*
X27547443Y24122162D01*
X27724200Y23945405D01*
X27937768Y23980692D01*
X28078149Y24403564D01*
X28046018Y24847968D01*
X27937768Y25109308D01*
X27724200Y25144595D01*
X27547443Y24967838D01*
X27478327Y25134699D01*
X27416710Y25196315D01*
X27544595Y25324200D01*
X27509308Y25537768D01*
X27086436Y25678149D01*
X26680000Y25648763D01*
X26680000Y25711436D01*
X56321851Y25711436D01*
X56353982Y25267032D01*
X56462232Y25005692D01*
X56675800Y24970405D01*
X56852557Y25147162D01*
X56921673Y24980301D01*
X56983290Y24918685D01*
X56855405Y24790800D01*
X56890692Y24577232D01*
X57313564Y24436851D01*
X57720000Y24466237D01*
X57720000Y24233690D01*
X57816673Y24000301D01*
X57995302Y23821673D01*
X58228691Y23725000D01*
X60609250Y23725000D01*
X60768000Y23883750D01*
X60768000Y25443000D01*
X61022000Y25443000D01*
X61022000Y23883750D01*
X61180750Y23725000D01*
X63561309Y23725000D01*
X63794698Y23821673D01*
X63973327Y24000301D01*
X64070000Y24233690D01*
X64070000Y25284250D01*
X63911250Y25443000D01*
X61022000Y25443000D01*
X60768000Y25443000D01*
X60748000Y25443000D01*
X60748000Y25697000D01*
X60768000Y25697000D01*
X60768000Y27256250D01*
X61022000Y27256250D01*
X61022000Y25697000D01*
X63911250Y25697000D01*
X64070000Y25855750D01*
X64070000Y26906310D01*
X63973327Y27139699D01*
X63794698Y27318327D01*
X63561309Y27415000D01*
X61180750Y27415000D01*
X61022000Y27256250D01*
X60768000Y27256250D01*
X60609250Y27415000D01*
X58228691Y27415000D01*
X57995302Y27318327D01*
X57816673Y27139699D01*
X57720000Y26906310D01*
X57720000Y26662129D01*
X57596436Y26703149D01*
X57152032Y26671018D01*
X56890692Y26562768D01*
X56855405Y26349200D01*
X56983290Y26221315D01*
X56921673Y26159699D01*
X56852557Y25992838D01*
X56675800Y26169595D01*
X56462232Y26134308D01*
X56321851Y25711436D01*
X26680000Y25711436D01*
X26680000Y25881310D01*
X26583327Y26114699D01*
X26404698Y26293327D01*
X26171309Y26390000D01*
X23790750Y26390000D01*
X23632000Y26231250D01*
X23378000Y26231250D01*
X23219250Y26390000D01*
X20838691Y26390000D01*
X20605302Y26293327D01*
X20426673Y26114699D01*
X20330000Y25881310D01*
X19801955Y25881310D01*
X19845779Y33019250D01*
X20330000Y33019250D01*
X20330000Y31968690D01*
X20426673Y31735301D01*
X20605302Y31556673D01*
X20838691Y31460000D01*
X23219250Y31460000D01*
X23378000Y31618750D01*
X23378000Y33178000D01*
X20488750Y33178000D01*
X20330000Y33019250D01*
X19845779Y33019250D01*
X19855738Y34641310D01*
X20330000Y34641310D01*
X20330000Y33590750D01*
X20488750Y33432000D01*
X23378000Y33432000D01*
X23378000Y34991250D01*
X23632000Y34991250D01*
X23632000Y33432000D01*
X23652000Y33432000D01*
X23652000Y33178000D01*
X23632000Y33178000D01*
X23632000Y31618750D01*
X23790750Y31460000D01*
X26171309Y31460000D01*
X26404698Y31556673D01*
X26583327Y31735301D01*
X26680000Y31968690D01*
X26680000Y32212871D01*
X26803564Y32171851D01*
X27247968Y32203982D01*
X27509308Y32312232D01*
X27544595Y32525800D01*
X27416710Y32653685D01*
X27478327Y32715301D01*
X27547443Y32882162D01*
X27724200Y32705405D01*
X27937768Y32740692D01*
X28078149Y33163564D01*
X28046018Y33607968D01*
X27937768Y33869308D01*
X27724200Y33904595D01*
X27547443Y33727838D01*
X27478327Y33894699D01*
X27416710Y33956315D01*
X27544595Y34084200D01*
X27509308Y34297768D01*
X27086436Y34438149D01*
X26680000Y34408763D01*
X26680000Y34641310D01*
X26583327Y34874699D01*
X26404698Y35053327D01*
X26171309Y35150000D01*
X23790750Y35150000D01*
X23632000Y34991250D01*
X23378000Y34991250D01*
X23219250Y35150000D01*
X20838691Y35150000D01*
X20605302Y35053327D01*
X20426673Y34874699D01*
X20330000Y34641310D01*
X19855738Y34641310D01*
X19873193Y37484250D01*
X20330000Y37484250D01*
X20330000Y36433690D01*
X20426673Y36200301D01*
X20605302Y36021673D01*
X20838691Y35925000D01*
X23219250Y35925000D01*
X23378000Y36083750D01*
X23378000Y37643000D01*
X20488750Y37643000D01*
X20330000Y37484250D01*
X19873193Y37484250D01*
X19883152Y39106310D01*
X20330000Y39106310D01*
X20330000Y38055750D01*
X20488750Y37897000D01*
X23378000Y37897000D01*
X23378000Y39456250D01*
X23632000Y39456250D01*
X23632000Y37897000D01*
X23652000Y37897000D01*
X23652000Y37643000D01*
X23632000Y37643000D01*
X23632000Y36083750D01*
X23790750Y35925000D01*
X26171309Y35925000D01*
X26404698Y36021673D01*
X26583327Y36200301D01*
X26680000Y36433690D01*
X26680000Y36677871D01*
X26803564Y36636851D01*
X27247968Y36668982D01*
X27509308Y36777232D01*
X27544595Y36990800D01*
X27416710Y37118685D01*
X27478327Y37180301D01*
X27547443Y37347162D01*
X27724200Y37170405D01*
X27937768Y37205692D01*
X28078149Y37628564D01*
X28046018Y38072968D01*
X27937768Y38334308D01*
X27724200Y38369595D01*
X27547443Y38192838D01*
X27478327Y38359699D01*
X27416710Y38421315D01*
X27544595Y38549200D01*
X27509308Y38762768D01*
X27086436Y38903149D01*
X26680000Y38873763D01*
X26680000Y39106310D01*
X26583327Y39339699D01*
X26404698Y39518327D01*
X26171309Y39615000D01*
X23790750Y39615000D01*
X23632000Y39456250D01*
X23378000Y39456250D01*
X23219250Y39615000D01*
X20838691Y39615000D01*
X20605302Y39518327D01*
X20426673Y39339699D01*
X20330000Y39106310D01*
X19883152Y39106310D01*
X19908870Y43295000D01*
X20317560Y43295000D01*
X20317560Y41005000D01*
X20366843Y40757235D01*
X20507191Y40547191D01*
X20717235Y40406843D01*
X20965000Y40357560D01*
X26045000Y40357560D01*
X26292765Y40406843D01*
X26502809Y40547191D01*
X26643157Y40757235D01*
X26692440Y41005000D01*
X26692440Y41290000D01*
X29468897Y41290000D01*
X30949108Y39698120D01*
X30924222Y39573008D01*
X30973505Y39325243D01*
X31113853Y39115199D01*
X31679539Y38549513D01*
X31889583Y38409165D01*
X32010178Y38385178D01*
X32034165Y38264583D01*
X32174513Y38054539D01*
X32740199Y37488853D01*
X32950243Y37348505D01*
X33190000Y37300815D01*
X33190000Y36939982D01*
X32992191Y36807809D01*
X32851843Y36597765D01*
X32802560Y36350000D01*
X32802560Y36050000D01*
X32836655Y35878589D01*
X32815000Y35826309D01*
X32815000Y35783750D01*
X32963258Y35635492D01*
X32992191Y35592191D01*
X33055334Y35550000D01*
X32992191Y35507809D01*
X32963258Y35464508D01*
X32815000Y35316250D01*
X32815000Y35273691D01*
X32836655Y35221411D01*
X32802560Y35050000D01*
X32802560Y34750000D01*
X32851843Y34502235D01*
X32992191Y34292191D01*
X33190000Y34160018D01*
X33190000Y33797398D01*
X33173008Y33800778D01*
X32925243Y33751495D01*
X32715199Y33611147D01*
X32149513Y33045461D01*
X32009165Y32835417D01*
X31985178Y32714822D01*
X31864583Y32690835D01*
X31654539Y32550487D01*
X31088853Y31984801D01*
X30948505Y31774757D01*
X30899222Y31526992D01*
X30931656Y31363935D01*
X29453222Y29660000D01*
X26692440Y29660000D01*
X26692440Y30070000D01*
X26643157Y30317765D01*
X26502809Y30527809D01*
X26292765Y30668157D01*
X26045000Y30717440D01*
X20965000Y30717440D01*
X20717235Y30668157D01*
X20507191Y30527809D01*
X20366843Y30317765D01*
X20317560Y30070000D01*
X20317560Y27780000D01*
X20366843Y27532235D01*
X20507191Y27322191D01*
X20717235Y27181843D01*
X20965000Y27132560D01*
X26045000Y27132560D01*
X26292765Y27181843D01*
X26502809Y27322191D01*
X26643157Y27532235D01*
X26692440Y27780000D01*
X26692440Y28140000D01*
X29800000Y28140000D01*
X29826706Y28145312D01*
X29853719Y28141901D01*
X29971286Y28174071D01*
X30090839Y28197852D01*
X30113480Y28212980D01*
X30139741Y28220166D01*
X30236047Y28294877D01*
X30337401Y28362599D01*
X30352528Y28385238D01*
X30374042Y28401928D01*
X32065595Y30351489D01*
X32076992Y30349222D01*
X32324757Y30398505D01*
X32534801Y30538853D01*
X33100487Y31104539D01*
X33240835Y31314583D01*
X33264822Y31435178D01*
X33385417Y31459165D01*
X33595461Y31599513D01*
X34161147Y32165199D01*
X34301495Y32375243D01*
X34350778Y32623008D01*
X34333695Y32708893D01*
X34487401Y32862599D01*
X34652148Y33109161D01*
X34710000Y33400000D01*
X34710000Y34160018D01*
X34907809Y34292191D01*
X35048157Y34502235D01*
X35050000Y34511500D01*
X35051843Y34502235D01*
X35192191Y34292191D01*
X35402235Y34151843D01*
X35499013Y34132593D01*
X35612599Y33962599D01*
X40137599Y29437599D01*
X40384160Y29272852D01*
X40675000Y29215000D01*
X53418427Y29215000D01*
X53517191Y29067191D01*
X53727235Y28926843D01*
X53975000Y28877560D01*
X54475000Y28877560D01*
X54722765Y28926843D01*
X54932809Y29067191D01*
X54975000Y29130334D01*
X55017191Y29067191D01*
X55227235Y28926843D01*
X55475000Y28877560D01*
X55975000Y28877560D01*
X56222765Y28926843D01*
X56432809Y29067191D01*
X56514868Y29190000D01*
X57707560Y29190000D01*
X57707560Y28805000D01*
X57756843Y28557235D01*
X57897191Y28347191D01*
X58107235Y28206843D01*
X58355000Y28157560D01*
X63435000Y28157560D01*
X63682765Y28206843D01*
X63892809Y28347191D01*
X64033157Y28557235D01*
X64082440Y28805000D01*
X64082440Y31095000D01*
X64033157Y31342765D01*
X63892809Y31552809D01*
X63682765Y31693157D01*
X63435000Y31742440D01*
X58355000Y31742440D01*
X58107235Y31693157D01*
X57897191Y31552809D01*
X57756843Y31342765D01*
X57707560Y31095000D01*
X57707560Y30710000D01*
X56548277Y30710000D01*
X56432809Y30882809D01*
X56222765Y31023157D01*
X55975000Y31072440D01*
X55475000Y31072440D01*
X55227235Y31023157D01*
X55017191Y30882809D01*
X54975000Y30819666D01*
X54932809Y30882809D01*
X54722765Y31023157D01*
X54475000Y31072440D01*
X53975000Y31072440D01*
X53727235Y31023157D01*
X53517191Y30882809D01*
X53418427Y30735000D01*
X40989802Y30735000D01*
X37660552Y34064250D01*
X45715000Y34064250D01*
X45715000Y33898690D01*
X45811673Y33665301D01*
X45990302Y33486673D01*
X46223691Y33390000D01*
X46664250Y33390000D01*
X46823000Y33548750D01*
X46823000Y34223000D01*
X47077000Y34223000D01*
X47077000Y33548750D01*
X47235750Y33390000D01*
X47676309Y33390000D01*
X47875000Y33472301D01*
X48073691Y33390000D01*
X48894250Y33390000D01*
X49053000Y33548750D01*
X49053000Y34223000D01*
X49307000Y34223000D01*
X49307000Y33548750D01*
X49465750Y33390000D01*
X50286309Y33390000D01*
X50519698Y33486673D01*
X50698327Y33665301D01*
X50795000Y33898690D01*
X50795000Y34064250D01*
X50636250Y34223000D01*
X49307000Y34223000D01*
X49053000Y34223000D01*
X47077000Y34223000D01*
X46823000Y34223000D01*
X45873750Y34223000D01*
X45715000Y34064250D01*
X37660552Y34064250D01*
X37253366Y34471436D01*
X56321851Y34471436D01*
X56353982Y34027032D01*
X56462232Y33765692D01*
X56675800Y33730405D01*
X56852557Y33907162D01*
X56921673Y33740301D01*
X56983290Y33678685D01*
X56855405Y33550800D01*
X56890692Y33337232D01*
X57313564Y33196851D01*
X57720000Y33226237D01*
X57720000Y32993690D01*
X57816673Y32760301D01*
X57995302Y32581673D01*
X58228691Y32485000D01*
X60609250Y32485000D01*
X60768000Y32643750D01*
X60768000Y34203000D01*
X61022000Y34203000D01*
X61022000Y32643750D01*
X61180750Y32485000D01*
X63561309Y32485000D01*
X63794698Y32581673D01*
X63973327Y32760301D01*
X64070000Y32993690D01*
X64070000Y34044250D01*
X63911250Y34203000D01*
X61022000Y34203000D01*
X60768000Y34203000D01*
X60748000Y34203000D01*
X60748000Y34457000D01*
X60768000Y34457000D01*
X60768000Y36016250D01*
X61022000Y36016250D01*
X61022000Y34457000D01*
X63911250Y34457000D01*
X64070000Y34615750D01*
X64070000Y35666310D01*
X63973327Y35899699D01*
X63794698Y36078327D01*
X63561309Y36175000D01*
X61180750Y36175000D01*
X61022000Y36016250D01*
X60768000Y36016250D01*
X60609250Y36175000D01*
X58228691Y36175000D01*
X57995302Y36078327D01*
X57816673Y35899699D01*
X57720000Y35666310D01*
X57720000Y35422129D01*
X57596436Y35463149D01*
X57152032Y35431018D01*
X56890692Y35322768D01*
X56855405Y35109200D01*
X56983290Y34981315D01*
X56921673Y34919699D01*
X56852557Y34752838D01*
X56675800Y34929595D01*
X56462232Y34894308D01*
X56321851Y34471436D01*
X37253366Y34471436D01*
X37237907Y34486895D01*
X37248157Y34502235D01*
X37297440Y34750000D01*
X37297440Y34790000D01*
X45715000Y34790000D01*
X45715000Y34635750D01*
X45873750Y34477000D01*
X46823000Y34477000D01*
X46823000Y34497000D01*
X47077000Y34497000D01*
X47077000Y34477000D01*
X49053000Y34477000D01*
X49053000Y34497000D01*
X49307000Y34497000D01*
X49307000Y34477000D01*
X50636250Y34477000D01*
X50795000Y34635750D01*
X50795000Y34790000D01*
X52075000Y34790000D01*
X52365839Y34847852D01*
X52612401Y35012599D01*
X53187401Y35587599D01*
X53352148Y35834161D01*
X53410000Y36125000D01*
X53410000Y38568541D01*
X53482809Y38617191D01*
X53623157Y38827235D01*
X53672440Y39075000D01*
X53672440Y39811436D01*
X56171851Y39811436D01*
X56203982Y39367032D01*
X56312232Y39105692D01*
X56525800Y39070405D01*
X56702557Y39247162D01*
X56771673Y39080301D01*
X56833290Y39018685D01*
X56705405Y38890800D01*
X56740692Y38677232D01*
X57163564Y38536851D01*
X57570000Y38566237D01*
X57570000Y38333690D01*
X57666673Y38100301D01*
X57845302Y37921673D01*
X58078691Y37825000D01*
X60459250Y37825000D01*
X60618000Y37983750D01*
X60618000Y39543000D01*
X60872000Y39543000D01*
X60872000Y37983750D01*
X61030750Y37825000D01*
X63411309Y37825000D01*
X63644698Y37921673D01*
X63823327Y38100301D01*
X63920000Y38333690D01*
X63920000Y39384250D01*
X63761250Y39543000D01*
X60872000Y39543000D01*
X60618000Y39543000D01*
X60598000Y39543000D01*
X60598000Y39797000D01*
X60618000Y39797000D01*
X60618000Y41356250D01*
X60872000Y41356250D01*
X60872000Y39797000D01*
X63761250Y39797000D01*
X63920000Y39955750D01*
X63920000Y41006310D01*
X63823327Y41239699D01*
X63644698Y41418327D01*
X63411309Y41515000D01*
X61030750Y41515000D01*
X60872000Y41356250D01*
X60618000Y41356250D01*
X60459250Y41515000D01*
X58078691Y41515000D01*
X57845302Y41418327D01*
X57666673Y41239699D01*
X57570000Y41006310D01*
X57570000Y40762129D01*
X57446436Y40803149D01*
X57002032Y40771018D01*
X56740692Y40662768D01*
X56705405Y40449200D01*
X56833290Y40321315D01*
X56771673Y40259699D01*
X56702557Y40092838D01*
X56525800Y40269595D01*
X56312232Y40234308D01*
X56171851Y39811436D01*
X53672440Y39811436D01*
X53672440Y39875000D01*
X53623157Y40122765D01*
X53554845Y40225000D01*
X53623157Y40327235D01*
X53672440Y40575000D01*
X53672440Y41375000D01*
X53623157Y41622765D01*
X53482809Y41832809D01*
X53410000Y41881459D01*
X53410000Y43290000D01*
X57557560Y43290000D01*
X57557560Y42905000D01*
X57606843Y42657235D01*
X57747191Y42447191D01*
X57957235Y42306843D01*
X58205000Y42257560D01*
X63285000Y42257560D01*
X63532765Y42306843D01*
X63742809Y42447191D01*
X63883157Y42657235D01*
X63932440Y42905000D01*
X63932440Y45195000D01*
X63883157Y45442765D01*
X63742809Y45652809D01*
X63532765Y45793157D01*
X63285000Y45842440D01*
X58205000Y45842440D01*
X57957235Y45793157D01*
X57747191Y45652809D01*
X57606843Y45442765D01*
X57557560Y45195000D01*
X57557560Y44810000D01*
X52700000Y44810000D01*
X52409161Y44752148D01*
X52162599Y44587401D01*
X52112599Y44537401D01*
X51947852Y44290839D01*
X51890000Y44000000D01*
X51890000Y41881459D01*
X51817191Y41832809D01*
X51676843Y41622765D01*
X51627560Y41375000D01*
X51627560Y40575000D01*
X51676843Y40327235D01*
X51745155Y40225000D01*
X51676843Y40122765D01*
X51627560Y39875000D01*
X51627560Y39075000D01*
X51676843Y38827235D01*
X51817191Y38617191D01*
X51890000Y38568541D01*
X51890000Y36439802D01*
X51760198Y36310000D01*
X50785000Y36310000D01*
X50785000Y36464250D01*
X50626250Y36623000D01*
X49677000Y36623000D01*
X49677000Y36603000D01*
X49423000Y36603000D01*
X49423000Y36623000D01*
X49403000Y36623000D01*
X49403000Y36877000D01*
X49423000Y36877000D01*
X49423000Y37551250D01*
X49677000Y37551250D01*
X49677000Y36877000D01*
X50626250Y36877000D01*
X50785000Y37035750D01*
X50785000Y37201310D01*
X50688327Y37434699D01*
X50509698Y37613327D01*
X50276309Y37710000D01*
X49835750Y37710000D01*
X49677000Y37551250D01*
X49423000Y37551250D01*
X49264250Y37710000D01*
X48823691Y37710000D01*
X48590302Y37613327D01*
X48411673Y37434699D01*
X48360272Y37310606D01*
X48136741Y37317816D01*
X48088327Y37434699D01*
X47909698Y37613327D01*
X47676309Y37710000D01*
X47235750Y37710000D01*
X47077000Y37551250D01*
X47077000Y36877000D01*
X47097000Y36877000D01*
X47097000Y36623000D01*
X47077000Y36623000D01*
X47077000Y36603000D01*
X46823000Y36603000D01*
X46823000Y36623000D01*
X45873750Y36623000D01*
X45715000Y36464250D01*
X45715000Y36310000D01*
X37297440Y36310000D01*
X37297440Y36350000D01*
X37248157Y36597765D01*
X37107809Y36807809D01*
X36927854Y36928052D01*
X37201112Y37201310D01*
X45715000Y37201310D01*
X45715000Y37035750D01*
X45873750Y36877000D01*
X46823000Y36877000D01*
X46823000Y37551250D01*
X46664250Y37710000D01*
X46223691Y37710000D01*
X45990302Y37613327D01*
X45811673Y37434699D01*
X45715000Y37201310D01*
X37201112Y37201310D01*
X39587401Y39587599D01*
X39708651Y39769063D01*
X39747765Y39776843D01*
X39957809Y39917191D01*
X40098157Y40127235D01*
X40147440Y40375000D01*
X40147440Y40875000D01*
X40098157Y41122765D01*
X39957809Y41332809D01*
X39894666Y41375000D01*
X39957809Y41417191D01*
X40098157Y41627235D01*
X40147440Y41875000D01*
X40147440Y42375000D01*
X40098157Y42622765D01*
X39957809Y42832809D01*
X39785000Y42948277D01*
X39785000Y44157560D01*
X40445000Y44157560D01*
X40692765Y44206843D01*
X40902809Y44347191D01*
X41043157Y44557235D01*
X41092440Y44805000D01*
X41092440Y47059250D01*
X41835000Y47059250D01*
X41835000Y44678691D01*
X41931673Y44445302D01*
X42110301Y44266673D01*
X42343690Y44170000D01*
X42587871Y44170000D01*
X42546851Y44046436D01*
X42578982Y43602032D01*
X42687232Y43340692D01*
X42900800Y43305405D01*
X43028685Y43433290D01*
X43090301Y43371673D01*
X43257162Y43302557D01*
X43080405Y43125800D01*
X43115692Y42912232D01*
X43538564Y42771851D01*
X43982968Y42803982D01*
X44244308Y42912232D01*
X44279595Y43125800D01*
X44102838Y43302557D01*
X44269699Y43371673D01*
X44331315Y43433290D01*
X44459200Y43305405D01*
X44672768Y43340692D01*
X44813149Y43763564D01*
X44783763Y44170000D01*
X45016310Y44170000D01*
X45249699Y44266673D01*
X45428327Y44445302D01*
X45525000Y44678691D01*
X45525000Y47059250D01*
X45366250Y47218000D01*
X43807000Y47218000D01*
X43807000Y47198000D01*
X43553000Y47198000D01*
X43553000Y47218000D01*
X41993750Y47218000D01*
X41835000Y47059250D01*
X41092440Y47059250D01*
X41092440Y49885000D01*
X41067316Y50011309D01*
X41835000Y50011309D01*
X41835000Y47630750D01*
X41993750Y47472000D01*
X43553000Y47472000D01*
X43553000Y50361250D01*
X43807000Y50361250D01*
X43807000Y47472000D01*
X45366250Y47472000D01*
X45525000Y47630750D01*
X45525000Y48571436D01*
X56171851Y48571436D01*
X56203982Y48127032D01*
X56312232Y47865692D01*
X56525800Y47830405D01*
X56702557Y48007162D01*
X56771673Y47840301D01*
X56833290Y47778685D01*
X56705405Y47650800D01*
X56740692Y47437232D01*
X57163564Y47296851D01*
X57570000Y47326237D01*
X57570000Y47093690D01*
X57666673Y46860301D01*
X57845302Y46681673D01*
X58078691Y46585000D01*
X60459250Y46585000D01*
X60618000Y46743750D01*
X60618000Y48303000D01*
X60872000Y48303000D01*
X60872000Y46743750D01*
X61030750Y46585000D01*
X63411309Y46585000D01*
X63644698Y46681673D01*
X63823327Y46860301D01*
X63920000Y47093690D01*
X63920000Y48144250D01*
X63761250Y48303000D01*
X60872000Y48303000D01*
X60618000Y48303000D01*
X60598000Y48303000D01*
X60598000Y48557000D01*
X60618000Y48557000D01*
X60618000Y50116250D01*
X60872000Y50116250D01*
X60872000Y48557000D01*
X63761250Y48557000D01*
X63920000Y48715750D01*
X63920000Y49766310D01*
X63823327Y49999699D01*
X63644698Y50178327D01*
X63411309Y50275000D01*
X61030750Y50275000D01*
X60872000Y50116250D01*
X60618000Y50116250D01*
X60459250Y50275000D01*
X58078691Y50275000D01*
X57845302Y50178327D01*
X57666673Y49999699D01*
X57570000Y49766310D01*
X57570000Y49522129D01*
X57446436Y49563149D01*
X57002032Y49531018D01*
X56740692Y49422768D01*
X56705405Y49209200D01*
X56833290Y49081315D01*
X56771673Y49019699D01*
X56702557Y48852838D01*
X56525800Y49029595D01*
X56312232Y48994308D01*
X56171851Y48571436D01*
X45525000Y48571436D01*
X45525000Y50011309D01*
X45428327Y50244698D01*
X45249699Y50423327D01*
X45016310Y50520000D01*
X43965750Y50520000D01*
X43807000Y50361250D01*
X43553000Y50361250D01*
X43394250Y50520000D01*
X42343690Y50520000D01*
X42110301Y50423327D01*
X41931673Y50244698D01*
X41835000Y50011309D01*
X41067316Y50011309D01*
X41043157Y50132765D01*
X40902809Y50342809D01*
X40692765Y50483157D01*
X40445000Y50532440D01*
X38155000Y50532440D01*
X37907235Y50483157D01*
X37697191Y50342809D01*
X37556843Y50132765D01*
X37507560Y49885000D01*
X37507560Y44805000D01*
X37556843Y44557235D01*
X37697191Y44347191D01*
X37907235Y44206843D01*
X38155000Y44157560D01*
X38265000Y44157560D01*
X38265000Y42914868D01*
X38142191Y42832809D01*
X38001843Y42622765D01*
X37952560Y42375000D01*
X37952560Y41875000D01*
X38001843Y41627235D01*
X38142191Y41417191D01*
X38205334Y41375000D01*
X38142191Y41332809D01*
X38001843Y41122765D01*
X37952560Y40875000D01*
X37952560Y40375000D01*
X37997793Y40147595D01*
X35612599Y37762401D01*
X35447852Y37515839D01*
X35390000Y37225000D01*
X35390000Y36939982D01*
X35192191Y36807809D01*
X35051843Y36597765D01*
X35050000Y36588500D01*
X35048157Y36597765D01*
X34907809Y36807809D01*
X34710000Y36939982D01*
X34710000Y37725000D01*
X34652148Y38015839D01*
X34487401Y38262401D01*
X34358695Y38391107D01*
X34375778Y38476992D01*
X34326495Y38724757D01*
X34186147Y38934801D01*
X33620461Y39500487D01*
X33410417Y39640835D01*
X33289822Y39664822D01*
X33265835Y39785417D01*
X33125487Y39995461D01*
X32559801Y40561147D01*
X32349757Y40701495D01*
X32101992Y40750778D01*
X32054631Y40741357D01*
X30356568Y42567525D01*
X30345194Y42575738D01*
X30337401Y42587401D01*
X30225375Y42662254D01*
X30116153Y42741119D01*
X30102504Y42744353D01*
X30090839Y42752148D01*
X29958692Y42778434D01*
X29827608Y42809498D01*
X29813760Y42807263D01*
X29800000Y42810000D01*
X26692440Y42810000D01*
X26692440Y43295000D01*
X26643157Y43542765D01*
X26502809Y43752809D01*
X26292765Y43893157D01*
X26045000Y43942440D01*
X20965000Y43942440D01*
X20717235Y43893157D01*
X20507191Y43752809D01*
X20366843Y43542765D01*
X20317560Y43295000D01*
X19908870Y43295000D01*
X19926977Y46244250D01*
X20330000Y46244250D01*
X20330000Y45193690D01*
X20426673Y44960301D01*
X20605302Y44781673D01*
X20838691Y44685000D01*
X23219250Y44685000D01*
X23378000Y44843750D01*
X23378000Y46403000D01*
X20488750Y46403000D01*
X20330000Y46244250D01*
X19926977Y46244250D01*
X19936936Y47866310D01*
X20330000Y47866310D01*
X20330000Y46815750D01*
X20488750Y46657000D01*
X23378000Y46657000D01*
X23378000Y48216250D01*
X23632000Y48216250D01*
X23632000Y46657000D01*
X23652000Y46657000D01*
X23652000Y46403000D01*
X23632000Y46403000D01*
X23632000Y44843750D01*
X23790750Y44685000D01*
X26171309Y44685000D01*
X26404698Y44781673D01*
X26583327Y44960301D01*
X26680000Y45193690D01*
X26680000Y45437871D01*
X26803564Y45396851D01*
X27247968Y45428982D01*
X27509308Y45537232D01*
X27544595Y45750800D01*
X27416710Y45878685D01*
X27478327Y45940301D01*
X27547443Y46107162D01*
X27724200Y45930405D01*
X27937768Y45965692D01*
X28078149Y46388564D01*
X28046018Y46832968D01*
X27952290Y47059250D01*
X33075000Y47059250D01*
X33075000Y44678691D01*
X33171673Y44445302D01*
X33350301Y44266673D01*
X33583690Y44170000D01*
X33827871Y44170000D01*
X33786851Y44046436D01*
X33818982Y43602032D01*
X33927232Y43340692D01*
X34140800Y43305405D01*
X34268685Y43433290D01*
X34330301Y43371673D01*
X34497162Y43302557D01*
X34320405Y43125800D01*
X34355692Y42912232D01*
X34778564Y42771851D01*
X35222968Y42803982D01*
X35484308Y42912232D01*
X35519595Y43125800D01*
X35342838Y43302557D01*
X35509699Y43371673D01*
X35571315Y43433290D01*
X35699200Y43305405D01*
X35912768Y43340692D01*
X36053149Y43763564D01*
X36023763Y44170000D01*
X36256310Y44170000D01*
X36489699Y44266673D01*
X36668327Y44445302D01*
X36765000Y44678691D01*
X36765000Y47059250D01*
X36606250Y47218000D01*
X35047000Y47218000D01*
X35047000Y47198000D01*
X34793000Y47198000D01*
X34793000Y47218000D01*
X33233750Y47218000D01*
X33075000Y47059250D01*
X27952290Y47059250D01*
X27937768Y47094308D01*
X27724200Y47129595D01*
X27547443Y46952838D01*
X27478327Y47119699D01*
X27416710Y47181315D01*
X27544595Y47309200D01*
X27509308Y47522768D01*
X27086436Y47663149D01*
X26680000Y47633763D01*
X26680000Y47866310D01*
X26583327Y48099699D01*
X26404698Y48278327D01*
X26171309Y48375000D01*
X23790750Y48375000D01*
X23632000Y48216250D01*
X23378000Y48216250D01*
X23219250Y48375000D01*
X20838691Y48375000D01*
X20605302Y48278327D01*
X20426673Y48099699D01*
X20330000Y47866310D01*
X19936936Y47866310D01*
X19950105Y50011309D01*
X33075000Y50011309D01*
X33075000Y47630750D01*
X33233750Y47472000D01*
X34793000Y47472000D01*
X34793000Y50361250D01*
X35047000Y50361250D01*
X35047000Y47472000D01*
X36606250Y47472000D01*
X36765000Y47630750D01*
X36765000Y50011309D01*
X36668327Y50244698D01*
X36489699Y50423327D01*
X36256310Y50520000D01*
X35205750Y50520000D01*
X35047000Y50361250D01*
X34793000Y50361250D01*
X34634250Y50520000D01*
X33583690Y50520000D01*
X33350301Y50423327D01*
X33171673Y50244698D01*
X33075000Y50011309D01*
X19950105Y50011309D01*
X19955501Y50890000D01*
X64940000Y50890000D01*
X64940000Y19760000D01*
%TD*%
M02*
