%TF.GenerationSoftware,KiCad,Pcbnew,(2017-10-17 revision 537804b)-master*%
%TF.CreationDate,2018-09-04T11:21:01+02:00*%
%TF.ProjectId,rf_matching,72665F6D61746368696E672E6B696361,rev?*%
%TF.SameCoordinates,Original*%
%TF.FileFunction,Legend,Bot*%
%TF.FilePolarity,Positive*%
%FSLAX46Y46*%
G04 Gerber Fmt 4.6, Leading zero omitted, Abs format (unit mm)*
G04 Created by KiCad (PCBNEW (2017-10-17 revision 537804b)-master) date Tuesday, 04 September 2018 'AMt' 11:21:01*
%MOMM*%
%LPD*%
G01*
G04 APERTURE LIST*
%ADD10C,0.120000*%
%ADD11C,0.150000*%
G04 APERTURE END LIST*
D10*
%TO.C,R1*%
X161192304Y-87820927D02*
X160549516Y-87054882D01*
X159507696Y-87929073D02*
X160150484Y-88695118D01*
%TO.C,R2*%
X172029073Y-88592304D02*
X172795118Y-87949516D01*
X171920927Y-86907696D02*
X171154882Y-87550484D01*
%TO.C,R1*%
D11*
X161221351Y-87361416D02*
X161800396Y-87310675D01*
X161588658Y-87799156D02*
X162354703Y-87156369D01*
X162109831Y-86864542D01*
X162012135Y-86822194D01*
X161945048Y-86816325D01*
X161841482Y-86841065D01*
X161732047Y-86932891D01*
X161689699Y-87030588D01*
X161683830Y-87097675D01*
X161708570Y-87201240D01*
X161953441Y-87493067D01*
X160609172Y-86631850D02*
X160976479Y-87069590D01*
X160792826Y-86850720D02*
X161558870Y-86207933D01*
X161510653Y-86372716D01*
X161498914Y-86506890D01*
X161523654Y-86610456D01*
%TO.C,R2*%
X171461416Y-86878648D02*
X171410675Y-86299603D01*
X171899156Y-86511341D02*
X171256369Y-85745296D01*
X170964542Y-85990168D01*
X170922194Y-86087864D01*
X170916325Y-86154951D01*
X170941065Y-86258517D01*
X171032891Y-86367952D01*
X171130588Y-86410300D01*
X171197675Y-86416169D01*
X171301240Y-86391429D01*
X171593067Y-86146558D01*
X170588020Y-86430432D02*
X170520933Y-86424562D01*
X170417367Y-86449302D01*
X170234976Y-86602347D01*
X170192628Y-86700043D01*
X170186759Y-86767130D01*
X170211498Y-86870696D01*
X170272716Y-86943652D01*
X170401021Y-87022478D01*
X171206068Y-87092911D01*
X170731850Y-87490827D01*
%TD*%
M02*
