%TF.GenerationSoftware,KiCad,Pcbnew,(2017-10-17 revision 537804b)-master*%
%TF.CreationDate,2018-07-22T21:53:39+10:00*%
%TF.ProjectId,rf_matching,72665F6D61746368696E672E6B696361,rev?*%
%TF.SameCoordinates,PX92c53e0PY691e668*%
%TF.FileFunction,Copper,L1,Top,Signal*%
%TF.FilePolarity,Positive*%
%FSLAX46Y46*%
G04 Gerber Fmt 4.6, Leading zero omitted, Abs format (unit mm)*
G04 Created by KiCad (PCBNEW (2017-10-17 revision 537804b)-master) date Sunday, 22 July 2018 'PMt' 21:53:39*
%MOMM*%
%LPD*%
G01*
G04 APERTURE LIST*
%TA.AperFunction,Conductor*%
%ADD10R,0.890000X0.460000*%
%TD*%
%TA.AperFunction,ViaPad*%
%ADD11C,0.970000*%
%TD*%
%TA.AperFunction,SMDPad,CuDef*%
%ADD12R,5.080000X2.420000*%
%TD*%
%TA.AperFunction,SMDPad,CuDef*%
%ADD13R,5.080000X2.290000*%
%TD*%
%TA.AperFunction,SMDPad,CuDef*%
%ADD14R,1.960000X0.650000*%
%TD*%
%TA.AperFunction,SMDPad,CuDef*%
%ADD15R,1.200000X0.650000*%
%TD*%
%TA.AperFunction,SMDPad,CuDef*%
%ADD16R,0.750000X0.800000*%
%TD*%
%TA.AperFunction,SMDPad,CuDef*%
%ADD17C,0.750000*%
%TD*%
%TA.AperFunction,Conductor*%
%ADD18C,0.100000*%
%TD*%
%TA.AperFunction,Conductor*%
%ADD19C,0.250000*%
%TD*%
%TA.AperFunction,Conductor*%
%ADD20C,0.254000*%
%TD*%
G04 APERTURE END LIST*
D10*
%TO.N,GND*%
%TO.C,J2*%
X7420000Y5470000D03*
X7420000Y14230000D03*
D11*
X7870000Y5470000D03*
X7870000Y14230000D03*
D12*
%TD*%
%TO.P,J2,2*%
%TO.N,GND*%
X4430000Y5470000D03*
%TO.P,J2,2*%
%TO.N,GND*%
X4430000Y14230000D03*
D13*
%TO.P,J2,1*%
%TO.N,Net-(C3-Pad2)*%
X4430000Y9850000D03*
%TD*%
D10*
%TO.N,GND*%
%TO.C,J4*%
X38680000Y29355000D03*
X38680000Y20595000D03*
D11*
X38230000Y29355000D03*
X38230000Y20595000D03*
D12*
%TD*%
%TO.P,J4,2*%
%TO.N,GND*%
X41670000Y29355000D03*
%TO.P,J4,2*%
%TO.N,GND*%
X41670000Y20595000D03*
D13*
%TO.P,J4,1*%
%TO.N,Net-(C1-Pad1)*%
X41670000Y24975000D03*
%TD*%
D14*
%TO.P,U2,1*%
%TO.N,GND*%
X30105000Y15275000D03*
D15*
%TO.P,U2,2*%
%TO.N,Net-(C1-Pad2)*%
X30475000Y16475000D03*
%TO.P,U2,3*%
%TO.N,GND*%
X30475000Y17675000D03*
%TO.P,U2,4*%
X27875000Y17675000D03*
%TO.P,U2,5*%
%TO.N,Net-(C3-Pad1)*%
X27875000Y16475000D03*
%TO.P,U2,6*%
%TO.N,GND*%
X27875000Y15275000D03*
%TD*%
D16*
%TO.P,C1,2*%
%TO.N,Net-(C1-Pad2)*%
X33575000Y20400000D03*
%TO.P,C1,1*%
%TO.N,Net-(C1-Pad1)*%
X33575000Y21900000D03*
%TD*%
D17*
%TO.P,C3,1*%
%TO.N,Net-(C3-Pad1)*%
X14080330Y13530330D03*
D18*
%TD*%
%TO.N,Net-(C3-Pad1)*%
%TO.C,C3*%
G36*
X14098008Y14078338D02*
X14628338Y13548008D01*
X14062652Y12982322D01*
X13532322Y13512652D01*
X14098008Y14078338D01*
X14098008Y14078338D01*
G37*
D17*
%TO.P,C3,2*%
%TO.N,Net-(C3-Pad2)*%
X13019670Y12469670D03*
D18*
%TD*%
%TO.N,Net-(C3-Pad2)*%
%TO.C,C3*%
G36*
X13037348Y13017678D02*
X13567678Y12487348D01*
X13001992Y11921662D01*
X12471662Y12451992D01*
X13037348Y13017678D01*
X13037348Y13017678D01*
G37*
D19*
%TO.N,GND*%
X3680000Y14230000D02*
X6470000Y14230000D01*
X6470000Y14230000D02*
X7120000Y14230000D01*
X3680000Y5470000D02*
X6470000Y5470000D01*
X6470000Y5470000D02*
X7120000Y5470000D01*
%TO.N,Net-(C1-Pad2)*%
X30475000Y16475000D02*
X33000000Y16475000D01*
X33000000Y16475000D02*
X33575000Y17050000D01*
X33575000Y17050000D02*
X33575000Y20400000D01*
%TO.N,Net-(C3-Pad1)*%
X14080330Y13530330D02*
X14875000Y14325000D01*
X14875000Y14325000D02*
X14875000Y16150000D01*
X14875000Y16150000D02*
X15200000Y16475000D01*
X15200000Y16475000D02*
X17075000Y16475000D01*
X17075000Y16475000D02*
X27875000Y16475000D01*
%TO.N,Net-(C3-Pad2)*%
X10725000Y9825000D02*
X13019670Y12469670D01*
X10725000Y9825000D02*
X3780000Y9825000D01*
%TO.N,GND*%
X41620000Y29130000D02*
X38180000Y29130000D01*
X41620000Y20370000D02*
X38180000Y20370000D01*
%TO.N,Net-(C1-Pad1)*%
X33575000Y21900000D02*
X33575000Y24925000D01*
X33575000Y24925000D02*
X33625000Y24975000D01*
X33625000Y24975000D02*
X41670000Y24975000D01*
%TD*%
D20*
%TO.N,GND*%
G36*
X45865000Y685000D02*
X2904151Y685000D01*
X689462Y699459D01*
X716997Y5184250D01*
X1255000Y5184250D01*
X1255000Y4133690D01*
X1351673Y3900301D01*
X1530302Y3721673D01*
X1763691Y3625000D01*
X4144250Y3625000D01*
X4303000Y3783750D01*
X4303000Y5343000D01*
X1413750Y5343000D01*
X1255000Y5184250D01*
X716997Y5184250D01*
X726955Y6806310D01*
X1255000Y6806310D01*
X1255000Y5755750D01*
X1413750Y5597000D01*
X4303000Y5597000D01*
X4303000Y7156250D01*
X4557000Y7156250D01*
X4557000Y5597000D01*
X4577000Y5597000D01*
X4577000Y5343000D01*
X4557000Y5343000D01*
X4557000Y3783750D01*
X4715750Y3625000D01*
X7096309Y3625000D01*
X7329698Y3721673D01*
X7508327Y3900301D01*
X7605000Y4133690D01*
X7605000Y4377871D01*
X7728564Y4336851D01*
X8172968Y4368982D01*
X8434308Y4477232D01*
X8469595Y4690800D01*
X8341710Y4818685D01*
X8403327Y4880301D01*
X8472443Y5047162D01*
X8649200Y4870405D01*
X8862768Y4905692D01*
X9003149Y5328564D01*
X8971018Y5772968D01*
X8862768Y6034308D01*
X8649200Y6069595D01*
X8472443Y5892838D01*
X8403327Y6059699D01*
X8341710Y6121315D01*
X8469595Y6249200D01*
X8434308Y6462768D01*
X8011436Y6603149D01*
X7605000Y6573763D01*
X7605000Y6806310D01*
X7508327Y7039699D01*
X7329698Y7218327D01*
X7096309Y7315000D01*
X4715750Y7315000D01*
X4557000Y7156250D01*
X4303000Y7156250D01*
X4144250Y7315000D01*
X1763691Y7315000D01*
X1530302Y7218327D01*
X1351673Y7039699D01*
X1255000Y6806310D01*
X726955Y6806310D01*
X752673Y10995000D01*
X1242560Y10995000D01*
X1242560Y8705000D01*
X1291843Y8457235D01*
X1432191Y8247191D01*
X1642235Y8106843D01*
X1890000Y8057560D01*
X6970000Y8057560D01*
X7217765Y8106843D01*
X7427809Y8247191D01*
X7568157Y8457235D01*
X7617440Y8705000D01*
X7617440Y9065000D01*
X10725000Y9065000D01*
X10751706Y9070312D01*
X10778719Y9066901D01*
X10896286Y9099071D01*
X11015839Y9122852D01*
X11038480Y9137980D01*
X11064741Y9145166D01*
X11161047Y9219877D01*
X11262401Y9287599D01*
X11277528Y9310238D01*
X11299042Y9326928D01*
X12990595Y11276489D01*
X13001992Y11274222D01*
X13249757Y11323505D01*
X13459801Y11463853D01*
X14025487Y12029539D01*
X14165835Y12239583D01*
X14189822Y12360178D01*
X14310417Y12384165D01*
X14520461Y12524513D01*
X15086147Y13090199D01*
X15226495Y13300243D01*
X15275778Y13548008D01*
X15258695Y13633893D01*
X15412401Y13787599D01*
X15577148Y14034161D01*
X15635000Y14325000D01*
X15635000Y14989250D01*
X26640000Y14989250D01*
X26640000Y14823690D01*
X26736673Y14590301D01*
X26915302Y14411673D01*
X27148691Y14315000D01*
X27589250Y14315000D01*
X27748000Y14473750D01*
X27748000Y15148000D01*
X28002000Y15148000D01*
X28002000Y14473750D01*
X28160750Y14315000D01*
X28601309Y14315000D01*
X28800000Y14397301D01*
X28998691Y14315000D01*
X29819250Y14315000D01*
X29978000Y14473750D01*
X29978000Y15148000D01*
X30232000Y15148000D01*
X30232000Y14473750D01*
X30390750Y14315000D01*
X31211309Y14315000D01*
X31444698Y14411673D01*
X31623327Y14590301D01*
X31720000Y14823690D01*
X31720000Y14989250D01*
X31561250Y15148000D01*
X30232000Y15148000D01*
X29978000Y15148000D01*
X28002000Y15148000D01*
X27748000Y15148000D01*
X26798750Y15148000D01*
X26640000Y14989250D01*
X15635000Y14989250D01*
X15635000Y15715000D01*
X26640000Y15715000D01*
X26640000Y15560750D01*
X26798750Y15402000D01*
X27748000Y15402000D01*
X27748000Y15422000D01*
X28002000Y15422000D01*
X28002000Y15402000D01*
X29978000Y15402000D01*
X29978000Y15422000D01*
X30232000Y15422000D01*
X30232000Y15402000D01*
X31561250Y15402000D01*
X31720000Y15560750D01*
X31720000Y15715000D01*
X33000000Y15715000D01*
X33290839Y15772852D01*
X33537401Y15937599D01*
X34112401Y16512599D01*
X34277148Y16759161D01*
X34335000Y17050000D01*
X34335000Y19493541D01*
X34407809Y19542191D01*
X34548157Y19752235D01*
X34597440Y20000000D01*
X34597440Y20736436D01*
X37096851Y20736436D01*
X37128982Y20292032D01*
X37237232Y20030692D01*
X37450800Y19995405D01*
X37627557Y20172162D01*
X37696673Y20005301D01*
X37758290Y19943685D01*
X37630405Y19815800D01*
X37665692Y19602232D01*
X38088564Y19461851D01*
X38495000Y19491237D01*
X38495000Y19258690D01*
X38591673Y19025301D01*
X38770302Y18846673D01*
X39003691Y18750000D01*
X41384250Y18750000D01*
X41543000Y18908750D01*
X41543000Y20468000D01*
X41797000Y20468000D01*
X41797000Y18908750D01*
X41955750Y18750000D01*
X44336309Y18750000D01*
X44569698Y18846673D01*
X44748327Y19025301D01*
X44845000Y19258690D01*
X44845000Y20309250D01*
X44686250Y20468000D01*
X41797000Y20468000D01*
X41543000Y20468000D01*
X41523000Y20468000D01*
X41523000Y20722000D01*
X41543000Y20722000D01*
X41543000Y22281250D01*
X41797000Y22281250D01*
X41797000Y20722000D01*
X44686250Y20722000D01*
X44845000Y20880750D01*
X44845000Y21931310D01*
X44748327Y22164699D01*
X44569698Y22343327D01*
X44336309Y22440000D01*
X41955750Y22440000D01*
X41797000Y22281250D01*
X41543000Y22281250D01*
X41384250Y22440000D01*
X39003691Y22440000D01*
X38770302Y22343327D01*
X38591673Y22164699D01*
X38495000Y21931310D01*
X38495000Y21687129D01*
X38371436Y21728149D01*
X37927032Y21696018D01*
X37665692Y21587768D01*
X37630405Y21374200D01*
X37758290Y21246315D01*
X37696673Y21184699D01*
X37627557Y21017838D01*
X37450800Y21194595D01*
X37237232Y21159308D01*
X37096851Y20736436D01*
X34597440Y20736436D01*
X34597440Y20800000D01*
X34548157Y21047765D01*
X34479845Y21150000D01*
X34548157Y21252235D01*
X34597440Y21500000D01*
X34597440Y22300000D01*
X34548157Y22547765D01*
X34407809Y22757809D01*
X34335000Y22806459D01*
X34335000Y24215000D01*
X38482560Y24215000D01*
X38482560Y23830000D01*
X38531843Y23582235D01*
X38672191Y23372191D01*
X38882235Y23231843D01*
X39130000Y23182560D01*
X44210000Y23182560D01*
X44457765Y23231843D01*
X44667809Y23372191D01*
X44808157Y23582235D01*
X44857440Y23830000D01*
X44857440Y26120000D01*
X44808157Y26367765D01*
X44667809Y26577809D01*
X44457765Y26718157D01*
X44210000Y26767440D01*
X39130000Y26767440D01*
X38882235Y26718157D01*
X38672191Y26577809D01*
X38531843Y26367765D01*
X38482560Y26120000D01*
X38482560Y25735000D01*
X33625000Y25735000D01*
X33334161Y25677148D01*
X33087599Y25512401D01*
X33037599Y25462401D01*
X32872852Y25215839D01*
X32815000Y24925000D01*
X32815000Y22806459D01*
X32742191Y22757809D01*
X32601843Y22547765D01*
X32552560Y22300000D01*
X32552560Y21500000D01*
X32601843Y21252235D01*
X32670155Y21150000D01*
X32601843Y21047765D01*
X32552560Y20800000D01*
X32552560Y20000000D01*
X32601843Y19752235D01*
X32742191Y19542191D01*
X32815000Y19493541D01*
X32815000Y17364802D01*
X32685198Y17235000D01*
X31710000Y17235000D01*
X31710000Y17389250D01*
X31551250Y17548000D01*
X30602000Y17548000D01*
X30602000Y17528000D01*
X30348000Y17528000D01*
X30348000Y17548000D01*
X30328000Y17548000D01*
X30328000Y17802000D01*
X30348000Y17802000D01*
X30348000Y18476250D01*
X30602000Y18476250D01*
X30602000Y17802000D01*
X31551250Y17802000D01*
X31710000Y17960750D01*
X31710000Y18126310D01*
X31613327Y18359699D01*
X31434698Y18538327D01*
X31201309Y18635000D01*
X30760750Y18635000D01*
X30602000Y18476250D01*
X30348000Y18476250D01*
X30189250Y18635000D01*
X29748691Y18635000D01*
X29515302Y18538327D01*
X29336673Y18359699D01*
X29285272Y18235606D01*
X29061741Y18242816D01*
X29013327Y18359699D01*
X28834698Y18538327D01*
X28601309Y18635000D01*
X28160750Y18635000D01*
X28002000Y18476250D01*
X28002000Y17802000D01*
X28022000Y17802000D01*
X28022000Y17548000D01*
X28002000Y17548000D01*
X28002000Y17528000D01*
X27748000Y17528000D01*
X27748000Y17548000D01*
X26798750Y17548000D01*
X26640000Y17389250D01*
X26640000Y17235000D01*
X15200000Y17235000D01*
X14957414Y17186746D01*
X14909160Y17177148D01*
X14662599Y17012401D01*
X14337599Y16687401D01*
X14172852Y16440839D01*
X14115000Y16150000D01*
X14115000Y14722398D01*
X14098008Y14725778D01*
X13850243Y14676495D01*
X13640199Y14536147D01*
X13074513Y13970461D01*
X12934165Y13760417D01*
X12910178Y13639822D01*
X12789583Y13615835D01*
X12579539Y13475487D01*
X12013853Y12909801D01*
X11873505Y12699757D01*
X11824222Y12451992D01*
X11856656Y12288935D01*
X10378222Y10585000D01*
X7617440Y10585000D01*
X7617440Y10995000D01*
X7568157Y11242765D01*
X7427809Y11452809D01*
X7217765Y11593157D01*
X6970000Y11642440D01*
X1890000Y11642440D01*
X1642235Y11593157D01*
X1432191Y11452809D01*
X1291843Y11242765D01*
X1242560Y10995000D01*
X752673Y10995000D01*
X770780Y13944250D01*
X1255000Y13944250D01*
X1255000Y12893690D01*
X1351673Y12660301D01*
X1530302Y12481673D01*
X1763691Y12385000D01*
X4144250Y12385000D01*
X4303000Y12543750D01*
X4303000Y14103000D01*
X1413750Y14103000D01*
X1255000Y13944250D01*
X770780Y13944250D01*
X780738Y15566310D01*
X1255000Y15566310D01*
X1255000Y14515750D01*
X1413750Y14357000D01*
X4303000Y14357000D01*
X4303000Y15916250D01*
X4557000Y15916250D01*
X4557000Y14357000D01*
X4577000Y14357000D01*
X4577000Y14103000D01*
X4557000Y14103000D01*
X4557000Y12543750D01*
X4715750Y12385000D01*
X7096309Y12385000D01*
X7329698Y12481673D01*
X7508327Y12660301D01*
X7605000Y12893690D01*
X7605000Y13137871D01*
X7728564Y13096851D01*
X8172968Y13128982D01*
X8434308Y13237232D01*
X8469595Y13450800D01*
X8341710Y13578685D01*
X8403327Y13640301D01*
X8472443Y13807162D01*
X8649200Y13630405D01*
X8862768Y13665692D01*
X9003149Y14088564D01*
X8971018Y14532968D01*
X8862768Y14794308D01*
X8649200Y14829595D01*
X8472443Y14652838D01*
X8403327Y14819699D01*
X8341710Y14881315D01*
X8469595Y15009200D01*
X8434308Y15222768D01*
X8011436Y15363149D01*
X7605000Y15333763D01*
X7605000Y15566310D01*
X7508327Y15799699D01*
X7329698Y15978327D01*
X7096309Y16075000D01*
X4715750Y16075000D01*
X4557000Y15916250D01*
X4303000Y15916250D01*
X4144250Y16075000D01*
X1763691Y16075000D01*
X1530302Y15978327D01*
X1351673Y15799699D01*
X1255000Y15566310D01*
X780738Y15566310D01*
X796455Y18126310D01*
X26640000Y18126310D01*
X26640000Y17960750D01*
X26798750Y17802000D01*
X27748000Y17802000D01*
X27748000Y18476250D01*
X27589250Y18635000D01*
X27148691Y18635000D01*
X26915302Y18538327D01*
X26736673Y18359699D01*
X26640000Y18126310D01*
X796455Y18126310D01*
X866265Y29496436D01*
X37096851Y29496436D01*
X37128982Y29052032D01*
X37237232Y28790692D01*
X37450800Y28755405D01*
X37627557Y28932162D01*
X37696673Y28765301D01*
X37758290Y28703685D01*
X37630405Y28575800D01*
X37665692Y28362232D01*
X38088564Y28221851D01*
X38495000Y28251237D01*
X38495000Y28018690D01*
X38591673Y27785301D01*
X38770302Y27606673D01*
X39003691Y27510000D01*
X41384250Y27510000D01*
X41543000Y27668750D01*
X41543000Y29228000D01*
X41797000Y29228000D01*
X41797000Y27668750D01*
X41955750Y27510000D01*
X44336309Y27510000D01*
X44569698Y27606673D01*
X44748327Y27785301D01*
X44845000Y28018690D01*
X44845000Y29069250D01*
X44686250Y29228000D01*
X41797000Y29228000D01*
X41543000Y29228000D01*
X41523000Y29228000D01*
X41523000Y29482000D01*
X41543000Y29482000D01*
X41543000Y31041250D01*
X41797000Y31041250D01*
X41797000Y29482000D01*
X44686250Y29482000D01*
X44845000Y29640750D01*
X44845000Y30691310D01*
X44748327Y30924699D01*
X44569698Y31103327D01*
X44336309Y31200000D01*
X41955750Y31200000D01*
X41797000Y31041250D01*
X41543000Y31041250D01*
X41384250Y31200000D01*
X39003691Y31200000D01*
X38770302Y31103327D01*
X38591673Y30924699D01*
X38495000Y30691310D01*
X38495000Y30447129D01*
X38371436Y30488149D01*
X37927032Y30456018D01*
X37665692Y30347768D01*
X37630405Y30134200D01*
X37758290Y30006315D01*
X37696673Y29944699D01*
X37627557Y29777838D01*
X37450800Y29954595D01*
X37237232Y29919308D01*
X37096851Y29496436D01*
X866265Y29496436D01*
X880501Y31815000D01*
X45865000Y31815000D01*
X45865000Y685000D01*
X45865000Y685000D01*
G37*
X45865000Y685000D02*
X2904151Y685000D01*
X689462Y699459D01*
X716997Y5184250D01*
X1255000Y5184250D01*
X1255000Y4133690D01*
X1351673Y3900301D01*
X1530302Y3721673D01*
X1763691Y3625000D01*
X4144250Y3625000D01*
X4303000Y3783750D01*
X4303000Y5343000D01*
X1413750Y5343000D01*
X1255000Y5184250D01*
X716997Y5184250D01*
X726955Y6806310D01*
X1255000Y6806310D01*
X1255000Y5755750D01*
X1413750Y5597000D01*
X4303000Y5597000D01*
X4303000Y7156250D01*
X4557000Y7156250D01*
X4557000Y5597000D01*
X4577000Y5597000D01*
X4577000Y5343000D01*
X4557000Y5343000D01*
X4557000Y3783750D01*
X4715750Y3625000D01*
X7096309Y3625000D01*
X7329698Y3721673D01*
X7508327Y3900301D01*
X7605000Y4133690D01*
X7605000Y4377871D01*
X7728564Y4336851D01*
X8172968Y4368982D01*
X8434308Y4477232D01*
X8469595Y4690800D01*
X8341710Y4818685D01*
X8403327Y4880301D01*
X8472443Y5047162D01*
X8649200Y4870405D01*
X8862768Y4905692D01*
X9003149Y5328564D01*
X8971018Y5772968D01*
X8862768Y6034308D01*
X8649200Y6069595D01*
X8472443Y5892838D01*
X8403327Y6059699D01*
X8341710Y6121315D01*
X8469595Y6249200D01*
X8434308Y6462768D01*
X8011436Y6603149D01*
X7605000Y6573763D01*
X7605000Y6806310D01*
X7508327Y7039699D01*
X7329698Y7218327D01*
X7096309Y7315000D01*
X4715750Y7315000D01*
X4557000Y7156250D01*
X4303000Y7156250D01*
X4144250Y7315000D01*
X1763691Y7315000D01*
X1530302Y7218327D01*
X1351673Y7039699D01*
X1255000Y6806310D01*
X726955Y6806310D01*
X752673Y10995000D01*
X1242560Y10995000D01*
X1242560Y8705000D01*
X1291843Y8457235D01*
X1432191Y8247191D01*
X1642235Y8106843D01*
X1890000Y8057560D01*
X6970000Y8057560D01*
X7217765Y8106843D01*
X7427809Y8247191D01*
X7568157Y8457235D01*
X7617440Y8705000D01*
X7617440Y9065000D01*
X10725000Y9065000D01*
X10751706Y9070312D01*
X10778719Y9066901D01*
X10896286Y9099071D01*
X11015839Y9122852D01*
X11038480Y9137980D01*
X11064741Y9145166D01*
X11161047Y9219877D01*
X11262401Y9287599D01*
X11277528Y9310238D01*
X11299042Y9326928D01*
X12990595Y11276489D01*
X13001992Y11274222D01*
X13249757Y11323505D01*
X13459801Y11463853D01*
X14025487Y12029539D01*
X14165835Y12239583D01*
X14189822Y12360178D01*
X14310417Y12384165D01*
X14520461Y12524513D01*
X15086147Y13090199D01*
X15226495Y13300243D01*
X15275778Y13548008D01*
X15258695Y13633893D01*
X15412401Y13787599D01*
X15577148Y14034161D01*
X15635000Y14325000D01*
X15635000Y14989250D01*
X26640000Y14989250D01*
X26640000Y14823690D01*
X26736673Y14590301D01*
X26915302Y14411673D01*
X27148691Y14315000D01*
X27589250Y14315000D01*
X27748000Y14473750D01*
X27748000Y15148000D01*
X28002000Y15148000D01*
X28002000Y14473750D01*
X28160750Y14315000D01*
X28601309Y14315000D01*
X28800000Y14397301D01*
X28998691Y14315000D01*
X29819250Y14315000D01*
X29978000Y14473750D01*
X29978000Y15148000D01*
X30232000Y15148000D01*
X30232000Y14473750D01*
X30390750Y14315000D01*
X31211309Y14315000D01*
X31444698Y14411673D01*
X31623327Y14590301D01*
X31720000Y14823690D01*
X31720000Y14989250D01*
X31561250Y15148000D01*
X30232000Y15148000D01*
X29978000Y15148000D01*
X28002000Y15148000D01*
X27748000Y15148000D01*
X26798750Y15148000D01*
X26640000Y14989250D01*
X15635000Y14989250D01*
X15635000Y15715000D01*
X26640000Y15715000D01*
X26640000Y15560750D01*
X26798750Y15402000D01*
X27748000Y15402000D01*
X27748000Y15422000D01*
X28002000Y15422000D01*
X28002000Y15402000D01*
X29978000Y15402000D01*
X29978000Y15422000D01*
X30232000Y15422000D01*
X30232000Y15402000D01*
X31561250Y15402000D01*
X31720000Y15560750D01*
X31720000Y15715000D01*
X33000000Y15715000D01*
X33290839Y15772852D01*
X33537401Y15937599D01*
X34112401Y16512599D01*
X34277148Y16759161D01*
X34335000Y17050000D01*
X34335000Y19493541D01*
X34407809Y19542191D01*
X34548157Y19752235D01*
X34597440Y20000000D01*
X34597440Y20736436D01*
X37096851Y20736436D01*
X37128982Y20292032D01*
X37237232Y20030692D01*
X37450800Y19995405D01*
X37627557Y20172162D01*
X37696673Y20005301D01*
X37758290Y19943685D01*
X37630405Y19815800D01*
X37665692Y19602232D01*
X38088564Y19461851D01*
X38495000Y19491237D01*
X38495000Y19258690D01*
X38591673Y19025301D01*
X38770302Y18846673D01*
X39003691Y18750000D01*
X41384250Y18750000D01*
X41543000Y18908750D01*
X41543000Y20468000D01*
X41797000Y20468000D01*
X41797000Y18908750D01*
X41955750Y18750000D01*
X44336309Y18750000D01*
X44569698Y18846673D01*
X44748327Y19025301D01*
X44845000Y19258690D01*
X44845000Y20309250D01*
X44686250Y20468000D01*
X41797000Y20468000D01*
X41543000Y20468000D01*
X41523000Y20468000D01*
X41523000Y20722000D01*
X41543000Y20722000D01*
X41543000Y22281250D01*
X41797000Y22281250D01*
X41797000Y20722000D01*
X44686250Y20722000D01*
X44845000Y20880750D01*
X44845000Y21931310D01*
X44748327Y22164699D01*
X44569698Y22343327D01*
X44336309Y22440000D01*
X41955750Y22440000D01*
X41797000Y22281250D01*
X41543000Y22281250D01*
X41384250Y22440000D01*
X39003691Y22440000D01*
X38770302Y22343327D01*
X38591673Y22164699D01*
X38495000Y21931310D01*
X38495000Y21687129D01*
X38371436Y21728149D01*
X37927032Y21696018D01*
X37665692Y21587768D01*
X37630405Y21374200D01*
X37758290Y21246315D01*
X37696673Y21184699D01*
X37627557Y21017838D01*
X37450800Y21194595D01*
X37237232Y21159308D01*
X37096851Y20736436D01*
X34597440Y20736436D01*
X34597440Y20800000D01*
X34548157Y21047765D01*
X34479845Y21150000D01*
X34548157Y21252235D01*
X34597440Y21500000D01*
X34597440Y22300000D01*
X34548157Y22547765D01*
X34407809Y22757809D01*
X34335000Y22806459D01*
X34335000Y24215000D01*
X38482560Y24215000D01*
X38482560Y23830000D01*
X38531843Y23582235D01*
X38672191Y23372191D01*
X38882235Y23231843D01*
X39130000Y23182560D01*
X44210000Y23182560D01*
X44457765Y23231843D01*
X44667809Y23372191D01*
X44808157Y23582235D01*
X44857440Y23830000D01*
X44857440Y26120000D01*
X44808157Y26367765D01*
X44667809Y26577809D01*
X44457765Y26718157D01*
X44210000Y26767440D01*
X39130000Y26767440D01*
X38882235Y26718157D01*
X38672191Y26577809D01*
X38531843Y26367765D01*
X38482560Y26120000D01*
X38482560Y25735000D01*
X33625000Y25735000D01*
X33334161Y25677148D01*
X33087599Y25512401D01*
X33037599Y25462401D01*
X32872852Y25215839D01*
X32815000Y24925000D01*
X32815000Y22806459D01*
X32742191Y22757809D01*
X32601843Y22547765D01*
X32552560Y22300000D01*
X32552560Y21500000D01*
X32601843Y21252235D01*
X32670155Y21150000D01*
X32601843Y21047765D01*
X32552560Y20800000D01*
X32552560Y20000000D01*
X32601843Y19752235D01*
X32742191Y19542191D01*
X32815000Y19493541D01*
X32815000Y17364802D01*
X32685198Y17235000D01*
X31710000Y17235000D01*
X31710000Y17389250D01*
X31551250Y17548000D01*
X30602000Y17548000D01*
X30602000Y17528000D01*
X30348000Y17528000D01*
X30348000Y17548000D01*
X30328000Y17548000D01*
X30328000Y17802000D01*
X30348000Y17802000D01*
X30348000Y18476250D01*
X30602000Y18476250D01*
X30602000Y17802000D01*
X31551250Y17802000D01*
X31710000Y17960750D01*
X31710000Y18126310D01*
X31613327Y18359699D01*
X31434698Y18538327D01*
X31201309Y18635000D01*
X30760750Y18635000D01*
X30602000Y18476250D01*
X30348000Y18476250D01*
X30189250Y18635000D01*
X29748691Y18635000D01*
X29515302Y18538327D01*
X29336673Y18359699D01*
X29285272Y18235606D01*
X29061741Y18242816D01*
X29013327Y18359699D01*
X28834698Y18538327D01*
X28601309Y18635000D01*
X28160750Y18635000D01*
X28002000Y18476250D01*
X28002000Y17802000D01*
X28022000Y17802000D01*
X28022000Y17548000D01*
X28002000Y17548000D01*
X28002000Y17528000D01*
X27748000Y17528000D01*
X27748000Y17548000D01*
X26798750Y17548000D01*
X26640000Y17389250D01*
X26640000Y17235000D01*
X15200000Y17235000D01*
X14957414Y17186746D01*
X14909160Y17177148D01*
X14662599Y17012401D01*
X14337599Y16687401D01*
X14172852Y16440839D01*
X14115000Y16150000D01*
X14115000Y14722398D01*
X14098008Y14725778D01*
X13850243Y14676495D01*
X13640199Y14536147D01*
X13074513Y13970461D01*
X12934165Y13760417D01*
X12910178Y13639822D01*
X12789583Y13615835D01*
X12579539Y13475487D01*
X12013853Y12909801D01*
X11873505Y12699757D01*
X11824222Y12451992D01*
X11856656Y12288935D01*
X10378222Y10585000D01*
X7617440Y10585000D01*
X7617440Y10995000D01*
X7568157Y11242765D01*
X7427809Y11452809D01*
X7217765Y11593157D01*
X6970000Y11642440D01*
X1890000Y11642440D01*
X1642235Y11593157D01*
X1432191Y11452809D01*
X1291843Y11242765D01*
X1242560Y10995000D01*
X752673Y10995000D01*
X770780Y13944250D01*
X1255000Y13944250D01*
X1255000Y12893690D01*
X1351673Y12660301D01*
X1530302Y12481673D01*
X1763691Y12385000D01*
X4144250Y12385000D01*
X4303000Y12543750D01*
X4303000Y14103000D01*
X1413750Y14103000D01*
X1255000Y13944250D01*
X770780Y13944250D01*
X780738Y15566310D01*
X1255000Y15566310D01*
X1255000Y14515750D01*
X1413750Y14357000D01*
X4303000Y14357000D01*
X4303000Y15916250D01*
X4557000Y15916250D01*
X4557000Y14357000D01*
X4577000Y14357000D01*
X4577000Y14103000D01*
X4557000Y14103000D01*
X4557000Y12543750D01*
X4715750Y12385000D01*
X7096309Y12385000D01*
X7329698Y12481673D01*
X7508327Y12660301D01*
X7605000Y12893690D01*
X7605000Y13137871D01*
X7728564Y13096851D01*
X8172968Y13128982D01*
X8434308Y13237232D01*
X8469595Y13450800D01*
X8341710Y13578685D01*
X8403327Y13640301D01*
X8472443Y13807162D01*
X8649200Y13630405D01*
X8862768Y13665692D01*
X9003149Y14088564D01*
X8971018Y14532968D01*
X8862768Y14794308D01*
X8649200Y14829595D01*
X8472443Y14652838D01*
X8403327Y14819699D01*
X8341710Y14881315D01*
X8469595Y15009200D01*
X8434308Y15222768D01*
X8011436Y15363149D01*
X7605000Y15333763D01*
X7605000Y15566310D01*
X7508327Y15799699D01*
X7329698Y15978327D01*
X7096309Y16075000D01*
X4715750Y16075000D01*
X4557000Y15916250D01*
X4303000Y15916250D01*
X4144250Y16075000D01*
X1763691Y16075000D01*
X1530302Y15978327D01*
X1351673Y15799699D01*
X1255000Y15566310D01*
X780738Y15566310D01*
X796455Y18126310D01*
X26640000Y18126310D01*
X26640000Y17960750D01*
X26798750Y17802000D01*
X27748000Y17802000D01*
X27748000Y18476250D01*
X27589250Y18635000D01*
X27148691Y18635000D01*
X26915302Y18538327D01*
X26736673Y18359699D01*
X26640000Y18126310D01*
X796455Y18126310D01*
X866265Y29496436D01*
X37096851Y29496436D01*
X37128982Y29052032D01*
X37237232Y28790692D01*
X37450800Y28755405D01*
X37627557Y28932162D01*
X37696673Y28765301D01*
X37758290Y28703685D01*
X37630405Y28575800D01*
X37665692Y28362232D01*
X38088564Y28221851D01*
X38495000Y28251237D01*
X38495000Y28018690D01*
X38591673Y27785301D01*
X38770302Y27606673D01*
X39003691Y27510000D01*
X41384250Y27510000D01*
X41543000Y27668750D01*
X41543000Y29228000D01*
X41797000Y29228000D01*
X41797000Y27668750D01*
X41955750Y27510000D01*
X44336309Y27510000D01*
X44569698Y27606673D01*
X44748327Y27785301D01*
X44845000Y28018690D01*
X44845000Y29069250D01*
X44686250Y29228000D01*
X41797000Y29228000D01*
X41543000Y29228000D01*
X41523000Y29228000D01*
X41523000Y29482000D01*
X41543000Y29482000D01*
X41543000Y31041250D01*
X41797000Y31041250D01*
X41797000Y29482000D01*
X44686250Y29482000D01*
X44845000Y29640750D01*
X44845000Y30691310D01*
X44748327Y30924699D01*
X44569698Y31103327D01*
X44336309Y31200000D01*
X41955750Y31200000D01*
X41797000Y31041250D01*
X41543000Y31041250D01*
X41384250Y31200000D01*
X39003691Y31200000D01*
X38770302Y31103327D01*
X38591673Y30924699D01*
X38495000Y30691310D01*
X38495000Y30447129D01*
X38371436Y30488149D01*
X37927032Y30456018D01*
X37665692Y30347768D01*
X37630405Y30134200D01*
X37758290Y30006315D01*
X37696673Y29944699D01*
X37627557Y29777838D01*
X37450800Y29954595D01*
X37237232Y29919308D01*
X37096851Y29496436D01*
X866265Y29496436D01*
X880501Y31815000D01*
X45865000Y31815000D01*
X45865000Y685000D01*
%TD*%
M02*
