%TF.GenerationSoftware,KiCad,Pcbnew,(2017-10-17 revision 537804b)-master*%
%TF.CreationDate,2018-07-22T21:53:39+10:00*%
%TF.ProjectId,rf_matching,72665F6D61746368696E672E6B696361,rev?*%
%TF.SameCoordinates,PX92c53e0PY691e668*%
%TF.FileFunction,Legend,Top*%
%TF.FilePolarity,Positive*%
%FSLAX46Y46*%
G04 Gerber Fmt 4.6, Leading zero omitted, Abs format (unit mm)*
G04 Created by KiCad (PCBNEW (2017-10-17 revision 537804b)-master) date Sunday, 22 July 2018 'PMt' 21:53:39*
%MOMM*%
%LPD*%
G01*
G04 APERTURE LIST*
%ADD10C,0.300000*%
%ADD11C,0.100000*%
%ADD12C,0.120000*%
%ADD13C,0.150000*%
%ADD14C,0.254000*%
G04 APERTURE END LIST*
D10*
X32310714Y29100000D02*
X33025000Y29100000D01*
X32167857Y28671429D02*
X32667857Y30171429D01*
X33167857Y28671429D01*
X33667857Y28671429D02*
X33667857Y30171429D01*
X34525000Y28671429D01*
X34525000Y30171429D01*
X35025000Y30171429D02*
X35882142Y30171429D01*
X35453571Y28671429D02*
X35453571Y30171429D01*
D11*
%TO.C,U2*%
X31949310Y15215000D02*
G75*
G03X31949310Y15215000I-234310J0D01*
G01*
D12*
%TO.C,C1*%
X32975000Y20800000D02*
X32975000Y21500000D01*
X34175000Y21500000D02*
X34175000Y20800000D01*
%TO.C,C3*%
X14221751Y12823223D02*
X13726777Y12328249D01*
X12878249Y13176777D02*
X13373223Y13671751D01*
%TO.C,J2*%
D13*
X7491666Y12572620D02*
X7491666Y11858334D01*
X7444047Y11715477D01*
X7348809Y11620239D01*
X7205952Y11572620D01*
X7110714Y11572620D01*
X7920238Y12477381D02*
X7967857Y12525000D01*
X8063095Y12572620D01*
X8301190Y12572620D01*
X8396428Y12525000D01*
X8444047Y12477381D01*
X8491666Y12382143D01*
X8491666Y12286905D01*
X8444047Y12144048D01*
X7872619Y11572620D01*
X8491666Y11572620D01*
%TO.C,J4*%
X37966666Y27672620D02*
X37966666Y26958334D01*
X37919047Y26815477D01*
X37823809Y26720239D01*
X37680952Y26672620D01*
X37585714Y26672620D01*
X38871428Y27339286D02*
X38871428Y26672620D01*
X38633333Y27720239D02*
X38395238Y27005953D01*
X39014285Y27005953D01*
%TO.C,U2*%
D14*
X27132380Y20270477D02*
X27132380Y19242381D01*
X27192857Y19121429D01*
X27253333Y19060953D01*
X27374285Y19000477D01*
X27616190Y19000477D01*
X27737142Y19060953D01*
X27797619Y19121429D01*
X27858095Y19242381D01*
X27858095Y20270477D01*
X28402380Y20149524D02*
X28462857Y20210000D01*
X28583809Y20270477D01*
X28886190Y20270477D01*
X29007142Y20210000D01*
X29067619Y20149524D01*
X29128095Y20028572D01*
X29128095Y19907620D01*
X29067619Y19726191D01*
X28341904Y19000477D01*
X29128095Y19000477D01*
%TO.C,C1*%
D13*
X35432142Y20983334D02*
X35479761Y20935715D01*
X35527380Y20792858D01*
X35527380Y20697620D01*
X35479761Y20554762D01*
X35384523Y20459524D01*
X35289285Y20411905D01*
X35098809Y20364286D01*
X34955952Y20364286D01*
X34765476Y20411905D01*
X34670238Y20459524D01*
X34575000Y20554762D01*
X34527380Y20697620D01*
X34527380Y20792858D01*
X34575000Y20935715D01*
X34622619Y20983334D01*
X35527380Y21935715D02*
X35527380Y21364286D01*
X35527380Y21650000D02*
X34527380Y21650000D01*
X34670238Y21554762D01*
X34765476Y21459524D01*
X34813095Y21364286D01*
%TO.C,C3*%
X14745347Y11568951D02*
X14745347Y11501608D01*
X14678003Y11366921D01*
X14610660Y11299577D01*
X14475972Y11232234D01*
X14341285Y11232234D01*
X14240270Y11265905D01*
X14071911Y11366921D01*
X13970896Y11467936D01*
X13869881Y11636295D01*
X13836209Y11737310D01*
X13836209Y11871997D01*
X13903553Y12006684D01*
X13970896Y12074028D01*
X14105583Y12141371D01*
X14172927Y12141371D01*
X14341285Y12444417D02*
X14779018Y12882150D01*
X14812690Y12377073D01*
X14913705Y12478089D01*
X15014721Y12511760D01*
X15082064Y12511760D01*
X15183079Y12478089D01*
X15351438Y12309730D01*
X15385110Y12208715D01*
X15385110Y12141371D01*
X15351438Y12040356D01*
X15149408Y11838325D01*
X15048392Y11804653D01*
X14981049Y11804653D01*
%TD*%
M02*
